<svg width="257" height="257" viewBox="0 0 257 257" fill="none" xmlns="http://www.w3.org/2000/svg">
<rect width="257" height="257" fill="white"/>
<path d="M36.9862 124.684C36.5295 141.358 45.1684 144.754 49.5449 144.368C49.5449 137.421 52.7261 122.826 69.1667 122.826C85.6073 122.826 87.2213 139.93 85.5087 149H172.279C169.995 139.93 171.135 122.826 189.859 122.826C208.583 122.826 210.146 139.93 207.672 149H214.522C216.996 148.228 218.86 143.326 217.947 129.895C217.033 116.463 193.971 109.246 182.554 107.316C181.032 106.737 174.904 103.495 162.574 95.1579C147.161 84.7368 134.602 83 102.634 83C77.0601 83 63.4357 94.5789 59.8203 100.368L43.8364 105.579C42.5044 110.596 39.2696 121.442 36.9862 124.684Z" stroke="#B2B2B2" stroke-width="1.5"/>
<path d="M81.1741 141.714C81.1741 148.882 75.4264 154.679 68.3527 154.679C61.279 154.679 55.5312 148.882 55.5312 141.714C55.5312 134.547 61.279 128.75 68.3527 128.75C75.4264 128.75 81.1741 134.547 81.1741 141.714Z" stroke="#B2B2B2" stroke-width="1.5"/>
<path d="M202.893 141.714C202.893 148.882 197.145 154.679 190.071 154.679C182.998 154.679 177.25 148.882 177.25 141.714C177.25 134.547 182.998 128.75 190.071 128.75C197.145 128.75 202.893 134.547 202.893 141.714Z" stroke="#B2B2B2" stroke-width="1.5"/>
<path d="M66.992 188V171.08H68.912L79.304 184.712H78.704V171.08H81.032V188H79.136L68.768 174.368H69.32V188H66.992ZM84.416 179.528C84.416 177.752 84.728 176.216 85.352 174.92C85.976 173.624 86.88 172.624 88.064 171.92C89.264 171.216 90.688 170.864 92.336 170.864C93.968 170.864 95.376 171.216 96.56 171.92C97.744 172.624 98.656 173.624 99.296 174.92C99.952 176.216 100.28 177.744 100.28 179.504C100.28 181.28 99.952 182.824 99.296 184.136C98.656 185.432 97.736 186.44 96.536 187.16C95.352 187.864 93.952 188.216 92.336 188.216C90.688 188.216 89.272 187.864 88.088 187.16C86.904 186.44 85.992 185.432 85.352 184.136C84.728 182.824 84.416 181.288 84.416 179.528ZM87.032 179.528C87.032 181.576 87.48 183.176 88.376 184.328C89.272 185.48 90.592 186.056 92.336 186.056C94.032 186.056 95.344 185.488 96.272 184.352C97.2 183.2 97.664 181.592 97.664 179.528C97.664 177.464 97.2 175.864 96.272 174.728C95.36 173.592 94.048 173.024 92.336 173.024C90.592 173.024 89.272 173.592 88.376 174.728C87.48 175.864 87.032 177.464 87.032 179.528ZM110.094 188V171.08H117.27C119.078 171.08 120.462 171.52 121.422 172.4C122.398 173.264 122.886 174.464 122.886 176C122.886 177.536 122.398 178.744 121.422 179.624C120.462 180.504 119.078 180.944 117.27 180.944H112.59V188H110.094ZM112.59 178.952H117.006C118.142 178.952 118.998 178.696 119.574 178.184C120.15 177.672 120.438 176.944 120.438 176C120.438 175.072 120.15 174.352 119.574 173.84C118.998 173.328 118.142 173.072 117.006 173.072H112.59V178.952ZM125.89 188V171.08H128.386V178.376H137.89V171.08H140.386V188H137.89V180.464H128.386V188H125.89ZM143.783 179.528C143.783 177.752 144.095 176.216 144.719 174.92C145.343 173.624 146.247 172.624 147.431 171.92C148.631 171.216 150.055 170.864 151.703 170.864C153.335 170.864 154.743 171.216 155.927 171.92C157.111 172.624 158.023 173.624 158.663 174.92C159.319 176.216 159.647 177.744 159.647 179.504C159.647 181.28 159.319 182.824 158.663 184.136C158.023 185.432 157.103 186.44 155.903 187.16C154.719 187.864 153.319 188.216 151.703 188.216C150.055 188.216 148.639 187.864 147.455 187.16C146.271 186.44 145.359 185.432 144.719 184.136C144.095 182.824 143.783 181.288 143.783 179.528ZM146.399 179.528C146.399 181.576 146.847 183.176 147.743 184.328C148.639 185.48 149.959 186.056 151.703 186.056C153.399 186.056 154.711 185.488 155.639 184.352C156.567 183.2 157.031 181.592 157.031 179.528C157.031 177.464 156.567 175.864 155.639 174.728C154.727 173.592 153.415 173.024 151.703 173.024C149.959 173.024 148.639 173.592 147.743 174.728C146.847 175.864 146.399 177.464 146.399 179.528ZM166.064 188V173.168H160.28V171.08H174.344V173.168H168.56V188H166.064ZM175.049 179.528C175.049 177.752 175.361 176.216 175.985 174.92C176.609 173.624 177.513 172.624 178.697 171.92C179.897 171.216 181.321 170.864 182.969 170.864C184.601 170.864 186.009 171.216 187.193 171.92C188.377 172.624 189.289 173.624 189.929 174.92C190.585 176.216 190.913 177.744 190.913 179.504C190.913 181.28 190.585 182.824 189.929 184.136C189.289 185.432 188.369 186.44 187.169 187.16C185.985 187.864 184.585 188.216 182.969 188.216C181.321 188.216 179.905 187.864 178.721 187.16C177.537 186.44 176.625 185.432 175.985 184.136C175.361 182.824 175.049 181.288 175.049 179.528ZM177.665 179.528C177.665 181.576 178.113 183.176 179.009 184.328C179.905 185.48 181.225 186.056 182.969 186.056C184.665 186.056 185.977 185.488 186.905 184.352C187.833 183.2 188.297 181.592 188.297 179.528C188.297 177.464 187.833 175.864 186.905 174.728C185.993 173.592 184.681 173.024 182.969 173.024C181.225 173.024 179.905 173.592 179.009 174.728C178.113 175.864 177.665 177.464 177.665 179.528Z" fill="#B2B2B2"/>
</svg>
