<svg xmlns="http://www.w3.org/2000/svg" width="40" height="40" viewBox="0 0 40 40" fill="none">
  <g clip-path="url(#clip0_649_1399)">
    <path fill-rule="evenodd" clip-rule="evenodd" d="M21.6667 16.6667C26.6667 21.6667 30 25.045 30 30C30 35.5228 25.5228 40 20 40C14.4772 40 10 35.5228 10 30C10 25.045 13.3333 21.6667 18.3333 16.6667L18.3333 10L14.2265 10L20 8.74228e-07L25.7735 10L21.6667 10L21.6667 16.6667ZM21.2084 25L16.667 25L16.667 35L21.3848 35C22.5214 35 23.4081 34.7589 24.045 34.2766C24.6819 33.7849 25.0003 33.0946 25.0003 32.2057C25.0003 31.5154 24.7897 30.9622 24.3683 30.5461C24.0428 30.2094 23.6098 29.9734 23.0696 29.838C23.5157 29.6802 23.8801 29.4434 24.1626 29.1277C24.5349 28.7116 24.7211 28.2009 24.7211 27.5957C24.7211 26.7825 24.4173 26.1489 23.8098 25.695C23.2024 25.2317 22.3352 25 21.2084 25ZM21.1643 33.6099L18.4894 33.6099L18.4894 30.617L21.1643 30.617C21.8012 30.617 22.296 30.7352 22.6488 30.9716C23.0015 31.1986 23.1779 31.5816 23.1779 32.1206C23.1779 32.6501 23.0015 33.0331 22.6488 33.2695C22.296 33.4965 21.8012 33.6099 21.1643 33.6099ZM20.8851 29.2411L18.4894 29.2411L18.4894 26.3759L20.8851 26.3759C21.5612 26.3759 22.0609 26.4988 22.3842 26.7447C22.7174 26.9811 22.8839 27.3357 22.8839 27.8085C22.8839 28.2813 22.7174 28.6407 22.3842 28.8865C22.0609 29.1229 21.5612 29.2411 20.8851 29.2411Z" fill="#B2B2B2"/>
  </g>
  <defs>
    <clipPath id="clip0_649_1399">
      <rect width="40" height="40" fill="white"/>
    </clipPath>
  </defs>
</svg>