<svg width="24" height="24" viewBox="0 0 24 24" fill="none" xmlns="http://www.w3.org/2000/svg">
<g clip-path="url(#clip0_466_17)">
<path d="M8 12L13.5 17L23.5 8" stroke="#689901"/>
<path d="M22.4085 18.361C21.3342 20.2218 19.7322 21.7223 17.8051 22.6726C15.878 23.6229 13.7123 23.9805 11.582 23.7C9.4517 23.4196 7.4524 22.5137 5.83693 21.097C4.22145 19.6802 3.06237 17.8163 2.50625 15.7408C1.95013 13.6653 2.02194 11.4715 2.71262 9.43689C3.40329 7.40222 4.6818 5.61806 6.38647 4.31002C8.09115 3.00198 10.1454 2.22881 12.2895 2.08828C14.4336 1.94775 16.5712 2.44617 18.432 3.52052" stroke="#689901"/>
</g>
<defs>
<clipPath id="clip0_466_17">
<rect width="24" height="24" fill="white"/>
</clipPath>
</defs>
</svg>
