<svg xmlns="http://www.w3.org/2000/svg" width="32" height="32" viewBox="0 0 32 32" fill="none">
  <path d="M27.8862 22.8572V27.8C27.8862 28.3523 27.4385 28.8 26.8862 28.8H3.05762C2.50533 28.8 2.05762 28.3523 2.05762 27.8V11.0572C2.05762 10.5049 2.50533 10.0572 3.05762 10.0572H8.45762M27.8862 22.8572H28.7148C29.267 22.8572 29.7148 22.4095 29.7148 21.8572V16.3143C29.7148 15.762 29.267 15.3143 28.7148 15.3143H27.8862M27.8862 22.8572H19.7433C19.191 22.8572 18.7433 22.4095 18.7433 21.8572V16.3143C18.7433 15.762 19.191 15.3143 19.7433 15.3143H27.8862M27.8862 15.3143V11.0572C27.8862 10.5049 27.4385 10.0572 26.8862 10.0572H21.7148M8.45762 10.0572L14.187 4.53242C14.5648 4.1681 15.16 4.15786 15.5501 4.50897L21.7148 10.0572M8.45762 10.0572H21.7148M22.591 18.2857C22.2862 18.2857 21.6767 18.4686 21.6767 19.2C21.6767 19.9315 22.2862 20.1143 22.591 20.1143C22.8195 20.1143 23.5052 19.9315 23.5052 19.2C23.5052 18.4686 22.8195 18.2857 22.591 18.2857Z" stroke="#868686"/>
</svg>