<svg width="122" height="64" viewBox="0 0 122 64" fill="none" xmlns="http://www.w3.org/2000/svg">
<path d="M0.80247 47.9687L0.765774 48.2H1H11.4125H11.5836L11.6101 48.031L13.4346 36.4152H25.2506H25.4214L25.4481 36.2464L26.7337 28.1251L26.7703 27.8938H26.5362H14.7866L15.3703 24.3214H28.2474H28.4183L28.445 24.1526L29.7306 16.0313L29.7672 15.8H29.533H6.07605H5.90527L5.87852 15.9687L0.80247 47.9687ZM12.8867 35.5738H12.7157L12.6892 35.7428L10.8647 47.3586H1.75048L6.62305 16.6414H28.7828L27.7003 23.48H14.8259H14.6559L14.6285 23.6478L13.8352 28.5029L13.7973 28.7352H14.0326H25.7859L24.7034 35.5738H12.8867ZM26.7978 47.9687L26.7611 48.2H26.9954H50.0124H50.1834L50.21 48.031L51.5826 39.2917L51.6189 39.0607H51.385H39.016L42.6812 16.0314L42.718 15.8H42.4836H32.0714H31.9006L31.8739 15.9687L26.7978 47.9687ZM38.0676 39.6706L38.0308 39.9021H38.2651H50.6357L49.4645 47.3586H27.7458L32.6184 16.6414H41.7328L38.0676 39.6706ZM52.7071 47.9687L52.6704 48.2H52.9047H76.8467H77.0175L77.0443 48.0313L78.3299 39.9099L78.3665 39.6786H78.1323H64.3974L64.9848 36.0179H77.7281H77.899L77.9257 35.8492L79.2113 27.7278L79.2479 27.4966H79.0137H66.3348L66.8371 24.3214H80.6369H80.8077L80.8344 24.1526L82.12 16.0313L82.1566 15.8H81.9225H57.9807H57.8099L57.7832 15.9687L52.7071 47.9687ZM63.448 40.2883L63.4109 40.52H63.6455H77.3821L76.2995 47.3586H53.6551L58.5277 16.6414H81.1722L80.0897 23.48H66.2898H66.119L66.0923 23.6488L65.3871 28.1067L65.3505 28.3379H65.5847H78.2635L77.181 35.1766H64.4388H64.2683L64.2413 35.3449L63.448 40.2883ZM79.1842 47.865L78.8779 48.2H79.3318H91.9485H92.0397L92.0995 48.1311L99.2091 39.941L103.696 48.0964L103.753 48.2H103.871H115.71H116.064L115.882 47.8967L106.421 32.2095L121.147 16.1351L121.454 15.8H121H108.337H108.246L108.186 15.8693L101.267 23.882L96.9913 15.9055L96.9348 15.8H96.815H85.0229H84.6715L84.851 16.1022L94.0582 31.5998L79.1842 47.865ZM99.5028 38.7304L99.3645 38.4791L99.1765 38.6957L91.6564 47.3586H80.787L94.9998 31.8164L95.0999 31.7069L95.0241 31.5793L86.1494 16.6414H96.4317L100.967 25.1012L101.104 25.3577L101.295 25.1374L108.63 16.6414H119.543L105.477 31.9948L105.376 32.1051L105.454 32.2332L114.575 47.3586H104.25L99.5028 38.7304Z" fill="#689901" stroke="#689901" stroke-width="0.4"/>
</svg>
