<svg width="640" height="128" viewBox="0 0 640 128" fill="none" xmlns="http://www.w3.org/2000/svg">
<path fill-rule="evenodd" clip-rule="evenodd" d="M61 31.4999C61 34.4232 58.6683 37.8056 53.2407 40.6348C49.804 42.4263 45.426 43.8111 40.4579 44.56C41.0668 44.3894 41.5507 44.2243 41.8723 44.0956C45.5757 39.27 53.1415 28.34 54.0981 22.831C58.9148 25.5605 61 28.7355 61 31.4999ZM50.5365 21.1193C46.0124 19.2796 40.3254 18.0698 34.0325 17.8539C24.2453 19.2569 24.5933 28.6175 26.5532 29.4574C29.9574 31.8404 44.1418 24.6914 49.0213 20.9467C49.2405 20.8919 49.7405 20.9059 50.5365 21.1193ZM22.0961 18.6787C18.7557 22.8234 12.3688 32.1659 10.3545 40.4197C5.21558 37.6352 3 34.3495 3 31.4999C3 28.5766 5.33173 25.1943 10.7593 22.3651C13.8586 20.7495 17.7234 19.4646 22.0961 18.6787ZM14.886 42.4244C15.0522 42.4198 15.198 42.4087 15.3192 42.3935C19.2908 39.5566 29.2085 33.8829 37.1064 33.8829C39.1208 33.8829 40.1419 37.5253 34.2914 45.1366C33.5361 45.1658 32.772 45.1808 32 45.1808C25.5558 45.1808 19.663 44.1391 14.886 42.4244ZM64 31.4999C64 40.7125 49.6731 48.1808 32 48.1808C14.3269 48.1808 0 40.7125 0 31.4999C0 22.2874 14.3269 14.8191 32 14.8191C49.6731 14.8191 64 22.2874 64 31.4999Z" fill="#B2B2B2"/>
<path fill-rule="evenodd" clip-rule="evenodd" d="M102.624 57.1487C100.509 57.7042 98.289 58 96 58C93.5279 58 91.1363 57.655 88.8709 57.0105L90.3453 53.7971L95.8353 41.8316L101.117 53.7497L102.624 57.1487ZM107.698 55.2262C116.182 50.9449 122 42.1519 122 32C122 30.4388 121.862 28.9098 121.599 27.4243L108.352 53.9179L107.698 55.2262ZM117.603 17.5274C115.677 14.6577 113.193 12.1929 110.308 10.2878L100.286 32.1305L104.992 42.7487L117.603 17.5274ZM103.032 6.96221L95.9618 22.3724L89.1143 6.92157C91.3074 6.3208 93.6162 6 96 6C98.437 6 100.796 6.33527 103.032 6.96221ZM81.8187 10.2044C79.0201 12.029 76.5946 14.3781 74.6817 17.1122L86.6672 42.6298L91.5107 32.0735L81.8187 10.2044ZM70.4824 26.9894C70.1659 28.6107 70 30.286 70 32C70 41.8542 75.4821 50.428 83.5628 54.8379L83.0892 53.8296L70.4824 26.9894ZM128 32C128 49.6731 113.673 64 96 64C78.3269 64 64 49.6731 64 32C64 14.3269 78.3269 0 96 0C113.673 0 128 14.3269 128 32Z" fill="#B2B2B2"/>
<g clip-path="url(#clip0_0_1)">
<path fill-rule="evenodd" clip-rule="evenodd" d="M160 12C142.327 12 128 20.9537 128 32C128 43.0463 142.327 52 160 52C177.673 52 192 43.0463 192 32C192 20.9537 177.673 12 160 12ZM136.289 24.0839C137.169 27.6973 143.575 30.6969 152.245 31.8389C152.243 32.0087 152.242 32.1785 152.242 32.3497C152.242 40.9189 154.755 48.108 158.145 50.0627C144.083 49.4024 132.99 41.7939 132.99 32.5036C132.99 29.4532 134.185 26.5842 136.289 24.0839ZM155.426 32.164C156.907 32.2743 158.435 32.3323 160 32.3323C161.565 32.3323 163.093 32.2743 164.574 32.164C164.364 38.5201 162.397 43.502 160 43.502C157.603 43.502 155.636 38.5201 155.426 32.164ZM167.755 31.8375C176.621 30.6707 183.119 27.5594 183.761 23.8372C185.996 26.3956 187.272 29.3531 187.272 32.5036C187.272 41.8563 176.03 49.5054 161.833 50.0743C165.233 48.1384 167.758 40.9363 167.758 32.3483C167.758 32.177 167.758 32.0073 167.755 31.8375ZM162.772 15.3101C171.636 15.7527 178.429 18.2836 178.429 21.3397C178.429 23.8357 173.898 25.9806 167.409 26.9238C166.702 21.5835 164.98 17.2968 162.772 15.3101ZM164.378 27.2634C162.974 27.3766 161.508 27.4361 159.999 27.4361C158.49 27.4361 157.023 27.3766 155.619 27.2634C156.208 22.2235 157.947 18.5723 159.999 18.5723C162.05 18.5723 163.787 22.2249 164.378 27.2634ZM152.59 26.9238C146.101 25.9806 141.569 23.8343 141.569 21.3397C141.569 20.3079 142.343 19.3371 143.709 18.4853C145.311 17.6944 147.052 17.0167 148.906 16.4696C151.294 15.8732 154.134 15.4639 157.226 15.3101C155.019 17.2968 153.297 21.5835 152.59 26.9238Z" fill="#B2B2B2"/>
</g>
<path d="M256.49 32C256.49 49.6746 242.165 64 224.49 64C206.815 64 192.49 49.6746 192.49 32C192.49 14.3254 206.815 0 224.49 0C242.165 0 256.49 14.3254 256.49 32Z" fill="#B2B2B2"/>
<path d="M255.687 32C255.687 49.2356 241.726 63.1972 224.49 63.1972C207.254 63.1972 193.293 49.2356 193.293 32C193.293 14.7644 207.267 0.802856 224.49 0.802856C241.713 0.802856 255.687 14.7644 255.687 32Z" fill="white"/>
<path d="M253.492 32C253.492 48.0188 240.509 61.002 224.49 61.002C208.471 61.002 195.488 48.0188 195.488 32C195.488 15.9812 208.471 2.99805 224.49 2.99805C240.509 2.99805 253.492 15.9812 253.492 32Z" fill="#B2B2B2"/>
<path d="M250.92 32C250.92 46.6013 239.091 58.4304 224.49 58.4304C209.889 58.4304 198.06 46.6013 198.06 32C198.06 17.3987 209.889 5.56958 224.49 5.56958C239.091 5.56958 250.92 17.4112 250.92 32Z" fill="white"/>
<path d="M244.586 44.657C242.616 42.8005 240.12 41.5586 237.41 41.1321C237.022 41.0694 236.67 41.3705 236.67 41.7593V42.7503C236.67 43.0388 236.445 43.3775 236.156 43.3775C235.943 43.3775 235.73 43.3775 235.516 43.3775C234.764 43.3775 234.626 42.4367 234.776 41.8848C236.394 36.1019 236.783 32.6021 236.758 30.0431C236.733 27.3336 236.67 24.6241 235.454 21.049C234.274 17.6119 233.196 14.2376 227.513 9.08194C227.124 8.73071 226.735 8.56764 226.221 8.53C225.657 8.49237 225.205 8.46729 224.641 8.46729C222.282 8.46729 219.999 8.81852 217.842 9.45827C217.039 9.69661 217.152 10.2611 217.603 10.65C219.748 12.4939 222.671 15.2536 224.678 18.7033C223.411 18.8287 222.433 18.1137 221.617 17.336C218.933 14.777 216.136 12.9581 213.915 11.7037C213.526 11.4904 213.15 11.3901 212.761 11.6159C210.315 13.0459 208.659 14.3756 206.715 16.6335C206.389 17.0224 206.602 17.3109 206.928 17.4865C209.048 18.6155 212.385 20.748 215.433 23.5327C214.806 24.0596 213.828 23.884 212.397 23.1313C209.65 21.6888 207.016 20.8609 204.996 20.334C204.57 20.2211 204.106 20.334 203.88 20.7354C202.588 22.9808 201.697 25.6527 201.283 28.3748C201.208 28.9016 201.559 29.3532 202.074 29.4536C206.765 30.2815 215.145 32.4767 216.524 42.1231C216.65 42.9636 215.872 43.7037 214.869 43.2395C213.451 42.5747 212.046 41.9224 210.641 41.2576C210.491 41.1948 210.328 41.1321 210.165 41.1321H203.516C202.575 41.1321 202.187 42.0353 202.801 42.7378C204.394 44.5817 205.862 46.5637 207.116 48.6711C207.229 48.8593 207.355 48.9346 207.568 48.9346H210.466C210.666 48.9346 210.829 48.8844 211.005 48.784C211.921 48.2446 212.837 47.7178 213.74 47.1784C213.915 47.078 214.078 47.078 214.279 47.078H236.169C236.457 47.078 236.695 47.2662 236.695 47.5547V48.6335C236.695 49.0224 237.047 49.3234 237.436 49.2607C240.145 48.8342 242.641 47.5923 244.611 45.7358C244.924 45.4473 244.924 44.9455 244.611 44.657H244.586Z" fill="#B2B2B2"/>
<path d="M242.616 45.1838C241.136 43.9796 239.581 43.1893 237.674 42.8004C237.498 42.7628 237.423 42.8255 237.423 43.0137V43.114C237.423 43.5782 236.959 44.1176 236.495 44.1176H235.265C234.224 44.1176 233.296 43.2646 233.685 41.8847C238.138 26.0039 233.158 16.1944 226.886 10.7001C225.18 9.20732 225.029 9.13205 223.323 9.19477C221.981 9.24495 220.413 9.40802 219.083 9.73417C218.82 9.79689 218.607 10.0101 218.946 10.2987C222.169 13.0082 226.472 17.6997 228.529 24.9753C228.604 25.2261 228.454 25.2136 228.253 25.2261C226.409 25.339 225.782 24.2101 225.205 23.4951C221.028 18.2892 216.336 15.1156 212.824 13.0458C212.473 12.8326 212.423 12.8451 212.147 12.9956C210.742 13.811 209.149 15.1156 208.032 16.2947C207.794 16.5456 207.857 16.6585 208.12 16.7965C211.294 18.5025 216.123 21.8518 220.614 27.5343C220.89 27.8855 220.915 28.0486 220.752 28.1364C219.886 28.6507 218.444 28.6381 216.863 27.6597C212.586 24.9878 208.245 23.1062 204.846 22.1277C204.482 22.0274 204.419 22.0399 204.269 22.3535C203.441 24.0972 202.538 26.3676 202.212 28.3245C202.174 28.5754 202.149 28.6005 202.387 28.6507C211.745 30.5448 216.876 35.6879 217.465 42.5495C217.566 43.7412 216.223 44.8827 214.881 44.4688C213.426 44.0047 212.009 43.4903 210.554 43.0262C210.403 42.976 210.24 42.951 210.077 42.951C208.07 42.951 206.05 42.951 204.043 42.951C203.78 42.951 203.617 43.114 203.88 43.4527C205.398 45.372 206.276 46.4633 207.355 48.2571C207.468 48.4453 207.593 48.5205 207.806 48.5205C208.546 48.5205 209.287 48.5205 210.027 48.5205C210.315 48.5205 210.579 48.4578 210.829 48.3073C211.632 47.8306 212.435 47.3916 213.238 46.9274C213.489 46.7769 213.715 46.6891 214.016 46.6891C221.316 46.6891 229.156 46.6891 236.457 46.6891C236.921 46.6891 237.41 47.2285 237.41 47.7052V47.8682C237.41 48.0439 237.498 48.1066 237.661 48.0815C239.555 47.6926 241.123 46.7769 242.604 45.5727C242.742 45.4598 242.742 45.3594 242.604 45.2465L242.616 45.1838ZM228.278 41.4958C226.121 41.4958 224.377 39.7522 224.377 37.5946C224.377 35.437 226.121 33.6934 228.278 33.6934C230.436 33.6934 232.18 35.437 232.18 37.5946C232.18 39.7522 230.436 41.4958 228.278 41.4958Z" fill="#B2B2B2"/>
<path d="M232.393 37.7954C232.393 40.2289 230.423 42.1984 227.99 42.1984C225.556 42.1984 223.587 40.2289 223.587 37.7954C223.587 35.3618 225.556 33.3924 227.99 33.3924C230.423 33.3924 232.393 35.3618 232.393 37.7954Z" fill="#B2B2B2"/>
<path d="M231.715 37.6825C231.715 39.3132 230.398 40.6304 228.768 40.6304C227.137 40.6304 225.82 39.3132 225.82 37.6825C225.82 36.0517 227.137 34.7346 228.768 34.7346C230.398 34.7346 231.715 36.0517 231.715 37.6825Z" fill="white"/>
<path fill-rule="evenodd" clip-rule="evenodd" d="M318.898 27.2376C318.862 25.2335 317.334 25.1935 317.334 25.1935C316.435 25.0535 315.524 24.9215 314.6 24.8015C311.322 13.3846 300.44 5 287.512 5C274.585 5 263.873 13.2566 260.503 24.5334C259.755 24.6815 259.071 24.8215 258.367 24.9695C256.381 25.3335 256.246 26.7376 256.246 26.8296C255.796 28.6458 256.067 34.6782 256.246 36.7183C256.381 38.8945 258.14 38.7145 258.231 38.7585C258.888 38.9025 259.624 39.0305 260.412 39.1545C263.678 50.5914 274.569 59 287.516 59C300.463 59 311.274 50.6514 314.585 39.2785C316.276 39.0625 317.219 38.9105 317.219 38.9105C318.818 38.7705 318.85 36.8544 318.85 36.8344C319.144 34.0342 318.918 27.2416 318.902 27.2416L318.898 27.2376ZM287.512 11.5885C296.29 11.5885 303.822 16.6969 307.06 23.9894C291.626 22.6813 275.321 23.2494 268.135 23.6134C271.465 16.5249 278.886 11.5885 287.508 11.5885H287.512ZM301.669 34.9262H299.512L298.864 33.7261H295.414L294.877 34.9262H292.72L295.736 28.1577H298.43L301.665 34.9262H301.669ZM287.011 32.414C287.011 32.414 285.718 32.306 285.503 30.6659V30.3379C285.503 30.3379 285.395 28.5897 287.226 28.1537H292.076V29.9018H287.659V30.8859H291.324C291.324 30.8859 292.617 31.322 292.617 32.634V32.9621C292.617 32.9621 292.724 34.3822 291.431 34.9262H285.61V33.2901H290.675V32.418H287.011V32.414ZM279.252 32.414C279.252 32.414 277.959 32.306 277.744 30.6659V30.3379C277.744 30.3379 277.636 28.5897 279.467 28.1537H284.317V29.9018H279.9V30.8859H283.565C283.565 30.8859 284.858 31.322 284.858 32.634V32.9621C284.858 32.9621 284.966 34.3822 283.672 34.9262H277.851V33.2901H282.916V32.418H279.252V32.414ZM276.451 28.1577V34.9262H274.079V28.1577H276.451ZM266.969 30.4499V34.9262H264.92V28.1577H268.37L270.848 32.9621V28.1577H272.571V34.9262H269.448L266.969 30.4499ZM287.512 52.4155C278.719 52.4155 271.171 47.2831 267.94 39.9706C277.155 40.6666 287.783 40.7146 287.783 40.7146C295.259 40.8347 301.94 40.4866 307.041 40.0626C303.786 47.3271 296.27 52.4155 287.512 52.4155ZM310.076 34.9262H306.842L304.255 30.3419V34.9262H302.206V28.1577H305.763L308.027 32.8541V28.1577H310.076V34.9262Z" fill="#B2B2B2"/>
<path fill-rule="evenodd" clip-rule="evenodd" d="M296.998 30L296 32H298L296.998 30Z" fill="#B2B2B2"/>
<path fill-rule="evenodd" clip-rule="evenodd" d="M320 32C320 24.8197 334.33 19 352 19C369.67 19 384 24.8197 384 32C384 39.1803 369.674 45 352 45C334.326 45 320 39.1803 320 32ZM359.133 33.1369C359.124 33.0903 359.087 33.0577 359.046 33.053C358.165 32.9226 357.239 32.8108 356.271 32.7315C356.216 32.7222 356.179 32.671 356.216 32.5498C359.174 29.3907 360.298 25.3649 358.803 22.2197C358.807 22.1591 358.862 22.1172 358.922 22.1219C369.101 23.3753 376.528 27.3219 376.528 32C376.528 37.6846 365.546 42.2928 351.995 42.2928C338.445 42.2928 327.463 37.6846 327.463 32C327.463 27.0703 335.72 22.9513 346.743 21.9448C346.798 21.9448 346.839 21.9867 346.844 22.0753L344.45 35.462C344.431 35.5599 344.422 35.667 344.422 35.7695C344.422 36.6688 345.138 37.3957 346.023 37.3957H346.11C348.248 37.2885 350.541 36.6129 352.706 35.3409C353.33 34.9728 353.922 34.572 354.477 34.1434C354.514 34.1154 354.56 34.1108 354.596 34.1341C355.317 34.6233 355.734 35.1918 355.734 35.8068C355.734 36.6362 354.968 37.3957 353.706 37.9688C352.243 38.6351 350.11 39.0545 347.734 39.0545C345.72 39.0545 343.885 38.7516 342.459 38.2484C342.399 38.2391 342.344 38.2763 342.335 38.3369L342.133 39.4738C342.124 39.5297 342.161 39.581 342.216 39.595C345.119 40.2799 348.454 40.6713 352.005 40.6713C356.422 40.6713 360.005 39.2176 360.005 37.419C360.005 36.7201 359.463 36.0771 358.541 35.5459C357.734 35.1452 357.225 34.6233 357.353 34.2738C357.482 33.9104 358.257 33.8545 359.17 34.1014C359.22 34.1108 359.271 34.0781 359.289 33.9803L359.138 33.1369H359.133ZM351.995 24.9409C351.995 25.0108 351.995 25.0806 351.991 25.1505C352.106 27.5362 350.656 30.728 348 33.4258C347.459 33.9756 346.894 34.4789 346.321 34.9215C346.298 34.9355 346.271 34.9401 346.243 34.9355C346.188 34.9215 346.151 34.8703 346.161 34.805L348.761 20.2627C348.761 20.2068 348.716 20.1649 348.661 20.1602C334.33 20.8452 323.202 25.8867 323.202 32C323.202 38.5839 336.096 43.919 352 43.919C367.904 43.919 380.798 38.5839 380.798 32C380.798 25.4161 367.904 20.0857 352 20.0857C351.495 20.0857 350.995 20.0903 350.491 20.1043C350.44 20.1043 350.399 20.1369 350.385 20.1882L350.083 21.8842C350.073 21.9308 350.096 21.9728 350.133 21.9961C351.234 22.5086 351.995 23.6409 351.995 24.9502V24.9409Z" fill="#B2B2B2"/>
<path d="M385.199 27.244C383.971 27.8886 383.92 29.3924 384.048 30.0638V38.3887C384.048 39.1407 384.815 39.5077 385.199 39.5972H391.977L399.778 34.6291L404.383 39.5972H411.8L404.383 31.9436L414.486 25.3642V38.1202C414.486 39.1944 415.168 39.5524 415.509 39.5972H425.868L441.215 28.8553V40C442.75 38.9706 446.049 36.7506 446.97 36.1061C447.891 35.4616 448.036 34.6738 447.993 34.3605V25.6328C447.993 24.4512 447.141 24.0663 446.715 24.0215H441.855L421.264 38.6573V25.3642C421.264 24.0752 420.412 23.932 419.985 24.0215H410.01L390.826 36.1061V24.0215C389.462 24.8271 386.427 26.5995 385.199 27.244Z" fill="#B2B2B2"/>
<path fill-rule="evenodd" clip-rule="evenodd" d="M477.277 35.1028H481.32L490.817 27.0266H485.885L480.982 31.0621L480.836 27.0095L477.129 27L477.277 35.1028ZM454.995 35.1028H458.938L463.412 27.0266H459.468L458.001 29.5852C457.83 29.5835 457.364 29.5826 456.793 29.5904C456.42 29.5955 455.554 29.6187 454.88 29.7244L456.423 27.0266H452.474L448 35.1028H451.946L452.938 33.2427C453.341 32.5029 454.215 31.7048 455.107 31.6137C455.436 31.5802 455.809 31.563 456.213 31.563C456.499 31.563 456.742 31.5716 456.898 31.5793L454.995 35.1028ZM468.616 35.1011H471.765H471.766L475.557 27.0283H472.461C470.662 27.0283 468.754 27.7672 468.031 28.2664C467.354 28.7329 466.558 29.3446 466.351 29.5388L460.195 35.1011H463.981L464.994 34.1122C465.355 33.7788 466.346 33.3097 467.418 33.3097H467.467C468.291 33.3209 469.061 33.363 469.391 33.3836L468.616 35.1011ZM470.254 31.4212H467.875L468.725 30.6076L468.729 30.6047C468.803 30.5397 470.043 29.453 470.595 29.1264C470.952 28.9159 471.333 28.8824 471.56 28.8884L470.254 31.4212ZM492.988 35.1011H496.137H496.137L499.928 27.0283H496.832C495.033 27.0283 493.125 27.7672 492.402 28.2664C491.726 28.7329 490.929 29.3446 490.722 29.5388L484.567 35.1011H488.352L489.365 34.1122C489.726 33.7788 490.717 33.3097 491.789 33.3097H491.838C492.662 33.3209 493.432 33.363 493.762 33.3836L492.988 35.1011ZM494.625 31.4212H492.246L493.097 30.6076L493.1 30.6045C493.176 30.5383 494.413 29.4528 494.967 29.1264C495.323 28.9159 495.703 28.8833 495.932 28.8884L494.625 31.4212ZM502.343 35.1028H509.922L512 32.869H503.977C503.958 32.8326 503.931 32.8059 503.903 32.779C503.865 32.7423 503.826 32.7051 503.81 32.6421C503.787 32.5614 503.806 32.4634 503.867 32.3638C503.883 32.3354 505.452 29.5277 505.796 28.9391C506.437 27.8477 507.543 27.2805 507.595 27.2535L507.597 27.2526L508.055 27.0266H502.942L502.908 27.0885C502.882 27.1349 500.288 31.7443 499.908 32.4127C499.397 33.3131 499.551 34.2505 500.29 34.7437C500.807 35.089 502.279 35.1028 502.343 35.1028Z" fill="#B2B2B2"/>
<path fill-rule="evenodd" clip-rule="evenodd" d="M529.757 14.1248C533.243 14.066 536.733 14.147 540.216 14.0013C544.916 13.9907 549.614 14.0467 554.313 14.0775C555.635 14.1267 556.96 14.0727 558.278 14.1904C558.276 15.1879 558.273 16.1874 558.212 17.1829C558.146 17.9836 558.191 18.7921 558.118 19.5928C558.041 20.2903 558.114 21.0003 558.007 21.6949C557.997 21.8714 557.989 22.0489 557.979 22.2255C555.048 22.4406 552.111 22.5998 549.174 22.7339C543.422 22.9973 537.665 22.7185 531.923 22.3567C531.309 22.3162 530.685 22.3065 530.087 22.1483C530.065 22.0094 530.039 21.8714 530.01 21.7335C529.967 21.09 530.019 20.4369 529.914 19.8002C529.874 18.9648 529.928 18.1197 529.82 17.2919C529.804 16.2356 529.77 15.1802 529.757 14.1248ZM523.74 14.2435C525.411 14.2049 527.084 14.2184 528.755 14.1615C528.769 14.529 528.755 14.8966 528.773 15.2641C528.903 15.8304 528.766 16.4276 528.899 16.9919C528.864 17.1231 528.851 17.2572 528.861 17.3932C528.982 18.0878 528.92 18.8056 528.962 19.5098C529.049 19.8832 529.01 20.2719 529.032 20.653C529.032 21.1112 529.089 21.5685 529.046 22.0268C529.066 22.0557 529.106 22.1145 529.126 22.1435C528.848 22.1956 528.566 22.1473 528.289 22.1252C526.328 21.9785 524.37 21.8126 522.407 21.6949C519.578 21.4904 516.751 21.2579 513.926 21.0061C513.316 20.9646 512.695 20.9559 512.103 20.7775C512.064 19.6121 512.039 18.4448 512.063 17.2784C512.07 17.0585 512.082 16.8366 512.141 16.6244C512.207 16.335 512.333 16.0677 512.499 15.8237C512.862 15.4127 513.276 15.0065 513.813 14.8493C514.44 14.6728 515.09 14.5994 515.738 14.556C518.403 14.4133 521.072 14.2782 523.74 14.2435ZM559.243 14.1586C562.584 14.2222 565.926 14.257 569.266 14.3901C570.519 14.4422 571.773 14.5039 573.021 14.6438C573.695 14.7422 574.433 14.7924 574.981 15.2506C575.259 15.4204 575.444 15.6915 575.636 15.9491C575.706 16.1082 575.774 16.2684 575.842 16.4295C575.878 16.5867 575.901 16.7469 575.924 16.908C575.984 17.1897 575.991 17.4801 575.996 17.7676C576.001 18.7815 576.011 19.7963 575.961 20.8103C575.761 20.8701 575.552 20.8932 575.345 20.9058C570.245 21.3341 565.142 21.7615 560.033 22.0856C559.667 22.102 559.288 22.1994 558.933 22.0673C559.037 21.0842 559.033 20.0944 559.058 19.1056C559.165 18.2441 559.113 17.3672 559.155 16.499C559.257 15.7272 559.209 14.9381 559.243 14.1586ZM512.145 21.8685C512.295 22.0489 512.267 22.2901 512.296 22.5091C512.357 22.6615 512.372 22.8275 512.394 22.9895C512.451 23.1449 512.467 23.3108 512.487 23.4748C512.602 23.7931 512.675 24.1231 512.766 24.4482C512.817 24.5398 512.867 24.6305 512.918 24.7212C512.923 24.7704 512.936 24.8688 512.941 24.917C513.077 25.1457 513.179 25.3917 513.307 25.6232C513.81 26.4548 514.562 27.0886 515.35 27.6298C515.826 27.8893 516.305 28.1459 516.803 28.361C518.745 29.1907 520.812 29.6624 522.863 30.1207C524.706 30.5239 526.555 30.8982 528.409 31.2426C528.871 31.3304 529.334 31.4201 529.804 31.4481C529.78 31.0719 529.816 30.687 529.725 30.3184C529.698 29.8708 529.71 29.4193 529.623 28.9775C529.597 28.6524 529.619 28.3205 529.535 28.0022C529.498 27.6163 529.53 27.2227 529.438 26.8445C529.394 26.0699 529.341 25.2933 529.247 24.5244C529.221 24.1713 529.242 23.8115 529.155 23.4661C529.145 23.359 529.136 23.2519 529.127 23.1449C527.083 22.9953 525.036 22.8545 522.991 22.7107C519.463 22.4117 515.929 22.1859 512.406 21.8319C512.319 21.8377 512.231 21.8492 512.145 21.8685ZM566.132 22.6268C563.74 22.8178 561.343 22.9432 558.953 23.1622C558.931 23.3513 558.912 23.5423 558.865 23.7266C558.84 24.0498 558.853 24.3787 558.771 24.6942C558.737 25.0463 558.757 25.4061 558.678 25.7534C558.639 26.1075 558.664 26.4692 558.581 26.8175C558.546 27.1706 558.568 27.5314 558.486 27.8787C558.438 28.6215 558.39 29.3663 558.296 30.1033C558.273 30.5683 558.239 31.0323 558.248 31.4983C561.5 30.9069 564.747 30.2673 567.953 29.4541C569.327 29.0952 570.689 28.6698 571.973 28.0523C573.126 27.4311 574.225 26.5831 574.856 25.3984C575.213 24.8119 575.389 24.1327 575.544 23.4671C575.584 23.3031 575.619 23.1381 575.662 22.9751C575.682 22.8111 575.702 22.6461 575.729 22.4831C575.792 22.2689 575.788 22.0432 575.794 21.8213C572.575 22.1097 569.354 22.376 566.132 22.6268ZM554.315 23.4237C555.538 23.3648 556.757 23.2404 557.98 23.2095C557.959 23.3175 557.938 23.4256 557.914 23.5336C557.858 24.2437 557.814 24.9566 557.724 25.6608C557.683 26.0457 557.716 26.4374 557.63 26.8165C557.587 27.2015 557.623 27.596 557.534 27.9752C557.498 28.362 557.526 28.7566 557.438 29.1367C557.409 29.8467 557.347 30.5558 557.256 31.26C557.233 31.3931 557.214 31.5282 557.195 31.6633C554.944 32.1157 552.669 32.4263 550.399 32.7572C548.945 32.9511 547.49 33.1817 546.023 33.2377C543.579 33.3409 541.126 33.2463 538.704 32.8933C536.084 32.5296 533.465 32.1504 530.86 31.6922C530.837 31.615 530.793 31.4587 530.77 31.3816C530.744 31.0574 530.762 30.7265 530.675 30.4101C530.64 29.6682 530.58 28.9254 530.486 28.1922C530.45 27.8083 530.489 27.4156 530.391 27.0394C530.354 26.6525 530.395 26.257 530.296 25.8779C530.255 25.4611 530.298 25.0347 530.2 24.6257C530.175 24.1482 530.165 23.6716 530.145 23.1941C532.802 23.3667 535.46 23.5462 538.121 23.6639C541.641 23.7574 545.164 23.7883 548.684 23.7005C550.565 23.6928 552.438 23.5134 554.315 23.4237ZM512.101 40.611C512.197 40.0533 512.701 39.7832 513.158 39.5681C513.35 39.5228 513.549 39.5498 513.744 39.543C517.076 39.5459 520.408 39.543 523.739 39.543C523.882 39.543 524.022 39.5758 524.163 39.5999C524.165 40.1103 524.101 40.6158 524.081 41.1251C520.655 41.1174 517.231 41.1319 513.805 41.1637C513.783 41.2139 513.74 41.3123 513.717 41.3615C513.697 43.3613 513.686 45.3612 513.69 47.361C516.616 47.3572 519.542 47.361 522.468 47.3591C522.472 46.6008 522.468 45.8435 522.47 45.0853C520.378 45.0071 518.283 45.0602 516.191 45.011C516.217 44.518 516.145 44.0135 516.226 43.5273C516.887 43.4626 517.556 43.5176 518.218 43.5003C519.331 43.4626 520.444 43.4858 521.557 43.48C522.425 43.4896 523.291 43.4404 524.158 43.4655C524.147 45.3004 524.153 47.1353 524.155 48.9711C521.35 48.9895 518.544 48.974 515.739 48.9789C514.851 48.9682 513.961 49.0001 513.074 48.9625C512.806 48.755 512.486 48.62 512.263 48.3566C512.221 48.2158 512.175 48.0769 512.129 47.9379C512.012 47.3388 512.098 46.7234 512.002 46.1223C512.005 44.7698 511.991 43.4173 512.01 42.0657C512.11 41.5892 512.04 41.0933 512.101 40.61V40.611ZM526.924 39.5459C530.863 39.542 534.8 39.5478 538.738 39.543C538.72 39.8691 538.76 40.2048 538.675 40.5232C538.667 40.7238 538.667 40.9245 538.668 41.1251C536.866 41.1251 535.064 41.1251 533.262 41.1251C531.715 41.1772 530.165 41.1184 528.616 41.1589C528.644 41.4638 528.624 41.7696 528.579 42.0715C528.566 42.5346 528.572 42.9976 528.564 43.4617C531.831 43.479 535.099 43.4954 538.366 43.5012C538.382 44.0087 538.372 44.5171 538.375 45.0255C535.687 45.0187 533 45.0602 530.311 45.0448C529.729 45.0872 529.146 45.0882 528.564 45.0834C528.564 45.8426 528.564 46.6018 528.564 47.361C529.083 47.3524 529.602 47.362 530.12 47.4006C532.983 47.3919 535.847 47.4112 538.711 47.4305C538.702 47.7923 538.735 48.1579 538.669 48.5168C538.656 48.6701 538.673 48.8255 538.743 48.9644C536.44 49.003 534.136 48.9702 531.832 48.9808C530.978 48.9818 530.124 48.9856 529.269 48.9625C528.657 48.948 527.967 49.0367 527.449 48.6296C527.262 48.5293 527.148 48.3499 527.05 48.1675C527.003 47.7768 526.918 47.39 526.93 46.9944C526.902 44.5122 526.911 42.0291 526.924 39.5469V39.5459ZM541.249 47.4864C541.214 44.8402 541.19 42.1921 541.211 39.5459C545.15 39.543 549.087 39.5459 553.025 39.544C553.007 39.9019 553.047 40.2685 552.962 40.6196C552.955 40.7875 552.953 40.9563 552.952 41.1261C549.607 41.1087 546.264 41.1502 542.92 41.1473C542.903 41.7078 542.93 42.2712 542.862 42.8288C542.853 43.0391 542.85 43.2504 542.85 43.4617C546.147 43.4655 549.444 43.452 552.741 43.4684C552.717 43.8659 552.729 44.2662 552.673 44.6618C552.666 44.7833 552.661 44.9049 552.656 45.0274C550.129 45.012 547.605 45.0602 545.078 45.0448C544.334 45.0206 543.594 45.1094 542.851 45.0834C542.851 45.8416 542.853 46.5999 542.849 47.3572C545.75 47.3639 548.651 47.3581 551.552 47.3601C552.045 47.3813 552.547 47.3099 553.035 47.4093C553.018 47.9321 553.026 48.4569 553.028 48.9817C549.71 48.9692 546.393 49.0001 543.076 48.9605C542.746 48.9547 542.411 48.9403 542.095 48.8303C541.856 48.7068 541.646 48.5293 541.459 48.3344C541.243 48.1087 541.336 47.7643 541.249 47.4864ZM565.028 41.7117C564.376 40.9582 563.599 40.3206 562.973 39.5478C563.704 39.5816 564.453 39.461 565.171 39.6163C565.875 40.3968 566.647 41.1136 567.369 41.8767C568.008 42.5905 568.721 43.2321 569.363 43.9421C569.398 43.9498 569.467 43.9672 569.501 43.9759C570.949 42.4873 572.412 41.0123 573.877 39.5392C574.569 39.5536 575.262 39.5353 575.955 39.5507C575.903 39.6395 575.845 39.7225 575.781 39.8016C573.946 41.6741 572.085 43.5225 570.266 45.4114C570.261 46.5941 570.266 47.7759 570.265 48.9586C569.72 48.9846 569.175 49.0097 568.63 48.9962C568.591 48.5283 568.641 48.0576 568.581 47.5916C568.535 46.8266 568.598 46.0587 568.55 45.2946C567.385 44.0926 566.193 42.9137 565.028 41.7117ZM555.588 39.5478C555.583 42.2211 555.558 44.8952 555.61 47.5675C555.581 48.0904 555.933 48.5351 556.36 48.784C556.794 48.9769 557.278 48.9509 557.74 48.9625C560.494 48.9982 563.249 48.9702 566.003 48.9817C565.997 48.4396 566.012 47.8984 565.991 47.3572C563.073 47.3552 560.155 47.3774 557.238 47.3456C557.239 44.7457 557.247 42.1448 557.233 39.544C556.685 39.5459 556.137 39.544 555.588 39.5478Z" fill="#B2B2B2"/>
<g clip-path="url(#clip1_0_1)">
<path fill-rule="evenodd" clip-rule="evenodd" d="M587.18 22C581.049 22 575.898 27.0612 576.002 33.181C576.103 39.1868 581.081 44 587.181 44C589.8 44 592.212 43.1126 594.12 41.624C596.029 43.1124 598.441 44 601.06 44C603.68 44 606.092 43.1126 608 41.624C609.908 43.1124 612.321 44 614.94 44C617.56 44 619.972 43.1126 621.88 41.624C623.788 43.1124 626.201 44 628.82 44C634.919 44 639.897 39.1876 639.998 33.181C640.102 27.0608 634.951 22 628.82 22C626.222 22 623.801 22.9084 621.88 24.4208C619.959 22.9084 617.537 22 614.94 22C612.342 22 609.921 22.9084 608 24.4208C606.079 22.9084 603.658 22 601.06 22C598.462 22 596.041 22.9084 594.12 24.421C592.199 22.9084 589.777 22 587.18 22ZM601.06 41.5036C599.141 41.5036 597.367 40.8882 595.931 39.8464C597.414 38.0134 598.316 35.7024 598.359 33.181C598.403 30.5532 597.479 28.1208 595.925 26.2004C597.372 25.133 599.156 24.4964 601.06 24.4964C602.964 24.4964 604.748 25.133 606.195 26.2002C604.641 28.1208 603.716 30.5536 603.761 33.1812C603.804 35.7024 604.706 38.0136 606.189 39.8466C604.754 40.8884 602.98 41.5036 601.06 41.5036ZM595.827 33.1394C595.859 31.2204 595.215 29.4298 594.12 27.9816C593.025 29.4298 592.381 31.2204 592.413 33.1394C592.445 34.9886 593.075 36.6928 594.12 38.0736C595.166 36.6928 595.796 34.9888 595.827 33.1394ZM589.881 33.181C589.837 30.5532 590.761 28.1208 592.316 26.2004C590.868 25.133 589.084 24.4964 587.18 24.4964C582.446 24.4964 578.454 28.4324 578.533 33.1394C578.612 37.7782 582.458 41.5036 587.181 41.5036C589.1 41.5036 590.874 40.8884 592.31 39.8464C590.826 38.0134 589.924 35.7024 589.881 33.181ZM612.239 33.181C612.283 30.5532 611.359 28.1208 609.804 26.2002C611.252 25.133 613.036 24.4964 614.94 24.4964C616.844 24.4964 618.628 25.133 620.076 26.2004C618.521 28.1208 617.597 30.5532 617.641 33.181C617.684 35.7024 618.586 38.0134 620.069 39.8464C618.634 40.8884 616.859 41.5036 614.94 41.5036C613.021 41.5036 611.247 40.8882 609.811 39.8464C611.294 38.0134 612.196 35.7024 612.239 33.181ZM620.173 33.1394C620.141 31.2204 620.785 29.4296 621.88 27.9814C622.975 29.4296 623.619 31.2204 623.587 33.1394C623.555 34.9888 622.925 36.6928 621.88 38.0736C620.834 36.6928 620.204 34.9886 620.173 33.1394ZM628.82 41.5036C626.901 41.5036 625.126 40.8882 623.691 39.8464C625.174 38.0136 626.076 35.7026 626.119 33.1812C626.163 30.553 625.239 28.1206 623.685 26.2002C625.132 25.133 626.916 24.4964 628.82 24.4964C633.554 24.4964 637.546 28.432 637.467 33.1394C637.388 37.779 633.542 41.5036 628.82 41.5036ZM609.707 33.198C609.739 31.279 609.095 29.4884 608 28.0402C606.905 29.4884 606.261 31.279 606.293 33.198C606.324 35.0472 606.954 36.7514 608 38.1322C609.045 36.7514 609.675 35.0474 609.707 33.198Z" fill="#B2B2B2"/>
</g>
<path fill-rule="evenodd" clip-rule="evenodd" d="M61 95.4999C61 98.4232 58.6683 101.806 53.2407 104.635C49.804 106.426 45.426 107.811 40.4579 108.56C41.0668 108.389 41.5507 108.224 41.8723 108.096C45.5757 103.27 53.1415 92.34 54.0981 86.831C58.9148 89.5605 61 92.7355 61 95.4999ZM50.5365 85.1193C46.0124 83.2796 40.3254 82.0698 34.0325 81.8539C24.2453 83.2569 24.5933 92.6175 26.5532 93.4574C29.9574 95.8404 44.1418 88.6914 49.0213 84.9467C49.2405 84.8919 49.7405 84.9059 50.5365 85.1193ZM22.0961 82.6787C18.7557 86.8234 12.3688 96.1659 10.3545 104.42C5.21558 101.635 3 98.3495 3 95.4999C3 92.5766 5.33173 89.1943 10.7593 86.3651C13.8586 84.7495 17.7234 83.4646 22.0961 82.6787ZM14.886 106.424C15.0522 106.42 15.198 106.409 15.3192 106.394C19.2908 103.557 29.2085 97.8829 37.1064 97.8829C39.1208 97.8829 40.1419 101.525 34.2914 109.137C33.5361 109.166 32.772 109.181 32 109.181C25.5558 109.181 19.663 108.139 14.886 106.424ZM64 95.4999C64 104.713 49.6731 112.181 32 112.181C14.3269 112.181 0 104.713 0 95.4999C0 86.2874 14.3269 78.8191 32 78.8191C49.6731 78.8191 64 86.2874 64 95.4999Z" fill="#689901"/>
<path fill-rule="evenodd" clip-rule="evenodd" d="M102.624 121.149C100.509 121.704 98.289 122 96 122C93.5279 122 91.1363 121.655 88.8709 121.01L90.3453 117.797L95.8353 105.832L101.117 117.75L102.624 121.149ZM107.698 119.226C116.182 114.945 122 106.152 122 96C122 94.4388 121.862 92.9098 121.599 91.4243L108.352 117.918L107.698 119.226ZM117.603 81.5274C115.677 78.6577 113.193 76.1929 110.308 74.2878L100.286 96.1305L104.992 106.749L117.603 81.5274ZM103.032 70.9622L95.9618 86.3724L89.1143 70.9216C91.3074 70.3208 93.6162 70 96 70C98.437 70 100.796 70.3353 103.032 70.9622ZM81.8187 74.2044C79.0201 76.029 76.5946 78.3781 74.6817 81.1122L86.6672 106.63L91.5107 96.0735L81.8187 74.2044ZM70.4824 90.9894C70.1659 92.6107 70 94.286 70 96C70 105.854 75.4821 114.428 83.5628 118.838L83.0892 117.83L70.4824 90.9894ZM128 96C128 113.673 113.673 128 96 128C78.3269 128 64 113.673 64 96C64 78.3269 78.3269 64 96 64C113.673 64 128 78.3269 128 96Z" fill="#689901"/>
<g clip-path="url(#clip2_0_1)">
<path fill-rule="evenodd" clip-rule="evenodd" d="M160 76C142.327 76 128 84.9537 128 96C128 107.046 142.327 116 160 116C177.673 116 192 107.046 192 96C192 84.9537 177.673 76 160 76ZM136.289 88.0839C137.169 91.6973 143.575 94.6969 152.245 95.8389C152.243 96.0087 152.242 96.1785 152.242 96.3497C152.242 104.919 154.755 112.108 158.145 114.063C144.083 113.402 132.99 105.794 132.99 96.5036C132.99 93.4532 134.185 90.5842 136.289 88.0839ZM155.426 96.164C156.907 96.2743 158.435 96.3323 160 96.3323C161.565 96.3323 163.093 96.2743 164.574 96.164C164.364 102.52 162.397 107.502 160 107.502C157.603 107.502 155.636 102.52 155.426 96.164ZM167.755 95.8375C176.621 94.6707 183.119 91.5594 183.761 87.8372C185.996 90.3956 187.272 93.3531 187.272 96.5036C187.272 105.856 176.03 113.505 161.833 114.074C165.233 112.138 167.758 104.936 167.758 96.3483C167.758 96.177 167.758 96.0073 167.755 95.8375ZM162.772 79.3101C171.636 79.7527 178.429 82.2836 178.429 85.3397C178.429 87.8357 173.898 89.9806 167.409 90.9238C166.702 85.5835 164.98 81.2968 162.772 79.3101ZM164.378 91.2634C162.974 91.3766 161.508 91.4361 159.999 91.4361C158.49 91.4361 157.023 91.3766 155.619 91.2634C156.208 86.2235 157.947 82.5723 159.999 82.5723C162.05 82.5723 163.787 86.2249 164.378 91.2634ZM152.59 90.9238C146.101 89.9806 141.569 87.8343 141.569 85.3397C141.569 84.3079 142.343 83.3371 143.709 82.4853C145.311 81.6944 147.052 81.0167 148.906 80.4696C151.294 79.8732 154.134 79.4639 157.226 79.3101C155.019 81.2968 153.297 85.5835 152.59 90.9238Z" fill="#689901"/>
</g>
<path d="M256.49 96C256.49 113.675 242.165 128 224.49 128C206.815 128 192.49 113.675 192.49 96C192.49 78.3254 206.815 64 224.49 64C242.165 64 256.49 78.3254 256.49 96Z" fill="#689901"/>
<path d="M255.687 96C255.687 113.236 241.726 127.197 224.49 127.197C207.254 127.197 193.293 113.236 193.293 96C193.293 78.7644 207.267 64.8029 224.49 64.8029C241.713 64.8029 255.687 78.7644 255.687 96Z" fill="white"/>
<path d="M253.492 96C253.492 112.019 240.509 125.002 224.49 125.002C208.471 125.002 195.488 112.019 195.488 96C195.488 79.9812 208.471 66.998 224.49 66.998C240.509 66.998 253.492 79.9812 253.492 96Z" fill="#689901"/>
<path d="M250.92 96C250.92 110.601 239.091 122.43 224.49 122.43C209.889 122.43 198.06 110.601 198.06 96C198.06 81.3987 209.889 69.5696 224.49 69.5696C239.091 69.5696 250.92 81.4112 250.92 96Z" fill="white"/>
<path d="M244.586 108.657C242.616 106.8 240.12 105.559 237.41 105.132C237.022 105.069 236.67 105.37 236.67 105.759V106.75C236.67 107.039 236.445 107.378 236.156 107.378C235.943 107.378 235.73 107.378 235.516 107.378C234.764 107.378 234.626 106.437 234.776 105.885C236.394 100.102 236.783 96.6021 236.758 94.0431C236.733 91.3336 236.67 88.6241 235.454 85.049C234.274 81.6119 233.196 78.2376 227.513 73.0819C227.124 72.7307 226.735 72.5676 226.221 72.53C225.657 72.4924 225.205 72.4673 224.641 72.4673C222.282 72.4673 219.999 72.8185 217.842 73.4583C217.039 73.6966 217.152 74.2611 217.603 74.65C219.748 76.4939 222.671 79.2536 224.678 82.7033C223.411 82.8287 222.433 82.1137 221.617 81.336C218.933 78.777 216.136 76.9581 213.915 75.7037C213.526 75.4904 213.15 75.3901 212.761 75.6159C210.315 77.0459 208.659 78.3756 206.715 80.6335C206.389 81.0224 206.602 81.3109 206.928 81.4865C209.048 82.6155 212.385 84.748 215.433 87.5327C214.806 88.0596 213.828 87.884 212.397 87.1313C209.65 85.6888 207.016 84.8609 204.996 84.334C204.57 84.2211 204.106 84.334 203.88 84.7354C202.588 86.9808 201.697 89.6527 201.283 92.3748C201.208 92.9016 201.559 93.3532 202.074 93.4536C206.765 94.2815 215.145 96.4767 216.524 106.123C216.65 106.964 215.872 107.704 214.869 107.24C213.451 106.575 212.046 105.922 210.641 105.258C210.491 105.195 210.328 105.132 210.165 105.132H203.516C202.575 105.132 202.187 106.035 202.801 106.738C204.394 108.582 205.862 110.564 207.116 112.671C207.229 112.859 207.355 112.935 207.568 112.935H210.466C210.666 112.935 210.829 112.884 211.005 112.784C211.921 112.245 212.837 111.718 213.74 111.178C213.915 111.078 214.078 111.078 214.279 111.078H236.169C236.457 111.078 236.695 111.266 236.695 111.555V112.633C236.695 113.022 237.047 113.323 237.436 113.261C240.145 112.834 242.641 111.592 244.611 109.736C244.924 109.447 244.924 108.946 244.611 108.657H244.586Z" fill="#689901"/>
<path d="M242.616 109.184C241.136 107.98 239.581 107.189 237.674 106.8C237.498 106.763 237.423 106.826 237.423 107.014V107.114C237.423 107.578 236.959 108.118 236.495 108.118H235.265C234.224 108.118 233.296 107.265 233.685 105.885C238.138 90.0039 233.158 80.1944 226.886 74.7001C225.18 73.2073 225.029 73.1321 223.323 73.1948C221.981 73.245 220.413 73.408 219.083 73.7342C218.82 73.7969 218.607 74.0101 218.946 74.2987C222.169 77.0082 226.472 81.6997 228.529 88.9753C228.604 89.2261 228.454 89.2136 228.253 89.2261C226.409 89.339 225.782 88.2101 225.205 87.4951C221.028 82.2892 216.336 79.1156 212.824 77.0458C212.473 76.8326 212.423 76.8451 212.147 76.9956C210.742 77.811 209.149 79.1156 208.032 80.2947C207.794 80.5456 207.857 80.6585 208.12 80.7965C211.294 82.5025 216.123 85.8518 220.614 91.5343C220.89 91.8855 220.915 92.0486 220.752 92.1364C219.886 92.6507 218.444 92.6381 216.863 91.6597C212.586 88.9878 208.245 87.1062 204.846 86.1277C204.482 86.0274 204.419 86.0399 204.269 86.3535C203.441 88.0972 202.538 90.3676 202.212 92.3245C202.174 92.5754 202.149 92.6005 202.387 92.6507C211.745 94.5448 216.876 99.6879 217.465 106.55C217.566 107.741 216.223 108.883 214.881 108.469C213.426 108.005 212.009 107.49 210.554 107.026C210.403 106.976 210.24 106.951 210.077 106.951C208.07 106.951 206.05 106.951 204.043 106.951C203.78 106.951 203.617 107.114 203.88 107.453C205.398 109.372 206.276 110.463 207.355 112.257C207.468 112.445 207.593 112.521 207.806 112.521C208.546 112.521 209.287 112.521 210.027 112.521C210.315 112.521 210.579 112.458 210.829 112.307C211.632 111.831 212.435 111.392 213.238 110.927C213.489 110.777 213.715 110.689 214.016 110.689C221.316 110.689 229.156 110.689 236.457 110.689C236.921 110.689 237.41 111.228 237.41 111.705V111.868C237.41 112.044 237.498 112.107 237.661 112.081C239.555 111.693 241.123 110.777 242.604 109.573C242.742 109.46 242.742 109.359 242.604 109.247L242.616 109.184ZM228.278 105.496C226.121 105.496 224.377 103.752 224.377 101.595C224.377 99.437 226.121 97.6934 228.278 97.6934C230.436 97.6934 232.18 99.437 232.18 101.595C232.18 103.752 230.436 105.496 228.278 105.496Z" fill="#689901"/>
<path d="M232.393 101.795C232.393 104.229 230.423 106.198 227.99 106.198C225.556 106.198 223.587 104.229 223.587 101.795C223.587 99.3618 225.556 97.3924 227.99 97.3924C230.423 97.3924 232.393 99.3618 232.393 101.795Z" fill="#689901"/>
<path d="M231.715 101.682C231.715 103.313 230.398 104.63 228.768 104.63C227.137 104.63 225.82 103.313 225.82 101.682C225.82 100.052 227.137 98.7346 228.768 98.7346C230.398 98.7346 231.715 100.052 231.715 101.682Z" fill="white"/>
<path fill-rule="evenodd" clip-rule="evenodd" d="M318.898 91.2376C318.862 89.2335 317.334 89.1935 317.334 89.1935C316.435 89.0535 315.524 88.9215 314.6 88.8015C311.322 77.3846 300.44 69 287.512 69C274.585 69 263.873 77.2566 260.503 88.5334C259.755 88.6815 259.071 88.8215 258.367 88.9695C256.381 89.3335 256.246 90.7376 256.246 90.8296C255.796 92.6458 256.067 98.6782 256.246 100.718C256.381 102.895 258.14 102.714 258.231 102.759C258.888 102.903 259.624 103.031 260.412 103.155C263.678 114.591 274.569 123 287.516 123C300.463 123 311.274 114.651 314.585 103.279C316.276 103.063 317.219 102.911 317.219 102.911C318.818 102.77 318.85 100.854 318.85 100.834C319.144 98.0342 318.918 91.2416 318.902 91.2416L318.898 91.2376ZM287.512 75.5885C296.29 75.5885 303.822 80.6969 307.06 87.9894C291.626 86.6813 275.321 87.2494 268.135 87.6134C271.465 80.5249 278.886 75.5885 287.508 75.5885H287.512ZM301.669 98.9262H299.512L298.864 97.7261H295.414L294.877 98.9262H292.72L295.736 92.1577H298.43L301.665 98.9262H301.669ZM287.011 96.414C287.011 96.414 285.718 96.306 285.503 94.6659V94.3379C285.503 94.3379 285.395 92.5897 287.226 92.1537H292.076V93.9018H287.659V94.8859H291.324C291.324 94.8859 292.617 95.322 292.617 96.634V96.9621C292.617 96.9621 292.724 98.3822 291.431 98.9262H285.61V97.2901H290.675V96.418H287.011V96.414ZM279.252 96.414C279.252 96.414 277.959 96.306 277.744 94.6659V94.3379C277.744 94.3379 277.636 92.5897 279.467 92.1537H284.317V93.9018H279.9V94.8859H283.565C283.565 94.8859 284.858 95.322 284.858 96.634V96.9621C284.858 96.9621 284.966 98.3822 283.672 98.9262H277.851V97.2901H282.916V96.418H279.252V96.414ZM276.451 92.1577V98.9262H274.079V92.1577H276.451ZM266.969 94.4499V98.9262H264.92V92.1577H268.37L270.848 96.9621V92.1577H272.571V98.9262H269.448L266.969 94.4499ZM287.512 116.416C278.719 116.416 271.171 111.283 267.94 103.971C277.155 104.667 287.783 104.715 287.783 104.715C295.259 104.835 301.94 104.487 307.041 104.063C303.786 111.327 296.27 116.416 287.512 116.416ZM310.076 98.9262H306.842L304.255 94.3419V98.9262H302.206V92.1577H305.763L308.027 96.8541V92.1577H310.076V98.9262Z" fill="#689901"/>
<path fill-rule="evenodd" clip-rule="evenodd" d="M296.998 94L296 96H298L296.998 94Z" fill="#689901"/>
<path fill-rule="evenodd" clip-rule="evenodd" d="M320 96C320 88.8197 334.33 83 352 83C369.67 83 384 88.8197 384 96C384 103.18 369.674 109 352 109C334.326 109 320 103.18 320 96ZM359.133 97.1369C359.124 97.0903 359.087 97.0577 359.046 97.053C358.165 96.9226 357.239 96.8108 356.271 96.7315C356.216 96.7222 356.179 96.671 356.216 96.5498C359.174 93.3907 360.298 89.3649 358.803 86.2197C358.807 86.1591 358.862 86.1172 358.922 86.1219C369.101 87.3753 376.528 91.3219 376.528 96C376.528 101.685 365.546 106.293 351.995 106.293C338.445 106.293 327.463 101.685 327.463 96C327.463 91.0703 335.72 86.9513 346.743 85.9448C346.798 85.9448 346.839 85.9867 346.844 86.0753L344.45 99.462C344.431 99.5599 344.422 99.667 344.422 99.7695C344.422 100.669 345.138 101.396 346.023 101.396H346.11C348.248 101.289 350.541 100.613 352.706 99.3409C353.33 98.9728 353.922 98.572 354.477 98.1434C354.514 98.1154 354.56 98.1108 354.596 98.1341C355.317 98.6233 355.734 99.1918 355.734 99.8068C355.734 100.636 354.968 101.396 353.706 101.969C352.243 102.635 350.11 103.054 347.734 103.054C345.72 103.054 343.885 102.752 342.459 102.248C342.399 102.239 342.344 102.276 342.335 102.337L342.133 103.474C342.124 103.53 342.161 103.581 342.216 103.595C345.119 104.28 348.454 104.671 352.005 104.671C356.422 104.671 360.005 103.218 360.005 101.419C360.005 100.72 359.463 100.077 358.541 99.5459C357.734 99.1452 357.225 98.6233 357.353 98.2738C357.482 97.9104 358.257 97.8545 359.17 98.1014C359.22 98.1108 359.271 98.0781 359.289 97.9803L359.138 97.1369H359.133ZM351.995 88.9409C351.995 89.0108 351.995 89.0806 351.991 89.1505C352.106 91.5362 350.656 94.728 348 97.4258C347.459 97.9756 346.894 98.4789 346.321 98.9215C346.298 98.9355 346.271 98.9401 346.243 98.9355C346.188 98.9215 346.151 98.8703 346.161 98.805L348.761 84.2627C348.761 84.2068 348.716 84.1649 348.661 84.1602C334.33 84.8452 323.202 89.8867 323.202 96C323.202 102.584 336.096 107.919 352 107.919C367.904 107.919 380.798 102.584 380.798 96C380.798 89.4161 367.904 84.0857 352 84.0857C351.495 84.0857 350.995 84.0903 350.491 84.1043C350.44 84.1043 350.399 84.1369 350.385 84.1882L350.083 85.8842C350.073 85.9308 350.096 85.9728 350.133 85.9961C351.234 86.5086 351.995 87.6409 351.995 88.9502V88.9409Z" fill="#689901"/>
<path d="M385.199 91.244C383.971 91.8886 383.92 93.3924 384.048 94.0638V102.389C384.048 103.141 384.815 103.508 385.199 103.597H391.977L399.778 98.6291L404.383 103.597H411.8L404.383 95.9436L414.486 89.3642V102.12C414.486 103.194 415.168 103.552 415.509 103.597H425.868L441.215 92.8553V104C442.75 102.971 446.049 100.751 446.97 100.106C447.891 99.4616 448.036 98.6738 447.993 98.3605V89.6328C447.993 88.4512 447.141 88.0663 446.715 88.0215H441.855L421.264 102.657V89.3642C421.264 88.0752 420.412 87.932 419.985 88.0215H410.01L390.826 100.106V88.0215C389.462 88.8271 386.427 90.5995 385.199 91.244Z" fill="#689901"/>
<path fill-rule="evenodd" clip-rule="evenodd" d="M477.277 99.1028H481.32L490.817 91.0266H485.885L480.982 95.0621L480.836 91.0095L477.129 91L477.277 99.1028ZM454.995 99.1028H458.938L463.412 91.0266H459.468L458.001 93.5852C457.83 93.5835 457.364 93.5826 456.793 93.5904C456.42 93.5955 455.554 93.6187 454.88 93.7244L456.423 91.0266H452.474L448 99.1028H451.946L452.938 97.2427C453.341 96.5029 454.215 95.7048 455.107 95.6137C455.436 95.5802 455.809 95.563 456.213 95.563C456.499 95.563 456.742 95.5716 456.898 95.5793L454.995 99.1028ZM468.616 99.1011H471.765H471.766L475.557 91.0283H472.461C470.662 91.0283 468.754 91.7672 468.031 92.2664C467.354 92.7329 466.558 93.3446 466.351 93.5388L460.195 99.1011H463.981L464.994 98.1122C465.355 97.7788 466.346 97.3097 467.418 97.3097H467.467C468.291 97.3209 469.061 97.363 469.391 97.3836L468.616 99.1011ZM470.254 95.4212H467.875L468.725 94.6076L468.729 94.6047C468.803 94.5397 470.043 93.453 470.595 93.1264C470.952 92.9159 471.333 92.8824 471.56 92.8884L470.254 95.4212ZM492.988 99.1011H496.137H496.137L499.928 91.0283H496.832C495.033 91.0283 493.125 91.7672 492.402 92.2664C491.726 92.7329 490.929 93.3446 490.722 93.5388L484.567 99.1011H488.352L489.365 98.1122C489.726 97.7788 490.717 97.3097 491.789 97.3097H491.838C492.662 97.3209 493.432 97.363 493.762 97.3836L492.988 99.1011ZM494.625 95.4212H492.246L493.097 94.6076L493.1 94.6045C493.176 94.5383 494.413 93.4528 494.967 93.1264C495.323 92.9159 495.703 92.8833 495.932 92.8884L494.625 95.4212ZM502.343 99.1028H509.922L512 96.869H503.977C503.958 96.8326 503.931 96.8059 503.903 96.779C503.865 96.7423 503.826 96.7051 503.81 96.6421C503.787 96.5614 503.806 96.4634 503.867 96.3638C503.883 96.3354 505.452 93.5277 505.796 92.9391C506.437 91.8477 507.543 91.2805 507.595 91.2535L507.597 91.2526L508.055 91.0266H502.942L502.908 91.0885C502.882 91.1349 500.288 95.7443 499.908 96.4127C499.397 97.3131 499.551 98.2505 500.29 98.7437C500.807 99.089 502.279 99.1028 502.343 99.1028Z" fill="#689901"/>
<path fill-rule="evenodd" clip-rule="evenodd" d="M529.757 78.1248C533.243 78.066 536.733 78.147 540.216 78.0013C544.916 77.9907 549.614 78.0467 554.313 78.0775C555.635 78.1267 556.96 78.0727 558.278 78.1904C558.276 79.1879 558.273 80.1874 558.212 81.1829C558.146 81.9836 558.191 82.7921 558.118 83.5928C558.041 84.2903 558.114 85.0003 558.007 85.6949C557.997 85.8714 557.989 86.0489 557.979 86.2255C555.048 86.4406 552.111 86.5998 549.174 86.7339C543.422 86.9973 537.665 86.7185 531.923 86.3567C531.309 86.3162 530.685 86.3065 530.087 86.1483C530.065 86.0094 530.039 85.8714 530.01 85.7335C529.967 85.09 530.019 84.4369 529.914 83.8002C529.874 82.9648 529.928 82.1197 529.82 81.2919C529.804 80.2356 529.77 79.1802 529.757 78.1248ZM523.74 78.2435C525.411 78.2049 527.084 78.2184 528.755 78.1615C528.769 78.529 528.755 78.8966 528.773 79.2641C528.903 79.8304 528.766 80.4276 528.899 80.9919C528.864 81.1231 528.851 81.2572 528.861 81.3932C528.982 82.0878 528.92 82.8056 528.962 83.5098C529.049 83.8832 529.01 84.2719 529.032 84.653C529.032 85.1112 529.089 85.5685 529.046 86.0268C529.066 86.0557 529.106 86.1145 529.126 86.1435C528.848 86.1956 528.566 86.1473 528.289 86.1252C526.328 85.9785 524.37 85.8126 522.407 85.6949C519.578 85.4904 516.751 85.2579 513.926 85.0061C513.316 84.9646 512.695 84.9559 512.103 84.7775C512.064 83.6121 512.039 82.4448 512.063 81.2784C512.07 81.0585 512.082 80.8366 512.141 80.6244C512.207 80.335 512.333 80.0677 512.499 79.8237C512.862 79.4127 513.276 79.0065 513.813 78.8493C514.44 78.6728 515.09 78.5994 515.738 78.556C518.403 78.4133 521.072 78.2782 523.74 78.2435ZM559.243 78.1586C562.584 78.2222 565.926 78.257 569.266 78.3901C570.519 78.4422 571.773 78.5039 573.021 78.6438C573.695 78.7422 574.433 78.7924 574.981 79.2506C575.259 79.4204 575.444 79.6915 575.636 79.9491C575.706 80.1082 575.774 80.2684 575.842 80.4295C575.878 80.5867 575.901 80.7469 575.924 80.908C575.984 81.1897 575.991 81.4801 575.996 81.7676C576.001 82.7815 576.011 83.7963 575.961 84.8103C575.761 84.8701 575.552 84.8932 575.345 84.9058C570.245 85.3341 565.142 85.7615 560.033 86.0856C559.667 86.102 559.288 86.1994 558.933 86.0673C559.037 85.0842 559.033 84.0944 559.058 83.1056C559.165 82.2441 559.113 81.3672 559.155 80.499C559.257 79.7272 559.209 78.9381 559.243 78.1586ZM512.145 85.8685C512.295 86.0489 512.267 86.2901 512.296 86.5091C512.357 86.6615 512.372 86.8275 512.394 86.9895C512.451 87.1449 512.467 87.3108 512.487 87.4748C512.602 87.7931 512.675 88.1231 512.766 88.4482C512.817 88.5398 512.867 88.6305 512.918 88.7212C512.923 88.7704 512.936 88.8688 512.941 88.917C513.077 89.1457 513.179 89.3917 513.307 89.6232C513.81 90.4548 514.562 91.0886 515.35 91.6298C515.826 91.8893 516.305 92.1459 516.803 92.361C518.745 93.1907 520.812 93.6624 522.863 94.1207C524.706 94.5239 526.555 94.8982 528.409 95.2426C528.871 95.3304 529.334 95.4201 529.804 95.4481C529.78 95.0719 529.816 94.687 529.725 94.3184C529.698 93.8708 529.71 93.4193 529.623 92.9775C529.597 92.6524 529.619 92.3205 529.535 92.0022C529.498 91.6163 529.53 91.2227 529.438 90.8445C529.394 90.0699 529.341 89.2933 529.247 88.5244C529.221 88.1713 529.242 87.8115 529.155 87.4661C529.145 87.359 529.136 87.2519 529.127 87.1449C527.083 86.9953 525.036 86.8545 522.991 86.7107C519.463 86.4117 515.929 86.1859 512.406 85.8319C512.319 85.8377 512.231 85.8492 512.145 85.8685ZM566.132 86.6268C563.74 86.8178 561.343 86.9432 558.953 87.1622C558.931 87.3513 558.912 87.5423 558.865 87.7266C558.84 88.0498 558.853 88.3787 558.771 88.6942C558.737 89.0463 558.757 89.4061 558.678 89.7534C558.639 90.1075 558.664 90.4692 558.581 90.8175C558.546 91.1706 558.568 91.5314 558.486 91.8787C558.438 92.6215 558.39 93.3663 558.296 94.1033C558.273 94.5683 558.239 95.0323 558.248 95.4983C561.5 94.9069 564.747 94.2673 567.953 93.4541C569.327 93.0952 570.689 92.6698 571.973 92.0523C573.126 91.4311 574.225 90.5831 574.856 89.3984C575.213 88.8119 575.389 88.1327 575.544 87.4671C575.584 87.3031 575.619 87.1381 575.662 86.9751C575.682 86.8111 575.702 86.6461 575.729 86.4831C575.792 86.2689 575.788 86.0432 575.794 85.8213C572.575 86.1097 569.354 86.376 566.132 86.6268ZM554.315 87.4237C555.538 87.3648 556.757 87.2404 557.98 87.2095C557.959 87.3175 557.938 87.4256 557.914 87.5336C557.858 88.2437 557.814 88.9566 557.724 89.6608C557.683 90.0457 557.716 90.4374 557.63 90.8165C557.587 91.2015 557.623 91.596 557.534 91.9752C557.498 92.362 557.526 92.7566 557.438 93.1367C557.409 93.8467 557.347 94.5558 557.256 95.26C557.233 95.3931 557.214 95.5282 557.195 95.6633C554.944 96.1157 552.669 96.4263 550.399 96.7572C548.945 96.9511 547.49 97.1817 546.023 97.2377C543.579 97.3409 541.126 97.2463 538.704 96.8933C536.084 96.5296 533.465 96.1504 530.86 95.6922C530.837 95.615 530.793 95.4587 530.77 95.3816C530.744 95.0574 530.762 94.7265 530.675 94.4101C530.64 93.6682 530.58 92.9254 530.486 92.1922C530.45 91.8083 530.489 91.4156 530.391 91.0394C530.354 90.6525 530.395 90.257 530.296 89.8779C530.255 89.4611 530.298 89.0347 530.2 88.6257C530.175 88.1482 530.165 87.6716 530.145 87.1941C532.802 87.3667 535.46 87.5462 538.121 87.6639C541.641 87.7574 545.164 87.7883 548.684 87.7005C550.565 87.6928 552.438 87.5134 554.315 87.4237ZM512.101 104.611C512.197 104.053 512.701 103.783 513.158 103.568C513.35 103.523 513.549 103.55 513.744 103.543C517.076 103.546 520.408 103.543 523.739 103.543C523.882 103.543 524.022 103.576 524.163 103.6C524.165 104.11 524.101 104.616 524.081 105.125C520.655 105.117 517.231 105.132 513.805 105.164C513.783 105.214 513.74 105.312 513.717 105.361C513.697 107.361 513.686 109.361 513.69 111.361C516.616 111.357 519.542 111.361 522.468 111.359C522.472 110.601 522.468 109.844 522.47 109.085C520.378 109.007 518.283 109.06 516.191 109.011C516.217 108.518 516.145 108.013 516.226 107.527C516.887 107.463 517.556 107.518 518.218 107.5C519.331 107.463 520.444 107.486 521.557 107.48C522.425 107.49 523.291 107.44 524.158 107.466C524.147 109.3 524.153 111.135 524.155 112.971C521.35 112.989 518.544 112.974 515.739 112.979C514.851 112.968 513.961 113 513.074 112.962C512.806 112.755 512.486 112.62 512.263 112.357C512.221 112.216 512.175 112.077 512.129 111.938C512.012 111.339 512.098 110.723 512.002 110.122C512.005 108.77 511.991 107.417 512.01 106.066C512.11 105.589 512.04 105.093 512.101 104.61V104.611ZM526.924 103.546C530.863 103.542 534.8 103.548 538.738 103.543C538.72 103.869 538.76 104.205 538.675 104.523C538.667 104.724 538.667 104.924 538.668 105.125C536.866 105.125 535.064 105.125 533.262 105.125C531.715 105.177 530.165 105.118 528.616 105.159C528.644 105.464 528.624 105.77 528.579 106.072C528.566 106.535 528.572 106.998 528.564 107.462C531.831 107.479 535.099 107.495 538.366 107.501C538.382 108.009 538.372 108.517 538.375 109.025C535.687 109.019 533 109.06 530.311 109.045C529.729 109.087 529.146 109.088 528.564 109.083C528.564 109.843 528.564 110.602 528.564 111.361C529.083 111.352 529.602 111.362 530.12 111.401C532.983 111.392 535.847 111.411 538.711 111.43C538.702 111.792 538.735 112.158 538.669 112.517C538.656 112.67 538.673 112.825 538.743 112.964C536.44 113.003 534.136 112.97 531.832 112.981C530.978 112.982 530.124 112.986 529.269 112.962C528.657 112.948 527.967 113.037 527.449 112.63C527.262 112.529 527.148 112.35 527.05 112.168C527.003 111.777 526.918 111.39 526.93 110.994C526.902 108.512 526.911 106.029 526.924 103.547V103.546ZM541.249 111.486C541.214 108.84 541.19 106.192 541.211 103.546C545.15 103.543 549.087 103.546 553.025 103.544C553.007 103.902 553.047 104.268 552.962 104.62C552.955 104.787 552.953 104.956 552.952 105.126C549.607 105.109 546.264 105.15 542.92 105.147C542.903 105.708 542.93 106.271 542.862 106.829C542.853 107.039 542.85 107.25 542.85 107.462C546.147 107.466 549.444 107.452 552.741 107.468C552.717 107.866 552.729 108.266 552.673 108.662C552.666 108.783 552.661 108.905 552.656 109.027C550.129 109.012 547.605 109.06 545.078 109.045C544.334 109.021 543.594 109.109 542.851 109.083C542.851 109.842 542.853 110.6 542.849 111.357C545.75 111.364 548.651 111.358 551.552 111.36C552.045 111.381 552.547 111.31 553.035 111.409C553.018 111.932 553.026 112.457 553.028 112.982C549.71 112.969 546.393 113 543.076 112.961C542.746 112.955 542.411 112.94 542.095 112.83C541.856 112.707 541.646 112.529 541.459 112.334C541.243 112.109 541.336 111.764 541.249 111.486ZM565.028 105.712C564.376 104.958 563.599 104.321 562.973 103.548C563.704 103.582 564.453 103.461 565.171 103.616C565.875 104.397 566.647 105.114 567.369 105.877C568.008 106.591 568.721 107.232 569.363 107.942C569.398 107.95 569.467 107.967 569.501 107.976C570.949 106.487 572.412 105.012 573.877 103.539C574.569 103.554 575.262 103.535 575.955 103.551C575.903 103.639 575.845 103.722 575.781 103.802C573.946 105.674 572.085 107.522 570.266 109.411C570.261 110.594 570.266 111.776 570.265 112.959C569.72 112.985 569.175 113.01 568.63 112.996C568.591 112.528 568.641 112.058 568.581 111.592C568.535 110.827 568.598 110.059 568.55 109.295C567.385 108.093 566.193 106.914 565.028 105.712ZM555.588 103.548C555.583 106.221 555.558 108.895 555.61 111.567C555.581 112.09 555.933 112.535 556.36 112.784C556.794 112.977 557.278 112.951 557.74 112.962C560.494 112.998 563.249 112.97 566.003 112.982C565.997 112.44 566.012 111.898 565.991 111.357C563.073 111.355 560.155 111.377 557.238 111.346C557.239 108.746 557.247 106.145 557.233 103.544C556.685 103.546 556.137 103.544 555.588 103.548Z" fill="#689901"/>
<g clip-path="url(#clip3_0_1)">
<path fill-rule="evenodd" clip-rule="evenodd" d="M587.18 86C581.049 86 575.898 91.0612 576.002 97.181C576.103 103.187 581.081 108 587.181 108C589.8 108 592.212 107.113 594.12 105.624C596.029 107.112 598.441 108 601.06 108C603.68 108 606.092 107.113 608 105.624C609.908 107.112 612.321 108 614.94 108C617.56 108 619.972 107.113 621.88 105.624C623.788 107.112 626.201 108 628.82 108C634.919 108 639.897 103.188 639.998 97.181C640.102 91.0608 634.951 86 628.82 86C626.222 86 623.801 86.9084 621.88 88.4208C619.959 86.9084 617.537 86 614.94 86C612.342 86 609.921 86.9084 608 88.4208C606.079 86.9084 603.658 86 601.06 86C598.462 86 596.041 86.9084 594.12 88.421C592.199 86.9084 589.777 86 587.18 86ZM601.06 105.504C599.141 105.504 597.367 104.888 595.931 103.846C597.414 102.013 598.316 99.7024 598.359 97.181C598.403 94.5532 597.479 92.1208 595.925 90.2004C597.372 89.133 599.156 88.4964 601.06 88.4964C602.964 88.4964 604.748 89.133 606.195 90.2002C604.641 92.1208 603.716 94.5536 603.761 97.1812C603.804 99.7024 604.706 102.014 606.189 103.847C604.754 104.888 602.98 105.504 601.06 105.504ZM595.827 97.1394C595.859 95.2204 595.215 93.4298 594.12 91.9816C593.025 93.4298 592.381 95.2204 592.413 97.1394C592.445 98.9886 593.075 100.693 594.12 102.074C595.166 100.693 595.796 98.9888 595.827 97.1394ZM589.881 97.181C589.837 94.5532 590.761 92.1208 592.316 90.2004C590.868 89.133 589.084 88.4964 587.18 88.4964C582.446 88.4964 578.454 92.4324 578.533 97.1394C578.612 101.778 582.458 105.504 587.181 105.504C589.1 105.504 590.874 104.888 592.31 103.846C590.826 102.013 589.924 99.7024 589.881 97.181ZM612.239 97.181C612.283 94.5532 611.359 92.1208 609.804 90.2002C611.252 89.133 613.036 88.4964 614.94 88.4964C616.844 88.4964 618.628 89.133 620.076 90.2004C618.521 92.1208 617.597 94.5532 617.641 97.181C617.684 99.7024 618.586 102.013 620.069 103.846C618.634 104.888 616.859 105.504 614.94 105.504C613.021 105.504 611.247 104.888 609.811 103.846C611.294 102.013 612.196 99.7024 612.239 97.181ZM620.173 97.1394C620.141 95.2204 620.785 93.4296 621.88 91.9814C622.975 93.4296 623.619 95.2204 623.587 97.1394C623.555 98.9888 622.925 100.693 621.88 102.074C620.834 100.693 620.204 98.9886 620.173 97.1394ZM628.82 105.504C626.901 105.504 625.126 104.888 623.691 103.846C625.174 102.014 626.076 99.7026 626.119 97.1812C626.163 94.553 625.239 92.1206 623.685 90.2002C625.132 89.133 626.916 88.4964 628.82 88.4964C633.554 88.4964 637.546 92.432 637.467 97.1394C637.388 101.779 633.542 105.504 628.82 105.504ZM609.707 97.198C609.739 95.279 609.095 93.4884 608 92.0402C606.905 93.4884 606.261 95.279 606.293 97.198C606.324 99.0472 606.954 100.751 608 102.132C609.045 100.751 609.675 99.0474 609.707 97.198Z" fill="#689901"/>
</g>
<defs>
<clipPath id="clip0_0_1">
<rect width="64" height="64" fill="white" transform="translate(128)"/>
</clipPath>
<clipPath id="clip1_0_1">
<rect width="64" height="64" fill="white" transform="translate(576)"/>
</clipPath>
<clipPath id="clip2_0_1">
<rect width="64" height="64" fill="white" transform="translate(128 64)"/>
</clipPath>
<clipPath id="clip3_0_1">
<rect width="64" height="64" fill="white" transform="translate(576 64)"/>
</clipPath>
</defs>
</svg>
