<svg width="96" height="24" viewBox="0 0 96 24" fill="none" xmlns="http://www.w3.org/2000/svg">
<path fill-rule="evenodd" clip-rule="evenodd" d="M12.0696 22C17.0591 22 21.201 18.3962 22 13.6667V10.3333C21.201 5.60381 17.0591 2 12.0696 2C6.50832 2 2 6.47715 2 12C2 17.5228 6.50832 22 12.0696 22ZM12.9873 7H11.1271L7.03481 17H9.32899L10.0968 14.9716H14.0333L14.8102 17H17.1044L12.9873 7ZM10.8383 12.9858L12.0448 9.69503H12.1068L13.3236 12.9858H10.8383Z" fill="#B2B2B2"/>
<path fill-rule="evenodd" clip-rule="evenodd" d="M35.9304 22C41.4917 22 46 17.5228 46 12C46 6.47715 41.4917 2 35.9304 2C30.9409 2 26.799 5.60381 26 10.3333V13.6667C26.799 18.3962 30.9409 22 35.9304 22ZM37.3018 7H32.5738V17H37.4538C38.5413 17 39.3984 16.7494 40.0251 16.2482C40.6518 15.7376 40.9652 15.0426 40.9652 14.1631C40.9652 13.4917 40.7763 12.948 40.3984 12.5319C40.1045 12.1927 39.7081 11.9496 39.2092 11.8027C39.6033 11.6394 39.9259 11.4002 40.1772 11.0851C40.5182 10.669 40.6887 10.1678 40.6887 9.58156C40.6887 8.78723 40.3938 8.15839 39.804 7.69504C39.2233 7.23168 38.3893 7 37.3018 7ZM37.122 15.0851H35.0207V12.8865H37.122C37.6013 12.8865 37.9561 12.9716 38.1865 13.1418C38.4261 13.3121 38.5459 13.591 38.5459 13.9787C38.5459 14.357 38.4261 14.6359 38.1865 14.8156C37.9561 14.9953 37.6013 15.0851 37.122 15.0851ZM36.8317 10.9716H35.0207V8.91489H36.8317C37.3202 8.91489 37.675 9 37.8962 9.17021C38.1266 9.33097 38.2418 9.58629 38.2418 9.93617C38.2418 10.2861 38.1266 10.5461 37.8962 10.7163C37.675 10.8865 37.3202 10.9716 36.8317 10.9716Z" fill="#B2B2B2"/>
<path d="M58 17.5V14.5M58 14.5H56M58 14.5H60.5M58 14.5V12M58 12V7H61C62 7 64 7.5 64 9.5C64 11.5 62 12 61 12H58ZM58 12H56" stroke="#DEDEDE" stroke-width="2"/>
<path d="M70 12C70 7 66 2 60 2C54 2 50 6 50 12C50 18 54 22 60 22C66 22 70 17 70 12Z" stroke="#DEDEDE" stroke-width="2"/>
<path d="M84 7V13L88.5 10.5M84 3C88 3 93 6 93 12C93 17 89 21 84 21C79.5 21 75 17 75 12C75 7 79 3 84 3Z" stroke="#B2B2B2" stroke-width="2"/>
</svg>
