<svg width="90" height="18" viewBox="0 0 90 18" fill="none" xmlns="http://www.w3.org/2000/svg">
<rect width="18" height="18" rx="9" fill="#CE2028"/>
<path d="M6.98834 6.71943C6.83657 6.21953 6.42459 6.27432 6.1429 6.50715C5.44902 7.1303 4.54553 8.43824 5.12377 10.3216C5.60804 11.9171 7.62309 12.9375 7.62309 12.9375H5.27408C5.27408 12.9375 4.06119 11.6158 3.95276 10.0614C3.81544 8.09609 4.62503 6.85661 5.56466 6.04859C6.44646 5.28847 7.28491 5.0625 7.28491 5.0625L9 10.5258L10.7151 5.0625C10.7151 5.0625 11.5535 5.28847 12.4353 6.04859C13.375 6.85661 14.1846 8.09609 14.0472 10.0614C13.9388 11.6158 12.7259 12.9375 12.7259 12.9375H10.3769C10.3769 12.9375 12.3918 11.9171 12.8762 10.3216C13.4545 8.43846 12.551 7.13051 11.8571 6.50715C11.5752 6.27432 11.1632 6.21953 11.0117 6.71943C10.4912 8.31497 9.00021 12.8865 9.00021 12.8865C9.00021 12.8865 7.50918 8.31345 6.98877 6.71943H6.98834Z" fill="white"/>
<rect x="72" width="18" height="18" rx="9" fill="#8E479B"/>
<path d="M78.9883 6.71943C78.8366 6.21953 78.4246 6.27432 78.1429 6.50715C77.449 7.1303 76.5455 8.43824 77.1238 10.3216C77.608 11.9171 79.6231 12.9375 79.6231 12.9375H77.2741C77.2741 12.9375 76.0612 11.6158 75.9528 10.0614C75.8154 8.09609 76.625 6.85661 77.5647 6.04859C78.4465 5.28847 79.2849 5.0625 79.2849 5.0625L81 10.5258L82.7151 5.0625C82.7151 5.0625 83.5535 5.28847 84.4353 6.04859C85.375 6.85661 86.1846 8.09609 86.0472 10.0614C85.9388 11.6158 84.7259 12.9375 84.7259 12.9375H82.3769C82.3769 12.9375 84.3918 11.9171 84.8762 10.3216C85.4545 8.43846 84.551 7.13051 83.8571 6.50715C83.5752 6.27432 83.1632 6.21953 83.0117 6.71943C82.4912 8.31497 81.0002 12.8865 81.0002 12.8865C81.0002 12.8865 79.5092 8.31345 78.9888 6.71943H78.9883Z" fill="white"/>
<rect x="54" width="18" height="18" rx="9" fill="#FFCE33"/>
<path d="M60.9883 6.71943C60.8366 6.21953 60.4246 6.27432 60.1429 6.50715C59.449 7.1303 58.5455 8.43824 59.1238 10.3216C59.608 11.9171 61.6231 12.9375 61.6231 12.9375H59.2741C59.2741 12.9375 58.0612 11.6158 57.9528 10.0614C57.8154 8.09609 58.625 6.85661 59.5647 6.04859C60.4465 5.28847 61.2849 5.0625 61.2849 5.0625L63 10.5258L64.7151 5.0625C64.7151 5.0625 65.5535 5.28847 66.4353 6.04859C67.375 6.85661 68.1846 8.09609 68.0472 10.0614C67.9388 11.6158 66.7259 12.9375 66.7259 12.9375H64.3769C64.3769 12.9375 66.3918 11.9171 66.8762 10.3216C67.4545 8.43846 66.551 7.13051 65.8571 6.50715C65.5752 6.27432 65.1632 6.21953 65.0117 6.71943C64.4912 8.31497 63.0002 12.8865 63.0002 12.8865C63.0002 12.8865 61.5092 8.31345 60.9888 6.71943H60.9883Z" fill="white"/>
<rect x="36" width="18" height="18" rx="9" fill="#48B85E"/>
<path d="M42.9883 6.71943C42.8366 6.21953 42.4246 6.27432 42.1429 6.50715C41.449 7.1303 40.5455 8.43824 41.1238 10.3216C41.608 11.9171 43.6231 12.9375 43.6231 12.9375H41.2741C41.2741 12.9375 40.0612 11.6158 39.9528 10.0614C39.8154 8.09609 40.625 6.85661 41.5647 6.04859C42.4465 5.28847 43.2849 5.0625 43.2849 5.0625L45 10.5258L46.7151 5.0625C46.7151 5.0625 47.5535 5.28847 48.4353 6.04859C49.375 6.85661 50.1846 8.09609 50.0472 10.0614C49.9388 11.6158 48.7259 12.9375 48.7259 12.9375H46.3769C46.3769 12.9375 48.3918 11.9171 48.8762 10.3216C49.4545 8.43846 48.551 7.13051 47.8571 6.50715C47.5752 6.27432 47.1632 6.21953 47.0117 6.71943C46.4912 8.31497 45.0002 12.8865 45.0002 12.8865C45.0002 12.8865 43.5092 8.31345 42.9888 6.71943H42.9883Z" fill="white"/>
<rect x="18" width="18" height="18" rx="9" fill="#0274BC"/>
<path d="M24.9883 6.71943C24.8366 6.21953 24.4246 6.27432 24.1429 6.50715C23.449 7.1303 22.5455 8.43824 23.1238 10.3216C23.608 11.9171 25.6231 12.9375 25.6231 12.9375H23.2741C23.2741 12.9375 22.0612 11.6158 21.9528 10.0614C21.8154 8.09609 22.625 6.85661 23.5647 6.04859C24.4465 5.28847 25.2849 5.0625 25.2849 5.0625L27 10.5258L28.7151 5.0625C28.7151 5.0625 29.5535 5.28847 30.4353 6.04859C31.375 6.85661 32.1846 8.09609 32.0472 10.0614C31.9388 11.6158 30.7259 12.9375 30.7259 12.9375H28.3769C28.3769 12.9375 30.3918 11.9171 30.8762 10.3216C31.4545 8.43846 30.551 7.13051 29.8571 6.50715C29.5752 6.27432 29.1632 6.21953 29.0117 6.71943C28.4912 8.31497 27.0002 12.8865 27.0002 12.8865C27.0002 12.8865 25.5092 8.31345 24.9888 6.71943H24.9883Z" fill="white"/>
</svg>
