<svg width="96" height="192" viewBox="0 0 96 192" fill="none" xmlns="http://www.w3.org/2000/svg">
<path d="M70 99C69.8332 98.9965 69.6673 99.0263 69.5122 99.0876C69.357 99.149 69.2157 99.2408 69.0965 99.3575C68.9772 99.4743 68.8825 99.6136 68.8179 99.7675C68.7532 99.9213 68.72 100.086 68.72 100.253V120.3C68.72 120.467 68.7532 120.632 68.8179 120.786C68.8825 120.94 68.9772 121.079 69.0965 121.196C69.2157 121.313 69.357 121.404 69.5122 121.466C69.6673 121.527 69.8332 121.557 70 121.553H71.2533V125L78.1467 121.553H90C90.3324 121.553 90.6512 121.421 90.8862 121.186C91.1213 120.951 91.2533 120.632 91.2533 120.3V100.253C91.2533 99.9209 91.1213 99.6021 90.8862 99.3671C90.6512 99.1321 90.3324 99 90 99H70ZM73.1333 103.387H76.8667C77.0298 103.396 77.1837 103.465 77.2992 103.581C77.4147 103.696 77.4838 103.85 77.4933 104.013C77.4723 104.868 77.6148 105.719 77.9133 106.52C78.0446 106.788 78.0743 107.094 77.9971 107.382C77.9199 107.67 77.7409 107.92 77.4933 108.087L76.16 109.42C76.7426 110.556 77.5034 111.591 78.4133 112.487C79.3174 113.391 80.3537 114.153 81.4867 114.747L82.82 113.413C82.9862 113.166 83.2365 112.987 83.5246 112.91C83.8126 112.832 84.1189 112.862 84.3867 112.993C85.1878 113.292 86.0386 113.434 86.8933 113.413C87.0564 113.423 87.2103 113.492 87.3259 113.607C87.4414 113.723 87.5105 113.877 87.52 114.04V117.8C87.5105 117.963 87.4414 118.117 87.3259 118.233C87.2103 118.348 87.0564 118.417 86.8933 118.427C83.1163 118.277 79.5347 116.708 76.8631 114.034C74.1915 111.36 72.6263 107.777 72.48 104C72.4926 103.839 72.5631 103.689 72.6783 103.576C72.7935 103.463 72.9457 103.396 73.1067 103.387H73.1333Z" stroke="white" stroke-width="1.5" stroke-linecap="round" stroke-linejoin="round"/>
<g clip-path="url(#clip0_0_1)">
<path d="M47.9998 97.6667C45.51 97.6694 43.0637 98.32 40.9015 99.5545C38.7393 100.789 36.9357 102.565 35.6678 104.708C34.4 106.851 33.7117 109.287 33.6705 111.776C33.6294 114.266 34.2368 116.723 35.4332 118.907L33.6665 126.333L41.0932 124.567C43.0087 125.617 45.139 126.216 47.3215 126.318C49.5039 126.419 51.6806 126.02 53.6853 125.152C55.69 124.283 57.4696 122.968 58.8882 121.306C60.3067 119.645 61.3266 117.681 61.8699 115.565C62.4132 113.448 62.4656 111.236 62.0231 109.097C61.5805 106.957 60.6547 104.947 59.3164 103.22C57.9781 101.493 56.2627 100.095 54.3014 99.1326C52.34 98.1701 50.1846 97.6687 47.9998 97.6667ZM40.8332 104.18H44.7398C44.9166 104.18 45.0862 104.25 45.2112 104.375C45.3363 104.5 45.4065 104.67 45.4065 104.847C45.3846 105.736 45.534 106.621 45.8465 107.453C45.9811 107.732 46.0107 108.05 45.9298 108.349C45.849 108.648 45.6632 108.907 45.4065 109.08L44.0398 110.413C44.6458 111.597 45.4381 112.675 46.3865 113.607C47.3107 114.57 48.3846 115.379 49.5665 116L50.8998 114.633C51.5665 113.967 51.8732 113.967 52.5265 114.193C53.3591 114.506 54.2441 114.655 55.1332 114.633C55.3074 114.641 55.4723 114.714 55.5956 114.838C55.7189 114.961 55.7917 115.126 55.7998 115.3V119.207C55.7917 119.381 55.7189 119.546 55.5956 119.669C55.4723 119.792 55.3074 119.865 55.1332 119.873C51.2116 119.702 47.4943 118.077 44.7065 115.313C41.9388 112.529 40.3123 108.809 40.1465 104.887C40.1481 104.703 40.2203 104.527 40.3482 104.396C40.4761 104.264 40.6498 104.187 40.8332 104.18Z" stroke="white" stroke-width="1.5" stroke-linecap="round" stroke-linejoin="round"/>
</g>
<path d="M12 124.667L16.6667 118.667L24 124.667L29.3333 99.3333L2.66667 110.667L8.66667 114M12 124.667L13.3333 116L24 105.333L8.66667 114M12 124.667L8.66667 114" stroke="white" stroke-width="1.5"/>
<path d="M70 131C69.8332 130.996 69.6673 131.026 69.5122 131.088C69.357 131.149 69.2157 131.241 69.0965 131.358C68.9772 131.474 68.8825 131.614 68.8179 131.767C68.7532 131.921 68.72 132.086 68.72 132.253V152.3C68.72 152.467 68.7532 152.632 68.8179 152.786C68.8825 152.94 68.9772 153.079 69.0965 153.196C69.2157 153.313 69.357 153.404 69.5122 153.466C69.6673 153.527 69.8332 153.557 70 153.553H71.2533V157L78.1467 153.553H90C90.3324 153.553 90.6512 153.421 90.8862 153.186C91.1213 152.951 91.2533 152.632 91.2533 152.3V132.253C91.2533 131.921 91.1213 131.602 90.8862 131.367C90.6512 131.132 90.3324 131 90 131H70ZM73.1333 135.387H76.8667C77.0298 135.396 77.1837 135.465 77.2992 135.581C77.4147 135.696 77.4838 135.85 77.4933 136.013C77.4723 136.868 77.6148 137.719 77.9133 138.52C78.0446 138.788 78.0743 139.094 77.9971 139.382C77.9199 139.67 77.7409 139.92 77.4933 140.087L76.16 141.42C76.7426 142.556 77.5034 143.591 78.4133 144.487C79.3174 145.391 80.3537 146.153 81.4867 146.747L82.82 145.413C82.9862 145.166 83.2365 144.987 83.5246 144.91C83.8126 144.832 84.1189 144.862 84.3867 144.993C85.1878 145.292 86.0386 145.434 86.8933 145.413C87.0564 145.423 87.2103 145.492 87.3259 145.607C87.4414 145.723 87.5105 145.877 87.52 146.04V149.8C87.5105 149.963 87.4414 150.117 87.3259 150.233C87.2103 150.348 87.0564 150.417 86.8933 150.427C83.1163 150.277 79.5347 148.708 76.8631 146.034C74.1915 143.36 72.6263 139.777 72.48 136C72.4926 135.839 72.5631 135.689 72.6783 135.576C72.7935 135.463 72.9457 135.396 73.1067 135.387H73.1333Z" stroke="#689901" stroke-width="1.5" stroke-linecap="round" stroke-linejoin="round"/>
<g clip-path="url(#clip1_0_1)">
<path d="M47.9998 129.667C45.51 129.669 43.0637 130.32 40.9015 131.555C38.7393 132.789 36.9357 134.565 35.6678 136.708C34.4 138.851 33.7117 141.287 33.6705 143.776C33.6294 146.266 34.2368 148.723 35.4332 150.907L33.6665 158.333L41.0932 156.567C43.0087 157.617 45.139 158.216 47.3215 158.318C49.5039 158.419 51.6806 158.02 53.6853 157.152C55.69 156.283 57.4696 154.968 58.8882 153.306C60.3067 151.645 61.3266 149.681 61.8699 147.565C62.4132 145.448 62.4656 143.236 62.0231 141.097C61.5805 138.957 60.6547 136.947 59.3164 135.22C57.9781 133.493 56.2627 132.095 54.3014 131.133C52.34 130.17 50.1846 129.669 47.9998 129.667ZM40.8332 136.18H44.7398C44.9166 136.18 45.0862 136.25 45.2112 136.375C45.3363 136.5 45.4065 136.67 45.4065 136.847C45.3846 137.736 45.534 138.621 45.8465 139.453C45.9811 139.732 46.0107 140.05 45.9298 140.349C45.849 140.648 45.6632 140.907 45.4065 141.08L44.0398 142.413C44.6458 143.597 45.4381 144.675 46.3865 145.607C47.3107 146.57 48.3846 147.379 49.5665 148L50.8998 146.633C51.5665 145.967 51.8732 145.967 52.5265 146.193C53.3591 146.506 54.2441 146.655 55.1332 146.633C55.3074 146.641 55.4723 146.714 55.5956 146.838C55.7189 146.961 55.7917 147.126 55.7998 147.3V151.207C55.7917 151.381 55.7189 151.546 55.5956 151.669C55.4723 151.792 55.3074 151.865 55.1332 151.873C51.2116 151.702 47.4943 150.077 44.7065 147.313C41.9388 144.529 40.3123 140.809 40.1465 136.887C40.1481 136.703 40.2203 136.527 40.3482 136.396C40.4761 136.264 40.6498 136.187 40.8332 136.18Z" stroke="#689901" stroke-width="1.5" stroke-linecap="round" stroke-linejoin="round"/>
</g>
<path d="M12 156.667L16.6667 150.667L24 156.667L29.3333 131.333L2.66667 142.667L8.66667 146M12 156.667L13.3333 148L24 137.333L8.66667 146M12 156.667L8.66667 146" stroke="#689901" stroke-width="1.5"/>
<path d="M70 163C69.8332 162.996 69.6673 163.026 69.5122 163.088C69.357 163.149 69.2157 163.241 69.0965 163.358C68.9772 163.474 68.8825 163.614 68.8179 163.767C68.7532 163.921 68.72 164.086 68.72 164.253V184.3C68.72 184.467 68.7532 184.632 68.8179 184.786C68.8825 184.94 68.9772 185.079 69.0965 185.196C69.2157 185.313 69.357 185.404 69.5122 185.466C69.6673 185.527 69.8332 185.557 70 185.553H71.2533V189L78.1467 185.553H90C90.3324 185.553 90.6512 185.421 90.8862 185.186C91.1213 184.951 91.2533 184.632 91.2533 184.3V164.253C91.2533 163.921 91.1213 163.602 90.8862 163.367C90.6512 163.132 90.3324 163 90 163H70ZM73.1333 167.387H76.8667C77.0298 167.396 77.1837 167.465 77.2992 167.581C77.4147 167.696 77.4838 167.85 77.4933 168.013C77.4723 168.868 77.6148 169.719 77.9133 170.52C78.0446 170.788 78.0743 171.094 77.9971 171.382C77.9199 171.67 77.7409 171.92 77.4933 172.087L76.16 173.42C76.7426 174.556 77.5034 175.591 78.4133 176.487C79.3174 177.391 80.3537 178.153 81.4867 178.747L82.82 177.413C82.9862 177.166 83.2365 176.987 83.5246 176.91C83.8126 176.832 84.1189 176.862 84.3867 176.993C85.1878 177.292 86.0386 177.434 86.8933 177.413C87.0564 177.423 87.2103 177.492 87.3259 177.607C87.4414 177.723 87.5105 177.877 87.52 178.04V181.8C87.5105 181.963 87.4414 182.117 87.3259 182.233C87.2103 182.348 87.0564 182.417 86.8933 182.427C83.1163 182.277 79.5347 180.708 76.8631 178.034C74.1915 175.36 72.6263 171.777 72.48 168C72.4926 167.839 72.5631 167.689 72.6783 167.576C72.7935 167.463 72.9457 167.396 73.1067 167.387H73.1333Z" stroke="#FFCE33" stroke-width="1.5" stroke-linecap="round" stroke-linejoin="round"/>
<g clip-path="url(#clip2_0_1)">
<path d="M47.9998 161.667C45.51 161.669 43.0637 162.32 40.9015 163.555C38.7393 164.789 36.9357 166.565 35.6678 168.708C34.4 170.851 33.7117 173.287 33.6705 175.776C33.6294 178.266 34.2368 180.723 35.4332 182.907L33.6665 190.333L41.0932 188.567C43.0087 189.617 45.139 190.216 47.3215 190.318C49.5039 190.419 51.6806 190.02 53.6853 189.152C55.69 188.283 57.4696 186.968 58.8882 185.306C60.3067 183.645 61.3266 181.681 61.8699 179.565C62.4132 177.448 62.4656 175.236 62.0231 173.097C61.5805 170.957 60.6547 168.947 59.3164 167.22C57.9781 165.493 56.2627 164.095 54.3014 163.133C52.34 162.17 50.1846 161.669 47.9998 161.667ZM40.8332 168.18H44.7398C44.9166 168.18 45.0862 168.25 45.2112 168.375C45.3363 168.5 45.4065 168.67 45.4065 168.847C45.3846 169.736 45.534 170.621 45.8465 171.453C45.9811 171.732 46.0107 172.05 45.9298 172.349C45.849 172.648 45.6632 172.907 45.4065 173.08L44.0398 174.413C44.6458 175.597 45.4381 176.675 46.3865 177.607C47.3107 178.57 48.3846 179.379 49.5665 180L50.8998 178.633C51.5665 177.967 51.8732 177.967 52.5265 178.193C53.3591 178.506 54.2441 178.655 55.1332 178.633C55.3074 178.641 55.4723 178.714 55.5956 178.838C55.7189 178.961 55.7917 179.126 55.7998 179.3V183.207C55.7917 183.381 55.7189 183.546 55.5956 183.669C55.4723 183.792 55.3074 183.865 55.1332 183.873C51.2116 183.702 47.4943 182.077 44.7065 179.313C41.9388 176.529 40.3123 172.809 40.1465 168.887C40.1481 168.703 40.2203 168.527 40.3482 168.396C40.4761 168.264 40.6498 168.187 40.8332 168.18Z" stroke="#FFCE33" stroke-width="1.5" stroke-linecap="round" stroke-linejoin="round"/>
</g>
<path d="M12 188.667L16.6667 182.667L24 188.667L29.3333 163.333L2.66667 174.667L8.66667 178M12 188.667L13.3333 180L24 169.333L8.66667 178M12 188.667L8.66667 178" stroke="#FFCE33" stroke-width="1.5"/>
<g clip-path="url(#clip3_0_1)">
<path d="M32.6829 15.8085C32.6821 18.4971 33.3901 21.1224 34.7364 23.4363L32.5541 31.3423L40.7081 29.2208C42.9634 30.4391 45.4903 31.0774 48.0581 31.0776H48.0649C56.5417 31.0776 63.4421 24.2332 63.4457 15.8205C63.4474 11.744 61.8489 7.9107 58.9446 5.02673C56.0409 2.14301 52.179 0.554046 48.0642 0.552185C39.5864 0.552185 32.6865 7.39622 32.683 15.8085" fill="#689901"/>
<path d="M44.0848 9.19665C43.7865 8.53891 43.4726 8.52564 43.189 8.5141C42.9568 8.50418 42.6913 8.50493 42.426 8.50493C42.1605 8.50493 41.7291 8.60403 41.3645 8.99907C40.9995 9.39448 39.971 10.35 39.971 12.2935C39.971 14.237 41.3976 16.1152 41.5965 16.379C41.7956 16.6424 44.3506 20.7582 48.3971 22.3416C51.7601 23.6574 52.4445 23.3957 53.1744 23.3297C53.9044 23.264 55.5299 22.3744 55.8615 21.452C56.1934 20.5297 56.1934 19.7392 56.0939 19.5739C55.9944 19.4094 55.7289 19.3105 55.3307 19.113C54.9325 18.9155 52.9752 17.9598 52.6104 17.828C52.2454 17.6962 51.98 17.6305 51.7145 18.026C51.449 18.421 50.6866 19.3105 50.4543 19.5739C50.2221 19.838 49.9897 19.8709 49.5917 19.6733C49.1934 19.4751 47.9113 19.0585 46.3901 17.7129C45.2066 16.6658 44.4076 15.3728 44.1754 14.9772C43.9431 14.5823 44.1505 14.3682 44.3501 14.1714C44.529 13.9944 44.7484 13.7101 44.9476 13.4796C45.1461 13.2489 45.2124 13.0843 45.3451 12.8208C45.478 12.5571 45.4115 12.3264 45.3121 12.1289C45.2124 11.9313 44.4388 9.97767 44.0848 9.19665Z" fill="white"/>
</g>
<rect x="70" y="5" width="20" height="19" fill="white"/>
<path fill-rule="evenodd" clip-rule="evenodd" d="M86.9472 1.61877C82.2729 0.573896 77.4255 0.573896 72.7512 1.61877L72.2475 1.7302C70.9327 2.02416 69.7251 2.67687 68.7589 3.61581C67.7927 4.55476 67.1057 5.74318 66.7742 7.04905C65.5893 11.7179 65.5893 16.6088 66.7742 21.2777C67.0903 22.5232 67.7301 23.6629 68.6287 24.5813C69.5273 25.4997 70.6527 26.1642 71.891 26.5075L72.5818 30.6318C72.6039 30.7628 72.6606 30.8854 72.7462 30.987C72.8318 31.0886 72.943 31.1654 73.0683 31.2094C73.1936 31.2533 73.3284 31.2629 73.4587 31.2371C73.589 31.2113 73.7099 31.1511 73.809 31.0627L77.8665 27.4331C80.9124 27.6189 83.9692 27.3754 86.9472 26.7095L87.4523 26.5981C88.7672 26.3041 89.9748 25.6514 90.941 24.7125C91.9072 23.7735 92.5942 22.5851 92.9257 21.2792C94.1104 16.6103 94.1104 11.7194 92.9257 7.05054C92.5941 5.74447 91.9069 4.55592 90.9404 3.61696C89.9739 2.678 88.766 2.0254 87.4509 1.73168L86.9472 1.61877ZM74.0051 6.92871C73.729 6.88852 73.4475 6.9441 73.2073 7.0862H73.1865C72.6294 7.41305 72.1272 7.8246 71.6993 8.30894C71.3427 8.72048 71.1496 9.13648 71.0991 9.53763C71.0694 9.77534 71.0902 10.016 71.16 10.2433L71.1867 10.2582C71.5879 11.4364 72.1109 12.57 72.7497 13.6367C73.5735 15.135 74.5872 16.5208 75.7657 17.7596L75.8014 17.8101L75.8578 17.8517L75.892 17.8918L75.9336 17.9275C77.1767 19.1095 78.5657 20.1281 80.0669 20.9583C81.7829 21.8928 82.8243 22.3341 83.4498 22.5183V22.5272C83.6326 22.5837 83.799 22.6089 83.9669 22.6089C84.4995 22.5696 85.0037 22.353 85.3991 21.9939C85.8819 21.566 86.2905 21.0623 86.6085 20.5022V20.4918C86.9071 19.9272 86.8061 19.3953 86.3752 19.0343C85.5098 18.2781 84.5739 17.6065 83.5806 17.0286C82.915 16.6676 82.239 16.886 81.9656 17.2515L81.3817 17.9884C81.0816 18.3539 80.5378 18.3033 80.5378 18.3033L80.523 18.3123C76.4655 17.2767 75.3824 13.1687 75.3824 13.1687C75.3824 13.1687 75.3319 12.6101 75.7078 12.3248L76.4387 11.7365C76.7894 11.4512 77.033 10.7767 76.6571 10.1111C76.0831 9.11681 75.4128 8.18128 74.6559 7.31797C74.4908 7.11479 74.2593 6.97641 74.0022 6.92723L74.0051 6.92871ZM80.8602 5.14288C80.6632 5.14288 80.4743 5.22115 80.3349 5.36046C80.1956 5.49977 80.1174 5.68872 80.1174 5.88574C80.1174 6.08276 80.1956 6.27171 80.3349 6.41102C80.4743 6.55033 80.6632 6.6286 80.8602 6.6286C82.7397 6.6286 84.2997 7.2422 85.5343 8.41888C86.1687 9.0622 86.6634 9.82437 86.9873 10.6593C87.3127 11.4958 87.4613 12.3887 87.4226 13.2831C87.4185 13.3807 87.4337 13.4781 87.4672 13.5698C87.5008 13.6615 87.5521 13.7456 87.6181 13.8175C87.7516 13.9627 87.9373 14.0489 88.1343 14.0572C88.3313 14.0654 88.5235 13.9951 88.6687 13.8617C88.8139 13.7282 88.9001 13.5425 88.9083 13.3455C88.9544 12.2453 88.7718 11.1475 88.372 10.1215C87.9705 9.09063 87.3616 8.15312 86.5832 7.367L86.5683 7.35214C85.0366 5.88871 83.0977 5.14288 80.8602 5.14288ZM80.8097 7.5854C80.6127 7.5854 80.4237 7.66366 80.2844 7.80297C80.1451 7.94229 80.0669 8.13124 80.0669 8.32825C80.0669 8.52527 80.1451 8.71422 80.2844 8.85353C80.4237 8.99285 80.6127 9.07111 80.8097 9.07111H80.835C82.1899 9.16768 83.1765 9.61934 83.8673 10.3607C84.576 11.1244 84.943 12.0737 84.9147 13.2475C84.9102 13.4445 84.9841 13.6352 85.1202 13.7777C85.2563 13.9203 85.4435 14.0029 85.6405 14.0074C85.8375 14.0119 86.0283 13.938 86.1708 13.8019C86.3133 13.6658 86.3959 13.4786 86.4005 13.2816C86.4361 11.7409 85.9399 10.4112 84.9563 9.35042V9.34745C83.9505 8.26882 82.5703 7.69831 80.9093 7.58688L80.884 7.58391L80.8097 7.5854ZM80.7815 10.074C80.6821 10.0652 80.5819 10.0765 80.487 10.1073C80.392 10.1381 80.3043 10.1877 80.229 10.2532C80.1536 10.3187 80.0922 10.3986 80.0485 10.4883C80.0048 10.578 79.9795 10.6756 79.9743 10.7753C79.9691 10.875 79.9841 10.9747 80.0183 11.0684C80.0525 11.1622 80.1052 11.2481 80.1733 11.321C80.2414 11.394 80.3236 11.4524 80.4148 11.4929C80.506 11.5334 80.6044 11.5551 80.7042 11.5567C81.3253 11.5894 81.7219 11.7766 81.9715 12.0277C82.2226 12.2803 82.4098 12.6859 82.444 13.3203C82.4458 13.4199 82.4678 13.5182 82.5084 13.6093C82.549 13.7003 82.6076 13.7823 82.6806 13.8502C82.7536 13.9181 82.8395 13.9707 82.9332 14.0047C83.0269 14.0387 83.1266 14.0535 83.2261 14.0483C83.3257 14.043 83.4232 14.0177 83.5128 13.9739C83.6024 13.9302 83.6822 13.8688 83.7476 13.7935C83.813 13.7183 83.8625 13.6306 83.8933 13.5357C83.9241 13.4409 83.9355 13.3408 83.9267 13.2415C83.8792 12.3501 83.5999 11.5627 83.0279 10.9832C82.4529 10.4038 81.6699 10.1215 80.7815 10.074Z" fill="#3C0092"/>
<path d="M16 1C12.0227 1 8.20469 2.58133 5.39453 5.39336C2.58148 8.20651 1.00078 12.0217 1 16C1 19.9766 2.58203 23.7946 5.39453 26.6066C8.20469 29.4187 12.0227 31 16 31C19.9773 31 23.7953 29.4187 26.6055 26.6066C29.418 23.7946 31 19.9766 31 16C31 12.0234 29.418 8.20539 26.6055 5.39336C23.7953 2.58133 19.9773 1 16 1Z" fill="url(#paint0_linear_0_1)"/>
<path d="M7.09976 16.027C11.3955 14.0514 14.2594 12.7489 15.6913 12.1196C19.7845 10.3227 20.634 10.0107 21.1888 10.0001C21.3108 9.99803 21.5825 10.0299 21.7597 10.1812C21.9071 10.3088 21.9485 10.4813 21.9692 10.6025C21.9876 10.7235 22.013 10.9994 21.9922 11.2148C21.7712 13.6745 20.8112 19.6434 20.3232 22.3984C20.1183 23.5641 19.7108 23.9549 19.3172 23.9931C18.4608 24.0762 17.8116 23.3961 16.9828 22.8228C15.6867 21.9252 14.9546 21.3666 13.6954 20.4909C12.2404 19.4788 13.1843 18.9225 14.0131 18.0135C14.2295 17.7755 18.0003 14.1552 18.0717 13.8269C18.0809 13.7858 18.0901 13.6327 18.0026 13.552C17.9175 13.471 17.7909 13.4987 17.6988 13.5206C17.5675 13.5517 15.4979 14.9974 11.483 17.8574C10.896 18.2837 10.3642 18.4915 9.88534 18.4806C9.36045 18.4687 8.34751 18.1666 7.59472 17.9085C6.67386 17.5918 5.93948 17.4243 6.00394 16.8864C6.03617 16.6064 6.40221 16.3199 7.09976 16.027Z" fill="white"/>
<g clip-path="url(#clip4_0_1)">
<path d="M32.6829 47.8085C32.6821 50.4971 33.3901 53.1224 34.7364 55.4363L32.5541 63.3423L40.7081 61.2208C42.9634 62.4391 45.4903 63.0774 48.0581 63.0776H48.0649C56.5417 63.0776 63.4421 56.2332 63.4457 47.8205C63.4474 43.744 61.8489 39.9107 58.9446 37.0267C56.0409 34.143 52.179 32.554 48.0642 32.5522C39.5864 32.5522 32.6865 39.3962 32.683 47.8085" fill="#689901"/>
<path d="M44.0848 41.1966C43.7865 40.5389 43.4726 40.5256 43.189 40.5141C42.9568 40.5042 42.6913 40.5049 42.426 40.5049C42.1605 40.5049 41.7291 40.604 41.3645 40.9991C40.9995 41.3945 39.971 42.35 39.971 44.2935C39.971 46.237 41.3976 48.1152 41.5965 48.379C41.7956 48.6424 44.3506 52.7582 48.3971 54.3416C51.7601 55.6574 52.4445 55.3957 53.1744 55.3297C53.9044 55.264 55.5299 54.3744 55.8615 53.452C56.1934 52.5297 56.1934 51.7392 56.0939 51.5739C55.9944 51.4094 55.7289 51.3105 55.3307 51.113C54.9325 50.9155 52.9752 49.9598 52.6104 49.828C52.2454 49.6962 51.98 49.6305 51.7145 50.026C51.449 50.421 50.6866 51.3105 50.4543 51.5739C50.2221 51.838 49.9897 51.8709 49.5917 51.6733C49.1934 51.4751 47.9113 51.0585 46.3901 49.7129C45.2066 48.6658 44.4076 47.3728 44.1754 46.9772C43.9431 46.5823 44.1505 46.3682 44.3501 46.1714C44.529 45.9944 44.7484 45.7101 44.9476 45.4796C45.1461 45.2489 45.2124 45.0843 45.3451 44.8208C45.478 44.5571 45.4115 44.3264 45.3121 44.1289C45.2124 43.9313 44.4388 41.9777 44.0848 41.1966Z" fill="white"/>
</g>
<rect x="70" y="37" width="20" height="19" fill="white"/>
<path fill-rule="evenodd" clip-rule="evenodd" d="M86.9472 33.6188C82.2729 32.5739 77.4255 32.5739 72.7512 33.6188L72.2475 33.7302C70.9327 34.0242 69.7251 34.6769 68.7589 35.6158C67.7927 36.5548 67.1057 37.7432 66.7742 39.0491C65.5893 43.7179 65.5893 48.6088 66.7742 53.2777C67.0903 54.5232 67.7301 55.6629 68.6287 56.5813C69.5273 57.4997 70.6527 58.1642 71.891 58.5075L72.5818 62.6318C72.6039 62.7628 72.6606 62.8854 72.7462 62.987C72.8318 63.0886 72.943 63.1654 73.0683 63.2094C73.1936 63.2533 73.3284 63.2629 73.4587 63.2371C73.589 63.2113 73.7099 63.1511 73.809 63.0627L77.8665 59.4331C80.9124 59.6189 83.9692 59.3754 86.9472 58.7095L87.4523 58.5981C88.7672 58.3041 89.9748 57.6514 90.941 56.7125C91.9072 55.7735 92.5942 54.5851 92.9257 53.2792C94.1104 48.6103 94.1104 43.7194 92.9257 39.0505C92.5941 37.7445 91.9069 36.5559 90.9404 35.617C89.9739 34.678 88.766 34.0254 87.4509 33.7317L86.9472 33.6188ZM74.0051 38.9287C73.729 38.8885 73.4475 38.9441 73.2073 39.0862H73.1865C72.6294 39.4131 72.1272 39.8246 71.6993 40.3089C71.3427 40.7205 71.1496 41.1365 71.0991 41.5376C71.0694 41.7753 71.0902 42.016 71.16 42.2433L71.1867 42.2582C71.5879 43.4364 72.1109 44.57 72.7497 45.6367C73.5735 47.135 74.5872 48.5208 75.7657 49.7596L75.8014 49.8101L75.8578 49.8517L75.892 49.8918L75.9336 49.9275C77.1767 51.1095 78.5657 52.1281 80.0669 52.9583C81.7829 53.8928 82.8243 54.3341 83.4498 54.5183V54.5272C83.6326 54.5837 83.799 54.6089 83.9669 54.6089C84.4995 54.5696 85.0037 54.353 85.3991 53.9939C85.8819 53.566 86.2905 53.0623 86.6085 52.5022V52.4918C86.9071 51.9272 86.8061 51.3953 86.3752 51.0343C85.5098 50.2781 84.5739 49.6065 83.5806 49.0286C82.915 48.6676 82.239 48.886 81.9656 49.2515L81.3817 49.9884C81.0816 50.3539 80.5378 50.3033 80.5378 50.3033L80.523 50.3123C76.4655 49.2767 75.3824 45.1687 75.3824 45.1687C75.3824 45.1687 75.3319 44.6101 75.7078 44.3248L76.4387 43.7365C76.7894 43.4512 77.033 42.7767 76.6571 42.1111C76.0831 41.1168 75.4128 40.1813 74.6559 39.318C74.4908 39.1148 74.2593 38.9764 74.0022 38.9272L74.0051 38.9287ZM80.8602 37.1429C80.6632 37.1429 80.4743 37.2211 80.3349 37.3605C80.1956 37.4998 80.1174 37.6887 80.1174 37.8857C80.1174 38.0828 80.1956 38.2717 80.3349 38.411C80.4743 38.5503 80.6632 38.6286 80.8602 38.6286C82.7397 38.6286 84.2997 39.2422 85.5343 40.4189C86.1687 41.0622 86.6634 41.8244 86.9873 42.6593C87.3127 43.4958 87.4613 44.3887 87.4226 45.2831C87.4185 45.3807 87.4337 45.4781 87.4672 45.5698C87.5008 45.6615 87.5521 45.7456 87.6181 45.8175C87.7516 45.9627 87.9373 46.0489 88.1343 46.0572C88.3313 46.0654 88.5235 45.9951 88.6687 45.8617C88.8139 45.7282 88.9001 45.5425 88.9083 45.3455C88.9544 44.2453 88.7718 43.1475 88.372 42.1215C87.9705 41.0906 87.3616 40.1531 86.5832 39.367L86.5683 39.3521C85.0366 37.8887 83.0977 37.1429 80.8602 37.1429ZM80.8097 39.5854C80.6127 39.5854 80.4237 39.6637 80.2844 39.803C80.1451 39.9423 80.0669 40.1312 80.0669 40.3283C80.0669 40.5253 80.1451 40.7142 80.2844 40.8535C80.4237 40.9928 80.6127 41.0711 80.8097 41.0711H80.835C82.1899 41.1677 83.1765 41.6193 83.8673 42.3607C84.576 43.1244 84.943 44.0737 84.9147 45.2475C84.9102 45.4445 84.9841 45.6352 85.1202 45.7777C85.2563 45.9203 85.4435 46.0029 85.6405 46.0074C85.8375 46.0119 86.0283 45.938 86.1708 45.8019C86.3133 45.6658 86.3959 45.4786 86.4005 45.2816C86.4361 43.7409 85.9399 42.4112 84.9563 41.3504V41.3475C83.9505 40.2688 82.5703 39.6983 80.9093 39.5869L80.884 39.5839L80.8097 39.5854ZM80.7815 42.074C80.6821 42.0652 80.5819 42.0765 80.487 42.1073C80.392 42.1381 80.3043 42.1877 80.229 42.2532C80.1536 42.3187 80.0922 42.3986 80.0485 42.4883C80.0048 42.578 79.9795 42.6756 79.9743 42.7753C79.9691 42.875 79.9841 42.9747 80.0183 43.0684C80.0525 43.1622 80.1052 43.2481 80.1733 43.321C80.2414 43.394 80.3236 43.4524 80.4148 43.4929C80.506 43.5334 80.6044 43.5551 80.7042 43.5567C81.3253 43.5894 81.7219 43.7766 81.9715 44.0277C82.2226 44.2803 82.4098 44.6859 82.444 45.3203C82.4458 45.4199 82.4678 45.5182 82.5084 45.6093C82.549 45.7003 82.6076 45.7823 82.6806 45.8502C82.7536 45.9181 82.8395 45.9707 82.9332 46.0047C83.0269 46.0387 83.1266 46.0535 83.2261 46.0483C83.3257 46.043 83.4232 46.0177 83.5128 45.9739C83.6024 45.9302 83.6822 45.8688 83.7476 45.7935C83.813 45.7183 83.8625 45.6306 83.8933 45.5357C83.9241 45.4409 83.9355 45.3408 83.9267 45.2415C83.8792 44.3501 83.5999 43.5627 83.0279 42.9832C82.4529 42.4038 81.6699 42.1215 80.7815 42.074Z" fill="#689901"/>
<path d="M16 33C12.0227 33 8.20469 34.5813 5.39453 37.3934C2.58148 40.2065 1.00078 44.0217 1 48C1 51.9766 2.58203 55.7946 5.39453 58.6066C8.20469 61.4187 12.0227 63 16 63C19.9773 63 23.7953 61.4187 26.6055 58.6066C29.418 55.7946 31 51.9766 31 48C31 44.0234 29.418 40.2054 26.6055 37.3934C23.7953 34.5813 19.9773 33 16 33Z" fill="url(#paint1_linear_0_1)"/>
<path d="M7.09976 48.027C11.3955 46.0514 14.2594 44.7489 15.6913 44.1196C19.7845 42.3227 20.634 42.0107 21.1888 42.0001C21.3108 41.998 21.5825 42.0299 21.7597 42.1812C21.9071 42.3088 21.9485 42.4813 21.9692 42.6025C21.9876 42.7235 22.013 42.9994 21.9922 43.2148C21.7712 45.6745 20.8112 51.6434 20.3232 54.3984C20.1183 55.5641 19.7108 55.9549 19.3172 55.9931C18.4608 56.0762 17.8116 55.3961 16.9828 54.8228C15.6867 53.9252 14.9546 53.3666 13.6954 52.4909C12.2404 51.4788 13.1843 50.9225 14.0131 50.0135C14.2295 49.7755 18.0003 46.1552 18.0717 45.8269C18.0809 45.7858 18.0901 45.6327 18.0026 45.552C17.9175 45.471 17.7909 45.4987 17.6988 45.5206C17.5675 45.5517 15.4979 46.9974 11.483 49.8574C10.896 50.2837 10.3642 50.4915 9.88534 50.4806C9.36045 50.4687 8.34751 50.1666 7.59472 49.9085C6.67386 49.5918 5.93948 49.4243 6.00394 48.8864C6.03617 48.6064 6.40221 48.3199 7.09976 48.027Z" fill="white"/>
<g clip-path="url(#clip5_0_1)">
<path d="M32.6829 79.8085C32.6821 82.4971 33.3901 85.1224 34.7364 87.4363L32.5541 95.3423L40.7081 93.2208C42.9634 94.4391 45.4903 95.0774 48.0581 95.0776H48.0649C56.5417 95.0776 63.4421 88.2332 63.4457 79.8205C63.4474 75.744 61.8489 71.9107 58.9446 69.0267C56.0409 66.143 52.179 64.554 48.0642 64.5522C39.5864 64.5522 32.6865 71.3962 32.683 79.8085" fill="#FFCE33"/>
<path d="M44.0848 73.1966C43.7865 72.5389 43.4726 72.5256 43.189 72.5141C42.9568 72.5042 42.6913 72.5049 42.426 72.5049C42.1605 72.5049 41.7291 72.604 41.3645 72.9991C40.9995 73.3945 39.971 74.35 39.971 76.2935C39.971 78.237 41.3976 80.1152 41.5965 80.379C41.7956 80.6424 44.3506 84.7582 48.3971 86.3416C51.7601 87.6574 52.4445 87.3957 53.1744 87.3297C53.9044 87.264 55.5299 86.3744 55.8615 85.452C56.1934 84.5297 56.1934 83.7392 56.0939 83.5739C55.9944 83.4094 55.7289 83.3105 55.3307 83.113C54.9325 82.9155 52.9752 81.9598 52.6104 81.828C52.2454 81.6962 51.98 81.6305 51.7145 82.026C51.449 82.421 50.6866 83.3105 50.4543 83.5739C50.2221 83.838 49.9897 83.8709 49.5917 83.6733C49.1934 83.4751 47.9113 83.0585 46.3901 81.7129C45.2066 80.6658 44.4076 79.3728 44.1754 78.9772C43.9431 78.5823 44.1505 78.3682 44.3501 78.1714C44.529 77.9944 44.7484 77.7101 44.9476 77.4796C45.1461 77.2489 45.2124 77.0843 45.3451 76.8208C45.478 76.5571 45.4115 76.3264 45.3121 76.1289C45.2124 75.9313 44.4388 73.9777 44.0848 73.1966Z" fill="white"/>
</g>
<rect x="70" y="69" width="20" height="19" fill="white"/>
<path fill-rule="evenodd" clip-rule="evenodd" d="M86.9472 65.6188C82.2729 64.5739 77.4255 64.5739 72.7512 65.6188L72.2475 65.7302C70.9327 66.0242 69.7251 66.6769 68.7589 67.6158C67.7927 68.5548 67.1057 69.7432 66.7742 71.0491C65.5893 75.7179 65.5893 80.6088 66.7742 85.2777C67.0903 86.5232 67.7301 87.6629 68.6287 88.5813C69.5273 89.4997 70.6527 90.1642 71.891 90.5075L72.5818 94.6318C72.6039 94.7628 72.6606 94.8854 72.7462 94.987C72.8318 95.0886 72.943 95.1654 73.0683 95.2094C73.1936 95.2533 73.3284 95.2629 73.4587 95.2371C73.589 95.2113 73.7099 95.1511 73.809 95.0627L77.8665 91.4331C80.9124 91.6189 83.9692 91.3754 86.9472 90.7095L87.4523 90.5981C88.7672 90.3041 89.9748 89.6514 90.941 88.7125C91.9072 87.7735 92.5942 86.5851 92.9257 85.2792C94.1104 80.6103 94.1104 75.7194 92.9257 71.0505C92.5941 69.7445 91.9069 68.5559 90.9404 67.617C89.9739 66.678 88.766 66.0254 87.4509 65.7317L86.9472 65.6188ZM74.0051 70.9287C73.729 70.8885 73.4475 70.9441 73.2073 71.0862H73.1865C72.6294 71.4131 72.1272 71.8246 71.6993 72.3089C71.3427 72.7205 71.1496 73.1365 71.0991 73.5376C71.0694 73.7753 71.0902 74.016 71.16 74.2433L71.1867 74.2582C71.5879 75.4364 72.1109 76.57 72.7497 77.6367C73.5735 79.135 74.5872 80.5208 75.7657 81.7596L75.8014 81.8101L75.8578 81.8517L75.892 81.8918L75.9336 81.9275C77.1767 83.1095 78.5657 84.1281 80.0669 84.9583C81.7829 85.8928 82.8243 86.3341 83.4498 86.5183V86.5272C83.6326 86.5837 83.799 86.6089 83.9669 86.6089C84.4995 86.5696 85.0037 86.353 85.3991 85.9939C85.8819 85.566 86.2905 85.0623 86.6085 84.5022V84.4918C86.9071 83.9272 86.8061 83.3953 86.3752 83.0343C85.5098 82.2781 84.5739 81.6065 83.5806 81.0286C82.915 80.6676 82.239 80.886 81.9656 81.2515L81.3817 81.9884C81.0816 82.3539 80.5378 82.3033 80.5378 82.3033L80.523 82.3123C76.4655 81.2767 75.3824 77.1687 75.3824 77.1687C75.3824 77.1687 75.3319 76.6101 75.7078 76.3248L76.4387 75.7365C76.7894 75.4512 77.033 74.7767 76.6571 74.1111C76.0831 73.1168 75.4128 72.1813 74.6559 71.318C74.4908 71.1148 74.2593 70.9764 74.0022 70.9272L74.0051 70.9287ZM80.8602 69.1429C80.6632 69.1429 80.4743 69.2211 80.3349 69.3605C80.1956 69.4998 80.1174 69.6887 80.1174 69.8857C80.1174 70.0828 80.1956 70.2717 80.3349 70.411C80.4743 70.5503 80.6632 70.6286 80.8602 70.6286C82.7397 70.6286 84.2997 71.2422 85.5343 72.4189C86.1687 73.0622 86.6634 73.8244 86.9873 74.6593C87.3127 75.4958 87.4613 76.3887 87.4226 77.2831C87.4185 77.3807 87.4337 77.4781 87.4672 77.5698C87.5008 77.6615 87.5521 77.7456 87.6181 77.8175C87.7516 77.9627 87.9373 78.0489 88.1343 78.0572C88.3313 78.0654 88.5235 77.9951 88.6687 77.8617C88.8139 77.7282 88.9001 77.5425 88.9083 77.3455C88.9544 76.2453 88.7718 75.1475 88.372 74.1215C87.9705 73.0906 87.3616 72.1531 86.5832 71.367L86.5683 71.3521C85.0366 69.8887 83.0977 69.1429 80.8602 69.1429ZM80.8097 71.5854C80.6127 71.5854 80.4237 71.6637 80.2844 71.803C80.1451 71.9423 80.0669 72.1312 80.0669 72.3283C80.0669 72.5253 80.1451 72.7142 80.2844 72.8535C80.4237 72.9928 80.6127 73.0711 80.8097 73.0711H80.835C82.1899 73.1677 83.1765 73.6193 83.8673 74.3607C84.576 75.1244 84.943 76.0737 84.9147 77.2475C84.9102 77.4445 84.9841 77.6352 85.1202 77.7777C85.2563 77.9203 85.4435 78.0029 85.6405 78.0074C85.8375 78.0119 86.0283 77.938 86.1708 77.8019C86.3133 77.6658 86.3959 77.4786 86.4005 77.2816C86.4361 75.7409 85.9399 74.4112 84.9563 73.3504V73.3475C83.9505 72.2688 82.5703 71.6983 80.9093 71.5869L80.884 71.5839L80.8097 71.5854ZM80.7815 74.074C80.6821 74.0652 80.5819 74.0765 80.487 74.1073C80.392 74.1381 80.3043 74.1877 80.229 74.2532C80.1536 74.3187 80.0922 74.3986 80.0485 74.4883C80.0048 74.578 79.9795 74.6756 79.9743 74.7753C79.9691 74.875 79.9841 74.9747 80.0183 75.0684C80.0525 75.1622 80.1052 75.2481 80.1733 75.321C80.2414 75.394 80.3236 75.4524 80.4148 75.4929C80.506 75.5334 80.6044 75.5551 80.7042 75.5567C81.3253 75.5894 81.7219 75.7766 81.9715 76.0277C82.2226 76.2803 82.4098 76.6859 82.444 77.3203C82.4458 77.4199 82.4678 77.5182 82.5084 77.6093C82.549 77.7003 82.6076 77.7823 82.6806 77.8502C82.7536 77.9181 82.8395 77.9707 82.9332 78.0047C83.0269 78.0387 83.1266 78.0535 83.2261 78.0483C83.3257 78.043 83.4232 78.0177 83.5128 77.9739C83.6024 77.9302 83.6822 77.8688 83.7476 77.7935C83.813 77.7183 83.8625 77.6306 83.8933 77.5357C83.9241 77.4409 83.9355 77.3408 83.9267 77.2415C83.8792 76.3501 83.5999 75.5627 83.0279 74.9832C82.4529 74.4038 81.6699 74.1215 80.7815 74.074Z" fill="#FFCE33"/>
<path d="M16 65C12.0227 65 8.20469 66.5813 5.39453 69.3934C2.58148 72.2065 1.00078 76.0217 1 80C1 83.9766 2.58203 87.7946 5.39453 90.6066C8.20469 93.4187 12.0227 95 16 95C19.9773 95 23.7953 93.4187 26.6055 90.6066C29.418 87.7946 31 83.9766 31 80C31 76.0234 29.418 72.2054 26.6055 69.3934C23.7953 66.5813 19.9773 65 16 65Z" fill="url(#paint2_linear_0_1)"/>
<path d="M7.09976 80.027C11.3955 78.0514 14.2594 76.7489 15.6913 76.1196C19.7845 74.3227 20.634 74.0107 21.1888 74.0001C21.3108 73.998 21.5825 74.0299 21.7597 74.1812C21.9071 74.3088 21.9485 74.4813 21.9692 74.6025C21.9876 74.7235 22.013 74.9994 21.9922 75.2148C21.7712 77.6745 20.8112 83.6434 20.3232 86.3984C20.1183 87.5641 19.7108 87.9549 19.3172 87.9931C18.4608 88.0762 17.8116 87.3961 16.9828 86.8228C15.6867 85.9252 14.9546 85.3666 13.6954 84.4909C12.2404 83.4788 13.1843 82.9225 14.0131 82.0135C14.2295 81.7755 18.0003 78.1552 18.0717 77.8269C18.0809 77.7858 18.0901 77.6327 18.0026 77.552C17.9175 77.471 17.7909 77.4987 17.6988 77.5206C17.5675 77.5517 15.4979 78.9974 11.483 81.8574C10.896 82.2837 10.3642 82.4915 9.88534 82.4806C9.36045 82.4687 8.34751 82.1666 7.59472 81.9085C6.67386 81.5918 5.93948 81.4243 6.00394 80.8864C6.03617 80.6064 6.40221 80.3199 7.09976 80.027Z" fill="white"/>
<defs>
<linearGradient id="paint0_linear_0_1" x1="1501" y1="1" x2="1501" y2="3001" gradientUnits="userSpaceOnUse">
<stop stop-color="#2AABEE"/>
<stop offset="1" stop-color="#229ED9"/>
</linearGradient>
<linearGradient id="paint1_linear_0_1" x1="1501" y1="33" x2="1501" y2="3033" gradientUnits="userSpaceOnUse">
<stop stop-color="#689901"/>
<stop offset="1" stop-color="#229ED9"/>
</linearGradient>
<linearGradient id="paint2_linear_0_1" x1="1501" y1="65" x2="1501" y2="3065" gradientUnits="userSpaceOnUse">
<stop stop-color="#FFCE33"/>
<stop offset="1" stop-color="#229ED9"/>
</linearGradient>
<clipPath id="clip0_0_1">
<rect width="32" height="32" fill="white" transform="translate(32 96)"/>
</clipPath>
<clipPath id="clip1_0_1">
<rect width="32" height="32" fill="white" transform="translate(32 128)"/>
</clipPath>
<clipPath id="clip2_0_1">
<rect width="32" height="32" fill="white" transform="translate(32 160)"/>
</clipPath>
<clipPath id="clip3_0_1">
<rect width="32" height="32" fill="white" transform="translate(32)"/>
</clipPath>
<clipPath id="clip4_0_1">
<rect width="32" height="32" fill="white" transform="translate(32 32)"/>
</clipPath>
<clipPath id="clip5_0_1">
<rect width="32" height="32" fill="white" transform="translate(32 64)"/>
</clipPath>
</defs>
</svg>
