<svg width="120" height="120" viewBox="0 0 120 120" fill="none" xmlns="http://www.w3.org/2000/svg">
<path d="M12.1 18.55L12 18.65L11.89 18.55C7.14 14.24 4 11.39 4 8.5C4 6.5 5.5 5 7.5 5C9.04 5 10.54 6 11.07 7.36H12.93C13.46 6 14.96 5 16.5 5C18.5 5 20 6.5 20 8.5C20 11.39 16.86 14.24 12.1 18.55ZM16.5 3C14.76 3 13.09 3.81 12 5.08C10.91 3.81 9.24 3 7.5 3C4.42 3 2 5.41 2 8.5C2 12.27 5.4 15.36 10.55 20.03L12 21.35L13.45 20.03C18.6 15.36 22 12.27 22 8.5C22 5.41 19.58 3 16.5 3Z" fill="#DEDEDE"/>
<path d="M36.1 18.55L36 18.65L35.89 18.55C31.14 14.24 28 11.39 28 8.5C28 6.5 29.5 5 31.5 5C33.04 5 34.54 6 35.07 7.36H36.93C37.46 6 38.96 5 40.5 5C42.5 5 44 6.5 44 8.5C44 11.39 40.86 14.24 36.1 18.55ZM40.5 3C38.76 3 37.09 3.81 36 5.08C34.91 3.81 33.24 3 31.5 3C28.42 3 26 5.41 26 8.5C26 12.27 29.4 15.36 34.55 20.03L36 21.35L37.45 20.03C42.6 15.36 46 12.27 46 8.5C46 5.41 43.58 3 40.5 3Z" fill="#689901"/>
<path d="M60.1 18.55L60 18.65L59.89 18.55C55.14 14.24 52 11.39 52 8.5C52 6.5 53.5 5 55.5 5C57.04 5 58.54 6 59.07 7.36H60.93C61.46 6 62.96 5 64.5 5C66.5 5 68 6.5 68 8.5C68 11.39 64.86 14.24 60.1 18.55ZM64.5 3C62.76 3 61.09 3.81 60 5.08C58.91 3.81 57.24 3 55.5 3C52.42 3 50 5.41 50 8.5C50 12.27 53.4 15.36 58.55 20.03L60 21.35L61.45 20.03C66.6 15.36 70 12.27 70 8.5C70 5.41 67.58 3 64.5 3Z" fill="white"/>
<path d="M84.1 18.55L84 18.65L83.89 18.55C79.14 14.24 76 11.39 76 8.5C76 6.5 77.5 5 79.5 5C81.04 5 82.54 6 83.07 7.36H84.93C85.46 6 86.96 5 88.5 5C90.5 5 92 6.5 92 8.5C92 11.39 88.86 14.24 84.1 18.55ZM88.5 3C86.76 3 85.09 3.81 84 5.08C82.91 3.81 81.24 3 79.5 3C76.42 3 74 5.41 74 8.5C74 12.27 77.4 15.36 82.55 20.03L84 21.35L85.45 20.03C90.6 15.36 94 12.27 94 8.5C94 5.41 91.58 3 88.5 3Z" fill="#CE2028"/>
<mask id="mask0_0_1" style="mask-type:alpha" maskUnits="userSpaceOnUse" x="0" y="24" width="24" height="24">
<rect y="24" width="24" height="24" fill="#D9D9D9"/>
</mask>
<g mask="url(#mask0_0_1)">
<path d="M12 36C12.55 36 13.021 35.804 13.413 35.412C13.8043 35.0207 14 34.55 14 34C14 33.45 13.8043 32.979 13.413 32.587C13.021 32.1957 12.55 32 12 32C11.45 32 10.9793 32.1957 10.588 32.587C10.196 32.979 10 33.45 10 34C10 34.55 10.196 35.0207 10.588 35.412C10.9793 35.804 11.45 36 12 36ZM12 43.35C14.0333 41.4833 15.5417 39.7873 16.525 38.262C17.5083 36.7373 18 35.3833 18 34.2C18 32.3833 17.4207 30.8957 16.262 29.737C15.104 28.579 13.6833 28 12 28C10.3167 28 8.89567 28.579 7.737 29.737C6.579 30.8957 6 32.3833 6 34.2C6 35.3833 6.49167 36.7373 7.475 38.262C8.45833 39.7873 9.96667 41.4833 12 43.35ZM12 46C9.31667 43.7167 7.31267 41.5957 5.988 39.637C4.66267 37.679 4 35.8667 4 34.2C4 31.7 4.80433 29.7083 6.413 28.225C8.021 26.7417 9.88333 26 12 26C14.1167 26 15.979 26.7417 17.587 28.225C19.1957 29.7083 20 31.7 20 34.2C20 35.8667 19.3377 37.679 18.013 39.637C16.6877 41.5957 14.6833 43.7167 12 46Z" fill="#DEDEDE"/>
</g>
<mask id="mask1_0_1" style="mask-type:alpha" maskUnits="userSpaceOnUse" x="24" y="24" width="24" height="24">
<rect x="24" y="24" width="24" height="24" fill="#D9D9D9"/>
</mask>
<g mask="url(#mask1_0_1)">
<path d="M36 36C36.55 36 37.021 35.804 37.413 35.412C37.8043 35.0207 38 34.55 38 34C38 33.45 37.8043 32.979 37.413 32.587C37.021 32.1957 36.55 32 36 32C35.45 32 34.9793 32.1957 34.588 32.587C34.196 32.979 34 33.45 34 34C34 34.55 34.196 35.0207 34.588 35.412C34.9793 35.804 35.45 36 36 36ZM36 43.35C38.0333 41.4833 39.5417 39.7873 40.525 38.262C41.5083 36.7373 42 35.3833 42 34.2C42 32.3833 41.4207 30.8957 40.262 29.737C39.104 28.579 37.6833 28 36 28C34.3167 28 32.8957 28.579 31.737 29.737C30.579 30.8957 30 32.3833 30 34.2C30 35.3833 30.4917 36.7373 31.475 38.262C32.4583 39.7873 33.9667 41.4833 36 43.35ZM36 46C33.3167 43.7167 31.3127 41.5957 29.988 39.637C28.6627 37.679 28 35.8667 28 34.2C28 31.7 28.8043 29.7083 30.413 28.225C32.021 26.7417 33.8833 26 36 26C38.1167 26 39.979 26.7417 41.587 28.225C43.1957 29.7083 44 31.7 44 34.2C44 35.8667 43.3377 37.679 42.013 39.637C40.6877 41.5957 38.6833 43.7167 36 46Z" fill="#689901"/>
</g>
<mask id="mask2_0_1" style="mask-type:alpha" maskUnits="userSpaceOnUse" x="48" y="24" width="24" height="24">
<rect x="48" y="24" width="24" height="24" fill="#D9D9D9"/>
</mask>
<g mask="url(#mask2_0_1)">
<path d="M60 36C60.55 36 61.021 35.804 61.413 35.412C61.8043 35.0207 62 34.55 62 34C62 33.45 61.8043 32.979 61.413 32.587C61.021 32.1957 60.55 32 60 32C59.45 32 58.9793 32.1957 58.588 32.587C58.196 32.979 58 33.45 58 34C58 34.55 58.196 35.0207 58.588 35.412C58.9793 35.804 59.45 36 60 36ZM60 43.35C62.0333 41.4833 63.5417 39.7873 64.525 38.262C65.5083 36.7373 66 35.3833 66 34.2C66 32.3833 65.4207 30.8957 64.262 29.737C63.104 28.579 61.6833 28 60 28C58.3167 28 56.8957 28.579 55.737 29.737C54.579 30.8957 54 32.3833 54 34.2C54 35.3833 54.4917 36.7373 55.475 38.262C56.4583 39.7873 57.9667 41.4833 60 43.35ZM60 46C57.3167 43.7167 55.3127 41.5957 53.988 39.637C52.6627 37.679 52 35.8667 52 34.2C52 31.7 52.8043 29.7083 54.413 28.225C56.021 26.7417 57.8833 26 60 26C62.1167 26 63.979 26.7417 65.587 28.225C67.1957 29.7083 68 31.7 68 34.2C68 35.8667 67.3377 37.679 66.013 39.637C64.6877 41.5957 62.6833 43.7167 60 46Z" fill="white"/>
</g>
<mask id="mask3_0_1" style="mask-type:alpha" maskUnits="userSpaceOnUse" x="72" y="24" width="24" height="24">
<rect x="72" y="24" width="24" height="24" fill="#D9D9D9"/>
</mask>
<g mask="url(#mask3_0_1)">
<path d="M84 36C84.55 36 85.021 35.804 85.413 35.412C85.8043 35.0207 86 34.55 86 34C86 33.45 85.8043 32.979 85.413 32.587C85.021 32.1957 84.55 32 84 32C83.45 32 82.9793 32.1957 82.588 32.587C82.196 32.979 82 33.45 82 34C82 34.55 82.196 35.0207 82.588 35.412C82.9793 35.804 83.45 36 84 36ZM84 43.35C86.0333 41.4833 87.5417 39.7873 88.525 38.262C89.5083 36.7373 90 35.3833 90 34.2C90 32.3833 89.4207 30.8957 88.262 29.737C87.104 28.579 85.6833 28 84 28C82.3167 28 80.8957 28.579 79.737 29.737C78.579 30.8957 78 32.3833 78 34.2C78 35.3833 78.4917 36.7373 79.475 38.262C80.4583 39.7873 81.9667 41.4833 84 43.35ZM84 46C81.3167 43.7167 79.3127 41.5957 77.988 39.637C76.6627 37.679 76 35.8667 76 34.2C76 31.7 76.8043 29.7083 78.413 28.225C80.021 26.7417 81.8833 26 84 26C86.1167 26 87.979 26.7417 89.587 28.225C91.1957 29.7083 92 31.7 92 34.2C92 35.8667 91.3377 37.679 90.013 39.637C88.6877 41.5957 86.6833 43.7167 84 46Z" fill="#CE2028"/>
</g>
<path d="M21 62.5125L16.5853 60.5334L16.5684 60.5259C16.2815 60.4022 15.9681 60.3524 15.6569 60.3811C15.3457 60.4097 15.0467 60.5159 14.7872 60.69C14.7508 60.7143 14.7158 60.7406 14.6822 60.7687L12.5906 62.55C11.3719 61.889 10.1128 60.6403 9.45094 59.4365L11.2378 57.3122C11.2665 57.2779 11.2932 57.2419 11.3175 57.2044C11.487 56.9458 11.5899 56.6492 11.617 56.3413C11.6442 56.0333 11.5948 55.7233 11.4731 55.439C11.4702 55.4336 11.4677 55.428 11.4656 55.4222L9.48751 51C9.32513 50.6302 9.04801 50.3224 8.69716 50.1224C8.3463 49.9223 7.94035 49.8405 7.53938 49.889C6.17848 50.0678 4.92918 50.7359 4.02482 51.7684C3.12046 52.801 2.62288 54.1274 2.62501 55.5C2.62501 63.1509 8.84907 69.375 16.5 69.375C17.8726 69.3771 19.199 68.8795 20.2316 67.9752C21.2641 67.0708 21.9322 65.8215 22.1109 64.4606C22.1595 64.0596 22.0777 63.6537 21.8776 63.3028C21.6775 62.952 21.3698 62.6749 21 62.5125ZM16.5 67.125C13.418 67.1213 10.4633 65.8953 8.284 63.716C6.1047 61.5367 4.87873 58.582 4.87501 55.5C4.87286 54.7233 5.13655 53.9692 5.62227 53.3631C6.10799 52.7569 6.78648 52.3353 7.54501 52.1681L9.30938 56.1056L7.51313 58.245C7.4841 58.2796 7.45717 58.3159 7.43251 58.3537C7.25546 58.6243 7.15137 58.936 7.13034 59.2586C7.10932 59.5812 7.17207 59.9038 7.31251 60.195C8.19563 62.0025 10.0153 63.81 11.8416 64.695C12.1347 64.834 12.4589 64.8945 12.7825 64.8707C13.106 64.8468 13.4179 64.7395 13.6875 64.559C13.7238 64.5346 13.7585 64.508 13.7916 64.4794L15.8944 62.6915L19.8319 64.455C19.6647 65.2135 19.243 65.892 18.6369 66.3777C18.0308 66.8634 17.2767 67.1271 16.5 67.125Z" fill="#DEDEDE"/>
<path d="M45 62.5125L40.5853 60.5334L40.5684 60.5259C40.2815 60.4022 39.9681 60.3524 39.6569 60.3811C39.3457 60.4097 39.0467 60.5159 38.7872 60.69C38.7508 60.7143 38.7158 60.7406 38.6822 60.7687L36.5906 62.55C35.3719 61.889 34.1128 60.6403 33.4509 59.4365L35.2378 57.3122C35.2665 57.2779 35.2932 57.2419 35.3175 57.2044C35.487 56.9458 35.5899 56.6492 35.617 56.3413C35.6442 56.0333 35.5948 55.7233 35.4731 55.439C35.4702 55.4336 35.4677 55.428 35.4656 55.4222L33.4875 51C33.3251 50.6302 33.048 50.3224 32.6972 50.1224C32.3463 49.9223 31.9403 49.8405 31.5394 49.889C30.1785 50.0678 28.9292 50.7359 28.0248 51.7684C27.1205 52.801 26.6229 54.1274 26.625 55.5C26.625 63.1509 32.8491 69.375 40.5 69.375C41.8726 69.3771 43.199 68.8795 44.2316 67.9752C45.2641 67.0708 45.9322 65.8215 46.1109 64.4606C46.1595 64.0596 46.0777 63.6537 45.8776 63.3028C45.6775 62.952 45.3698 62.6749 45 62.5125ZM40.5 67.125C37.418 67.1213 34.4633 65.8953 32.284 63.716C30.1047 61.5367 28.8787 58.582 28.875 55.5C28.8729 54.7233 29.1366 53.9692 29.6223 53.3631C30.108 52.7569 30.7865 52.3353 31.545 52.1681L33.3094 56.1056L31.5131 58.245C31.4841 58.2796 31.4572 58.3159 31.4325 58.3537C31.2555 58.6243 31.1514 58.936 31.1303 59.2586C31.1093 59.5812 31.1721 59.9038 31.3125 60.195C32.1956 62.0025 34.0153 63.81 35.8416 64.695C36.1347 64.834 36.4589 64.8945 36.7825 64.8707C37.106 64.8468 37.4179 64.7395 37.6875 64.559C37.7238 64.5346 37.7585 64.508 37.7916 64.4794L39.8944 62.6915L43.8319 64.455C43.6647 65.2135 43.243 65.892 42.6369 66.3777C42.0308 66.8634 41.2767 67.1271 40.5 67.125Z" fill="#689901"/>
<path d="M69 62.5125L64.5853 60.5334L64.5684 60.5259C64.2815 60.4022 63.9681 60.3524 63.6569 60.3811C63.3457 60.4097 63.0467 60.5159 62.7872 60.69C62.7508 60.7143 62.7158 60.7406 62.6822 60.7687L60.5906 62.55C59.3719 61.889 58.1128 60.6403 57.4509 59.4365L59.2378 57.3122C59.2665 57.2779 59.2932 57.2419 59.3175 57.2044C59.487 56.9458 59.5899 56.6492 59.617 56.3413C59.6442 56.0333 59.5948 55.7233 59.4731 55.439C59.4702 55.4336 59.4677 55.428 59.4656 55.4222L57.4875 51C57.3251 50.6302 57.048 50.3224 56.6972 50.1224C56.3463 49.9223 55.9403 49.8405 55.5394 49.889C54.1785 50.0678 52.9292 50.7359 52.0248 51.7684C51.1205 52.801 50.6229 54.1274 50.625 55.5C50.625 63.1509 56.8491 69.375 64.5 69.375C65.8726 69.3771 67.199 68.8795 68.2316 67.9752C69.2641 67.0708 69.9322 65.8215 70.1109 64.4606C70.1595 64.0596 70.0777 63.6537 69.8776 63.3028C69.6775 62.952 69.3698 62.6749 69 62.5125ZM64.5 67.125C61.418 67.1213 58.4633 65.8953 56.284 63.716C54.1047 61.5367 52.8787 58.582 52.875 55.5C52.8729 54.7233 53.1366 53.9692 53.6223 53.3631C54.108 52.7569 54.7865 52.3353 55.545 52.1681L57.3094 56.1056L55.5131 58.245C55.4841 58.2796 55.4572 58.3159 55.4325 58.3537C55.2555 58.6243 55.1514 58.936 55.1303 59.2586C55.1093 59.5812 55.1721 59.9038 55.3125 60.195C56.1956 62.0025 58.0153 63.81 59.8416 64.695C60.1347 64.834 60.4589 64.8945 60.7825 64.8707C61.106 64.8468 61.4179 64.7395 61.6875 64.559C61.7238 64.5346 61.7585 64.508 61.7916 64.4794L63.8944 62.6915L67.8319 64.455C67.6647 65.2135 67.243 65.892 66.6369 66.3777C66.0308 66.8634 65.2767 67.1271 64.5 67.125Z" fill="white"/>
<path d="M93 62.5125L88.5853 60.5334L88.5684 60.5259C88.2815 60.4022 87.9681 60.3524 87.6569 60.3811C87.3457 60.4097 87.0467 60.5159 86.7872 60.69C86.7508 60.7143 86.7158 60.7406 86.6822 60.7687L84.5906 62.55C83.3719 61.889 82.1128 60.6403 81.4509 59.4365L83.2378 57.3122C83.2665 57.2779 83.2932 57.2419 83.3175 57.2044C83.487 56.9458 83.5899 56.6492 83.617 56.3413C83.6442 56.0333 83.5948 55.7233 83.4731 55.439C83.4702 55.4336 83.4677 55.428 83.4656 55.4222L81.4875 51C81.3251 50.6302 81.048 50.3224 80.6972 50.1224C80.3463 49.9223 79.9403 49.8405 79.5394 49.889C78.1785 50.0678 76.9292 50.7359 76.0248 51.7684C75.1205 52.801 74.6229 54.1274 74.625 55.5C74.625 63.1509 80.8491 69.375 88.5 69.375C89.8726 69.3771 91.199 68.8795 92.2316 67.9752C93.2641 67.0708 93.9322 65.8215 94.1109 64.4606C94.1595 64.0596 94.0777 63.6537 93.8776 63.3028C93.6775 62.952 93.3698 62.6749 93 62.5125ZM88.5 67.125C85.418 67.1213 82.4633 65.8953 80.284 63.716C78.1047 61.5367 76.8787 58.582 76.875 55.5C76.8729 54.7233 77.1366 53.9692 77.6223 53.3631C78.108 52.7569 78.7865 52.3353 79.545 52.1681L81.3094 56.1056L79.5131 58.245C79.4841 58.2796 79.4572 58.3159 79.4325 58.3537C79.2555 58.6243 79.1514 58.936 79.1303 59.2586C79.1093 59.5812 79.1721 59.9038 79.3125 60.195C80.1956 62.0025 82.0153 63.81 83.8416 64.695C84.1347 64.834 84.4589 64.8945 84.7825 64.8707C85.106 64.8468 85.4179 64.7395 85.6875 64.559C85.7238 64.5346 85.7585 64.508 85.7916 64.4794L87.8944 62.6915L91.8319 64.455C91.6647 65.2135 91.243 65.892 90.6369 66.3777C90.0308 66.8634 89.2767 67.1271 88.5 67.125Z" fill="#CE2028"/>
<mask id="mask4_0_1" style="mask-type:alpha" maskUnits="userSpaceOnUse" x="0" y="72" width="24" height="24">
<rect y="72" width="24" height="24" fill="#D9D9D9"/>
</mask>
<g mask="url(#mask4_0_1)">
<path d="M4 92C3.45 92 2.97933 91.8043 2.588 91.413C2.196 91.021 2 90.55 2 90V78C2 77.45 2.196 76.9793 2.588 76.588C2.97933 76.196 3.45 76 4 76H20C20.55 76 21.021 76.196 21.413 76.588C21.8043 76.9793 22 77.45 22 78V90C22 90.55 21.8043 91.021 21.413 91.413C21.021 91.8043 20.55 92 20 92H4ZM12 85L4 80V90H20V80L12 85ZM12 83L20 78H4L12 83ZM4 80V78V90V80Z" fill="#DEDEDE"/>
</g>
<mask id="mask5_0_1" style="mask-type:alpha" maskUnits="userSpaceOnUse" x="24" y="72" width="24" height="24">
<rect x="24" y="72" width="24" height="24" fill="#D9D9D9"/>
</mask>
<g mask="url(#mask5_0_1)">
<path d="M28 92C27.45 92 26.9793 91.8043 26.588 91.413C26.196 91.021 26 90.55 26 90V78C26 77.45 26.196 76.9793 26.588 76.588C26.9793 76.196 27.45 76 28 76H44C44.55 76 45.021 76.196 45.413 76.588C45.8043 76.9793 46 77.45 46 78V90C46 90.55 45.8043 91.021 45.413 91.413C45.021 91.8043 44.55 92 44 92H28ZM36 85L28 80V90H44V80L36 85ZM36 83L44 78H28L36 83ZM28 80V78V90V80Z" fill="#689901"/>
</g>
<mask id="mask6_0_1" style="mask-type:alpha" maskUnits="userSpaceOnUse" x="48" y="72" width="24" height="24">
<rect x="48" y="72" width="24" height="24" fill="#D9D9D9"/>
</mask>
<g mask="url(#mask6_0_1)">
<path d="M52 92C51.45 92 50.9793 91.8043 50.588 91.413C50.196 91.021 50 90.55 50 90V78C50 77.45 50.196 76.9793 50.588 76.588C50.9793 76.196 51.45 76 52 76H68C68.55 76 69.021 76.196 69.413 76.588C69.8043 76.9793 70 77.45 70 78V90C70 90.55 69.8043 91.021 69.413 91.413C69.021 91.8043 68.55 92 68 92H52ZM60 85L52 80V90H68V80L60 85ZM60 83L68 78H52L60 83ZM52 80V78V90V80Z" fill="white"/>
</g>
<mask id="mask7_0_1" style="mask-type:alpha" maskUnits="userSpaceOnUse" x="72" y="72" width="24" height="24">
<rect x="72" y="72" width="24" height="24" fill="#D9D9D9"/>
</mask>
<g mask="url(#mask7_0_1)">
<path d="M76 92C75.45 92 74.9793 91.8043 74.588 91.413C74.196 91.021 74 90.55 74 90V78C74 77.45 74.196 76.9793 74.588 76.588C74.9793 76.196 75.45 76 76 76H92C92.55 76 93.021 76.196 93.413 76.588C93.8043 76.9793 94 77.45 94 78V90C94 90.55 93.8043 91.021 93.413 91.413C93.021 91.8043 92.55 92 92 92H76ZM84 85L76 80V90H92V80L84 85ZM84 83L92 78H76L84 83ZM76 80V78V90V80Z" fill="#CE2028"/>
</g>
<mask id="mask8_0_1" style="mask-type:alpha" maskUnits="userSpaceOnUse" x="0" y="96" width="24" height="24">
<rect y="96" width="24" height="24" fill="#D9D9D9"/>
</mask>
<g mask="url(#mask8_0_1)">
<path d="M5.85 113.1C6.7 112.45 7.65 111.937 8.7 111.562C9.75 111.187 10.85 111 12 111C13.15 111 14.25 111.187 15.3 111.562C16.35 111.937 17.3 112.45 18.15 113.1C18.7333 112.417 19.1877 111.642 19.513 110.775C19.8377 109.908 20 108.983 20 108C20 105.783 19.221 103.896 17.663 102.337C16.1043 100.779 14.2167 100 12 100C9.78333 100 7.896 100.779 6.338 102.337C4.77933 103.896 4 105.783 4 108C4 108.983 4.16267 109.908 4.488 110.775C4.81267 111.642 5.26667 112.417 5.85 113.1ZM12 109C11.0167 109 10.1873 108.663 9.512 107.988C8.83733 107.313 8.5 106.483 8.5 105.5C8.5 104.517 8.83733 103.687 9.512 103.012C10.1873 102.337 11.0167 102 12 102C12.9833 102 13.8127 102.337 14.488 103.012C15.1627 103.687 15.5 104.517 15.5 105.5C15.5 106.483 15.1627 107.313 14.488 107.988C13.8127 108.663 12.9833 109 12 109ZM12 118C10.6167 118 9.31667 117.737 8.1 117.212C6.88333 116.687 5.825 115.975 4.925 115.075C4.025 114.175 3.31267 113.117 2.788 111.9C2.26267 110.683 2 109.383 2 108C2 106.617 2.26267 105.317 2.788 104.1C3.31267 102.883 4.025 101.825 4.925 100.925C5.825 100.025 6.88333 99.3123 8.1 98.787C9.31667 98.2623 10.6167 98 12 98C13.3833 98 14.6833 98.2623 15.9 98.787C17.1167 99.3123 18.175 100.025 19.075 100.925C19.975 101.825 20.6873 102.883 21.212 104.1C21.7373 105.317 22 106.617 22 108C22 109.383 21.7373 110.683 21.212 111.9C20.6873 113.117 19.975 114.175 19.075 115.075C18.175 115.975 17.1167 116.687 15.9 117.212C14.6833 117.737 13.3833 118 12 118ZM12 116C12.8833 116 13.7167 115.871 14.5 115.613C15.2833 115.354 16 114.983 16.65 114.5C16 114.017 15.2833 113.646 14.5 113.387C13.7167 113.129 12.8833 113 12 113C11.1167 113 10.2833 113.129 9.5 113.387C8.71667 113.646 8 114.017 7.35 114.5C8 114.983 8.71667 115.354 9.5 115.613C10.2833 115.871 11.1167 116 12 116ZM12 107C12.4333 107 12.7917 106.858 13.075 106.575C13.3583 106.292 13.5 105.933 13.5 105.5C13.5 105.067 13.3583 104.708 13.075 104.425C12.7917 104.142 12.4333 104 12 104C11.5667 104 11.2083 104.142 10.925 104.425C10.6417 104.708 10.5 105.067 10.5 105.5C10.5 105.933 10.6417 106.292 10.925 106.575C11.2083 106.858 11.5667 107 12 107Z" fill="#DEDEDE"/>
</g>
<mask id="mask9_0_1" style="mask-type:alpha" maskUnits="userSpaceOnUse" x="24" y="96" width="24" height="24">
<rect x="24" y="96" width="24" height="24" fill="#D9D9D9"/>
</mask>
<g mask="url(#mask9_0_1)">
<path d="M29.85 113.1C30.7 112.45 31.65 111.937 32.7 111.562C33.75 111.187 34.85 111 36 111C37.15 111 38.25 111.187 39.3 111.562C40.35 111.937 41.3 112.45 42.15 113.1C42.7333 112.417 43.1877 111.642 43.513 110.775C43.8377 109.908 44 108.983 44 108C44 105.783 43.221 103.896 41.663 102.337C40.1043 100.779 38.2167 100 36 100C33.7833 100 31.896 100.779 30.338 102.337C28.7793 103.896 28 105.783 28 108C28 108.983 28.1627 109.908 28.488 110.775C28.8127 111.642 29.2667 112.417 29.85 113.1ZM36 109C35.0167 109 34.1873 108.663 33.512 107.988C32.8373 107.313 32.5 106.483 32.5 105.5C32.5 104.517 32.8373 103.687 33.512 103.012C34.1873 102.337 35.0167 102 36 102C36.9833 102 37.8127 102.337 38.488 103.012C39.1627 103.687 39.5 104.517 39.5 105.5C39.5 106.483 39.1627 107.313 38.488 107.988C37.8127 108.663 36.9833 109 36 109ZM36 118C34.6167 118 33.3167 117.737 32.1 117.212C30.8833 116.687 29.825 115.975 28.925 115.075C28.025 114.175 27.3127 113.117 26.788 111.9C26.2627 110.683 26 109.383 26 108C26 106.617 26.2627 105.317 26.788 104.1C27.3127 102.883 28.025 101.825 28.925 100.925C29.825 100.025 30.8833 99.3123 32.1 98.787C33.3167 98.2623 34.6167 98 36 98C37.3833 98 38.6833 98.2623 39.9 98.787C41.1167 99.3123 42.175 100.025 43.075 100.925C43.975 101.825 44.6873 102.883 45.212 104.1C45.7373 105.317 46 106.617 46 108C46 109.383 45.7373 110.683 45.212 111.9C44.6873 113.117 43.975 114.175 43.075 115.075C42.175 115.975 41.1167 116.687 39.9 117.212C38.6833 117.737 37.3833 118 36 118ZM36 116C36.8833 116 37.7167 115.871 38.5 115.613C39.2833 115.354 40 114.983 40.65 114.5C40 114.017 39.2833 113.646 38.5 113.387C37.7167 113.129 36.8833 113 36 113C35.1167 113 34.2833 113.129 33.5 113.387C32.7167 113.646 32 114.017 31.35 114.5C32 114.983 32.7167 115.354 33.5 115.613C34.2833 115.871 35.1167 116 36 116ZM36 107C36.4333 107 36.7917 106.858 37.075 106.575C37.3583 106.292 37.5 105.933 37.5 105.5C37.5 105.067 37.3583 104.708 37.075 104.425C36.7917 104.142 36.4333 104 36 104C35.5667 104 35.2083 104.142 34.925 104.425C34.6417 104.708 34.5 105.067 34.5 105.5C34.5 105.933 34.6417 106.292 34.925 106.575C35.2083 106.858 35.5667 107 36 107Z" fill="#689901"/>
</g>
<mask id="mask10_0_1" style="mask-type:alpha" maskUnits="userSpaceOnUse" x="48" y="96" width="24" height="24">
<rect x="48" y="96" width="24" height="24" fill="#D9D9D9"/>
</mask>
<g mask="url(#mask10_0_1)">
<path d="M53.85 113.1C54.7 112.45 55.65 111.937 56.7 111.562C57.75 111.187 58.85 111 60 111C61.15 111 62.25 111.187 63.3 111.562C64.35 111.937 65.3 112.45 66.15 113.1C66.7333 112.417 67.1877 111.642 67.513 110.775C67.8377 109.908 68 108.983 68 108C68 105.783 67.221 103.896 65.663 102.337C64.1043 100.779 62.2167 100 60 100C57.7833 100 55.896 100.779 54.338 102.337C52.7793 103.896 52 105.783 52 108C52 108.983 52.1627 109.908 52.488 110.775C52.8127 111.642 53.2667 112.417 53.85 113.1ZM60 109C59.0167 109 58.1873 108.663 57.512 107.988C56.8373 107.313 56.5 106.483 56.5 105.5C56.5 104.517 56.8373 103.687 57.512 103.012C58.1873 102.337 59.0167 102 60 102C60.9833 102 61.8127 102.337 62.488 103.012C63.1627 103.687 63.5 104.517 63.5 105.5C63.5 106.483 63.1627 107.313 62.488 107.988C61.8127 108.663 60.9833 109 60 109ZM60 118C58.6167 118 57.3167 117.737 56.1 117.212C54.8833 116.687 53.825 115.975 52.925 115.075C52.025 114.175 51.3127 113.117 50.788 111.9C50.2627 110.683 50 109.383 50 108C50 106.617 50.2627 105.317 50.788 104.1C51.3127 102.883 52.025 101.825 52.925 100.925C53.825 100.025 54.8833 99.3123 56.1 98.787C57.3167 98.2623 58.6167 98 60 98C61.3833 98 62.6833 98.2623 63.9 98.787C65.1167 99.3123 66.175 100.025 67.075 100.925C67.975 101.825 68.6873 102.883 69.212 104.1C69.7373 105.317 70 106.617 70 108C70 109.383 69.7373 110.683 69.212 111.9C68.6873 113.117 67.975 114.175 67.075 115.075C66.175 115.975 65.1167 116.687 63.9 117.212C62.6833 117.737 61.3833 118 60 118ZM60 116C60.8833 116 61.7167 115.871 62.5 115.613C63.2833 115.354 64 114.983 64.65 114.5C64 114.017 63.2833 113.646 62.5 113.387C61.7167 113.129 60.8833 113 60 113C59.1167 113 58.2833 113.129 57.5 113.387C56.7167 113.646 56 114.017 55.35 114.5C56 114.983 56.7167 115.354 57.5 115.613C58.2833 115.871 59.1167 116 60 116ZM60 107C60.4333 107 60.7917 106.858 61.075 106.575C61.3583 106.292 61.5 105.933 61.5 105.5C61.5 105.067 61.3583 104.708 61.075 104.425C60.7917 104.142 60.4333 104 60 104C59.5667 104 59.2083 104.142 58.925 104.425C58.6417 104.708 58.5 105.067 58.5 105.5C58.5 105.933 58.6417 106.292 58.925 106.575C59.2083 106.858 59.5667 107 60 107Z" fill="white"/>
</g>
<mask id="mask11_0_1" style="mask-type:alpha" maskUnits="userSpaceOnUse" x="72" y="96" width="24" height="24">
<rect x="72" y="96" width="24" height="24" fill="#D9D9D9"/>
</mask>
<g mask="url(#mask11_0_1)">
<path d="M77.85 113.1C78.7 112.45 79.65 111.937 80.7 111.562C81.75 111.187 82.85 111 84 111C85.15 111 86.25 111.187 87.3 111.562C88.35 111.937 89.3 112.45 90.15 113.1C90.7333 112.417 91.1877 111.642 91.513 110.775C91.8377 109.908 92 108.983 92 108C92 105.783 91.221 103.896 89.663 102.337C88.1043 100.779 86.2167 100 84 100C81.7833 100 79.896 100.779 78.338 102.337C76.7793 103.896 76 105.783 76 108C76 108.983 76.1627 109.908 76.488 110.775C76.8127 111.642 77.2667 112.417 77.85 113.1ZM84 109C83.0167 109 82.1873 108.663 81.512 107.988C80.8373 107.313 80.5 106.483 80.5 105.5C80.5 104.517 80.8373 103.687 81.512 103.012C82.1873 102.337 83.0167 102 84 102C84.9833 102 85.8127 102.337 86.488 103.012C87.1627 103.687 87.5 104.517 87.5 105.5C87.5 106.483 87.1627 107.313 86.488 107.988C85.8127 108.663 84.9833 109 84 109ZM84 118C82.6167 118 81.3167 117.737 80.1 117.212C78.8833 116.687 77.825 115.975 76.925 115.075C76.025 114.175 75.3127 113.117 74.788 111.9C74.2627 110.683 74 109.383 74 108C74 106.617 74.2627 105.317 74.788 104.1C75.3127 102.883 76.025 101.825 76.925 100.925C77.825 100.025 78.8833 99.3123 80.1 98.787C81.3167 98.2623 82.6167 98 84 98C85.3833 98 86.6833 98.2623 87.9 98.787C89.1167 99.3123 90.175 100.025 91.075 100.925C91.975 101.825 92.6873 102.883 93.212 104.1C93.7373 105.317 94 106.617 94 108C94 109.383 93.7373 110.683 93.212 111.9C92.6873 113.117 91.975 114.175 91.075 115.075C90.175 115.975 89.1167 116.687 87.9 117.212C86.6833 117.737 85.3833 118 84 118ZM84 116C84.8833 116 85.7167 115.871 86.5 115.613C87.2833 115.354 88 114.983 88.65 114.5C88 114.017 87.2833 113.646 86.5 113.387C85.7167 113.129 84.8833 113 84 113C83.1167 113 82.2833 113.129 81.5 113.387C80.7167 113.646 80 114.017 79.35 114.5C80 114.983 80.7167 115.354 81.5 115.613C82.2833 115.871 83.1167 116 84 116ZM84 107C84.4333 107 84.7917 106.858 85.075 106.575C85.3583 106.292 85.5 105.933 85.5 105.5C85.5 105.067 85.3583 104.708 85.075 104.425C84.7917 104.142 84.4333 104 84 104C83.5667 104 83.2083 104.142 82.925 104.425C82.6417 104.708 82.5 105.067 82.5 105.5C82.5 105.933 82.6417 106.292 82.925 106.575C83.2083 106.858 83.5667 107 84 107Z" fill="#CE2028"/>
</g>
<path d="M108.1 18.55L108 18.65L107.89 18.55C103.14 14.24 100 11.39 100 8.5C100 6.5 101.5 5 103.5 5C105.04 5 106.54 6 107.07 7.36H108.93C109.46 6 110.96 5 112.5 5C114.5 5 116 6.5 116 8.5C116 11.39 112.86 14.24 108.1 18.55ZM112.5 3C110.76 3 109.09 3.81 108 5.08C106.91 3.81 105.24 3 103.5 3C100.42 3 98 5.41 98 8.5C98 12.27 101.4 15.36 106.55 20.03L108 21.35L109.45 20.03C114.6 15.36 118 12.27 118 8.5C118 5.41 115.58 3 112.5 3Z" fill="#FFCE33"/>
<mask id="mask12_0_1" style="mask-type:alpha" maskUnits="userSpaceOnUse" x="96" y="24" width="24" height="24">
<rect x="96" y="24" width="24" height="24" fill="#D9D9D9"/>
</mask>
<g mask="url(#mask12_0_1)">
<path d="M108 36C108.55 36 109.021 35.804 109.413 35.412C109.804 35.0207 110 34.55 110 34C110 33.45 109.804 32.979 109.413 32.587C109.021 32.1957 108.55 32 108 32C107.45 32 106.979 32.1957 106.588 32.587C106.196 32.979 106 33.45 106 34C106 34.55 106.196 35.0207 106.588 35.412C106.979 35.804 107.45 36 108 36ZM108 43.35C110.033 41.4833 111.542 39.7873 112.525 38.262C113.508 36.7373 114 35.3833 114 34.2C114 32.3833 113.421 30.8957 112.262 29.737C111.104 28.579 109.683 28 108 28C106.317 28 104.896 28.579 103.737 29.737C102.579 30.8957 102 32.3833 102 34.2C102 35.3833 102.492 36.7373 103.475 38.262C104.458 39.7873 105.967 41.4833 108 43.35ZM108 46C105.317 43.7167 103.313 41.5957 101.988 39.637C100.663 37.679 100 35.8667 100 34.2C100 31.7 100.804 29.7083 102.413 28.225C104.021 26.7417 105.883 26 108 26C110.117 26 111.979 26.7417 113.587 28.225C115.196 29.7083 116 31.7 116 34.2C116 35.8667 115.338 37.679 114.013 39.637C112.688 41.5957 110.683 43.7167 108 46Z" fill="#FFCE33"/>
</g>
<path d="M117 62.5125L112.585 60.5334L112.568 60.5259C112.281 60.4022 111.968 60.3524 111.657 60.3811C111.346 60.4097 111.047 60.5159 110.787 60.69C110.751 60.7143 110.716 60.7406 110.682 60.7687L108.591 62.55C107.372 61.889 106.113 60.6403 105.451 59.4365L107.238 57.3122C107.267 57.2779 107.293 57.2419 107.318 57.2044C107.487 56.9458 107.59 56.6492 107.617 56.3413C107.644 56.0333 107.595 55.7233 107.473 55.439C107.47 55.4336 107.468 55.428 107.466 55.4222L105.488 51C105.325 50.6302 105.048 50.3224 104.697 50.1224C104.346 49.9223 103.94 49.8405 103.539 49.889C102.178 50.0678 100.929 50.7359 100.025 51.7684C99.1205 52.801 98.6229 54.1274 98.625 55.5C98.625 63.1509 104.849 69.375 112.5 69.375C113.873 69.3771 115.199 68.8795 116.232 67.9752C117.264 67.0708 117.932 65.8215 118.111 64.4606C118.16 64.0596 118.078 63.6537 117.878 63.3028C117.678 62.952 117.37 62.6749 117 62.5125ZM112.5 67.125C109.418 67.1213 106.463 65.8953 104.284 63.716C102.105 61.5367 100.879 58.582 100.875 55.5C100.873 54.7233 101.137 53.9692 101.622 53.3631C102.108 52.7569 102.786 52.3353 103.545 52.1681L105.309 56.1056L103.513 58.245C103.484 58.2796 103.457 58.3159 103.433 58.3537C103.255 58.6243 103.151 58.936 103.13 59.2586C103.109 59.5812 103.172 59.9038 103.313 60.195C104.196 62.0025 106.015 63.81 107.842 64.695C108.135 64.834 108.459 64.8945 108.782 64.8707C109.106 64.8468 109.418 64.7395 109.688 64.559C109.724 64.5346 109.759 64.508 109.792 64.4794L111.894 62.6915L115.832 64.455C115.665 65.2135 115.243 65.892 114.637 66.3777C114.031 66.8634 113.277 67.1271 112.5 67.125Z" fill="#FFCE33"/>
<mask id="mask13_0_1" style="mask-type:alpha" maskUnits="userSpaceOnUse" x="96" y="72" width="24" height="24">
<rect x="96" y="72" width="24" height="24" fill="#D9D9D9"/>
</mask>
<g mask="url(#mask13_0_1)">
<path d="M100 92C99.45 92 98.9793 91.8043 98.588 91.413C98.196 91.021 98 90.55 98 90V78C98 77.45 98.196 76.9793 98.588 76.588C98.9793 76.196 99.45 76 100 76H116C116.55 76 117.021 76.196 117.413 76.588C117.804 76.9793 118 77.45 118 78V90C118 90.55 117.804 91.021 117.413 91.413C117.021 91.8043 116.55 92 116 92H100ZM108 85L100 80V90H116V80L108 85ZM108 83L116 78H100L108 83ZM100 80V78V90V80Z" fill="#FFCE33"/>
</g>
<mask id="mask14_0_1" style="mask-type:alpha" maskUnits="userSpaceOnUse" x="96" y="96" width="24" height="24">
<rect x="96" y="96" width="24" height="24" fill="#D9D9D9"/>
</mask>
<g mask="url(#mask14_0_1)">
<path d="M101.85 113.1C102.7 112.45 103.65 111.937 104.7 111.562C105.75 111.187 106.85 111 108 111C109.15 111 110.25 111.187 111.3 111.562C112.35 111.937 113.3 112.45 114.15 113.1C114.733 112.417 115.188 111.642 115.513 110.775C115.838 109.908 116 108.983 116 108C116 105.783 115.221 103.896 113.663 102.337C112.104 100.779 110.217 100 108 100C105.783 100 103.896 100.779 102.338 102.337C100.779 103.896 100 105.783 100 108C100 108.983 100.163 109.908 100.488 110.775C100.813 111.642 101.267 112.417 101.85 113.1ZM108 109C107.017 109 106.187 108.663 105.512 107.988C104.837 107.313 104.5 106.483 104.5 105.5C104.5 104.517 104.837 103.687 105.512 103.012C106.187 102.337 107.017 102 108 102C108.983 102 109.813 102.337 110.488 103.012C111.163 103.687 111.5 104.517 111.5 105.5C111.5 106.483 111.163 107.313 110.488 107.988C109.813 108.663 108.983 109 108 109ZM108 118C106.617 118 105.317 117.737 104.1 117.212C102.883 116.687 101.825 115.975 100.925 115.075C100.025 114.175 99.3127 113.117 98.788 111.9C98.2627 110.683 98 109.383 98 108C98 106.617 98.2627 105.317 98.788 104.1C99.3127 102.883 100.025 101.825 100.925 100.925C101.825 100.025 102.883 99.3123 104.1 98.787C105.317 98.2623 106.617 98 108 98C109.383 98 110.683 98.2623 111.9 98.787C113.117 99.3123 114.175 100.025 115.075 100.925C115.975 101.825 116.687 102.883 117.212 104.1C117.737 105.317 118 106.617 118 108C118 109.383 117.737 110.683 117.212 111.9C116.687 113.117 115.975 114.175 115.075 115.075C114.175 115.975 113.117 116.687 111.9 117.212C110.683 117.737 109.383 118 108 118ZM108 116C108.883 116 109.717 115.871 110.5 115.613C111.283 115.354 112 114.983 112.65 114.5C112 114.017 111.283 113.646 110.5 113.387C109.717 113.129 108.883 113 108 113C107.117 113 106.283 113.129 105.5 113.387C104.717 113.646 104 114.017 103.35 114.5C104 114.983 104.717 115.354 105.5 115.613C106.283 115.871 107.117 116 108 116ZM108 107C108.433 107 108.792 106.858 109.075 106.575C109.358 106.292 109.5 105.933 109.5 105.5C109.5 105.067 109.358 104.708 109.075 104.425C108.792 104.142 108.433 104 108 104C107.567 104 107.208 104.142 106.925 104.425C106.642 104.708 106.5 105.067 106.5 105.5C106.5 105.933 106.642 106.292 106.925 106.575C107.208 106.858 107.567 107 108 107Z" fill="#FFCE33"/>
</g>
</svg>
