<svg width="64" height="64" viewBox="0 0 64 64" fill="none" xmlns="http://www.w3.org/2000/svg">
<path d="M32 47C29.1914 46.8128 24.8053 45.1005 21.5 40.4454M32 47C34.8397 46.716 39.2922 45.1418 42.6096 40.4454M32 47L28 56M32 47L36.5 56M21.5 40.4454C18.921 36.8131 17 31.3892 17 23.5C17 13.5 22.5 7 32 7C41.5 7 47 13 47 23.5C47 30.4811 45.576 35.4687 43.534 39M21.5 40.4454L20 45L21.4545 47M28 56H36.5M28 56L27 61M28 56L21.4545 47M36.5 56L37.5 61M36.5 56L42.6096 47.0392M42.6096 40.4454L44 45L42.6096 47.0392M42.6096 40.4454C42.9291 39.9931 43.2381 39.5119 43.534 39M27 61H37.5M27 61H3V55.5C3.4697 53.4872 7.81818 48.9694 21.4545 47M37.5 61H61V55.5C59.2397 52.8567 53.0973 47.4639 42.6096 47.0392M50 20.5C50 14.6667 46.4 3 32 3C17 3 14 16.5 14 20.5M50 20.5V20.5C48.8954 20.5 48 21.3954 48 22.5V29.5C48 30.6046 48.8954 31.5 50 31.5H50.25M50 20.5H52C53.1046 20.5 54 21.3954 54 22.5V29.5C54 30.6046 53.1046 31.5 52 31.5H50.25M14 20.5H11.5C10.3954 20.5 9.5 21.3954 9.5 22.5V29.5C9.5 30.6046 10.3954 31.5 11.5 31.5H14C15.1046 31.5 16 30.6046 16 29.5V22.5C16 21.3954 15.1046 20.5 14 20.5V20.5ZM50.25 31.5C50.0227 34 48.3613 39 43.534 39M43.534 39L33.5 39.5" stroke="#689901" stroke-linecap="round"/>
</svg>
