<svg width="64" height="64" viewBox="0 0 64 64" fill="none" xmlns="http://www.w3.org/2000/svg">
<path d="M32.5 48C23.3 48 11.3333 47.3333 6.5 47L13.5 47.4155V51C13.5 52.1046 12.6046 53 11.5 53H4C2.89543 53 2 52.1046 2 51V34.9216C2 32.0545 2.9478 29.2679 4.69589 26.9953L7 24C5.33333 24.6667 2 25.4 2 23C2 20 3 19 8.5 21M8.5 21C9.87517 19.1091 11.238 17.3968 12.4378 15.9661C14.6623 13.3135 17.8519 11.7225 21.303 11.4487C24.3437 11.2074 28.2611 11 32.5 11M8.5 21C6.0334 24.2 10.4722 25 13 25H32.5M32.5 34H20V39.5C20 39.8333 20.6 40.5 23 40.5C25.4 40.5 30.3333 40.5 32.5 40.5M8.5 31.5C9.83333 32 11 32 15.5 32.5C17.5 33.5 17 36 15 36C13 36 8.5 36 7.5 35C6.5 34 7.5 31.1685 8.5 31.5Z" stroke="#689901" stroke-linecap="round"/>
<path d="M31 48C40.2 48 52.1667 47.3333 57 47L50 47.4155V51C50 52.1046 50.8954 53 52 53H59.5C60.6046 53 61.5 52.1046 61.5 51V34.9216C61.5 32.0545 60.5522 29.2679 58.8041 26.9953L56.5 24C58.1667 24.6667 61.5 25.4 61.5 23C61.5 20 60.5 19 55 21M55 21C53.6248 19.1091 52.262 17.3968 51.0622 15.9661C48.8377 13.3135 45.6481 11.7225 42.197 11.4487C39.1563 11.2074 35.2389 11 31 11M55 21C57.4666 24.2 53.0278 25 50.5 25H31M31 34H43.5V39.5C43.5 39.8333 42.9 40.5 40.5 40.5C38.1 40.5 33.1667 40.5 31 40.5M55 31.5C53.6667 32 52.5 32 48 32.5C46 33.5 46.5 36 48.5 36C50.5 36 55 36 56 35C57 34 56 31.1685 55 31.5Z" stroke="#689901" stroke-linecap="round"/>
</svg>
