<svg xmlns="http://www.w3.org/2000/svg" width="32" height="32" viewBox="0 0 32 32" fill="none">
  <path d="M3.5293 9.17648V26.2941C3.5293 26.8464 3.97701 27.2941 4.5293 27.2941H15.7646M3.5293 9.17648L9.64694 3.05884M3.5293 9.17648H8.64694C9.19923 9.17648 9.64694 8.72877 9.64694 8.17648V3.05884M9.64694 3.05884H21.3528C21.9051 3.05884 22.3528 3.50655 22.3528 4.05884V4.23531M12.4705 8.23531H19.294M7.05871 12.2353H19.294M7.05871 15.5294H19.294M7.05871 19.0588H19.294M7.05871 22.5882H19.294M22.3528 4.23531V26.2941C22.3528 26.8464 21.9051 27.2941 21.3528 27.2941H15.7646M22.3528 4.23531L27.7996 5.64742C28.3094 5.77961 28.6293 6.28462 28.531 6.80208L24.4328 28.3715C24.3256 28.9361 23.7655 29.2944 23.2079 29.155L15.7646 27.2941" stroke="#868686" stroke-linecap="round" stroke-linejoin="round"/>
</svg>