<svg width="64" height="64" viewBox="0 0 64 64" fill="none" xmlns="http://www.w3.org/2000/svg">
<path d="M1 46H14.5M14.5 46C14.5 44.5 16 41 20 41C24 41 25 44.5 25 46M14.5 46C14.5 48 16 52 20 52C24 52 25 48 25 46M25 46L33 46.5V37.5C31.5 35.6667 26 32 16 32C13 28 7.5 25 3.5 25H1M12 33C12 33.8333 11.5 35.5 9.5 35.5C7.5 35.5 3 35.5 1 35.5" stroke="#689901" stroke-linecap="round"/>
<path d="M23 28L16 20L25 22L24 12L31.5 22L39.5 12L39 22L48 20L40.5 28M45.5 46.5C42.8333 46.8333 37.5 46.6 37.5 43C37.5 39.4 37.5 35.8333 37.5 34.5C37.8333 33.3333 39.9 31.1 45.5 31.5C50.5 28 50 25 63 25M45.5 46.5C45.5 46 45.5 41 51 41C55.4 41 56.5 44.6667 56.5 46.5M45.5 46.5C45.5 48.1667 46.6 51.5 51 51.5C55.4 51.5 56.5 48.1667 56.5 46.5M51.5 31.5C51.6667 32.5 52.9 34.5 56.5 34.5C60.1 34.5 62.3333 34.5 63 34.5M63 46.5H56.5" stroke="#689901" stroke-linecap="round"/>
</svg>
