<svg width="64" height="64" viewBox="0 0 64 64" fill="none" xmlns="http://www.w3.org/2000/svg">
<path d="M6.95664 14.25L10.9567 10L23.9567 22.5C23.1293 23.224 21.5958 24.5898 20.0733 26M6.95664 14.25L2.95662 18.5C0.956624 21 -1.24338 27.8 5.95662 35C13.1566 42.2 25.29 54.3333 30.4567 59.5C32.29 61.8333 37.7567 65.5 44.9567 61.5C47.2541 59.5308 49.069 57.8309 50.4567 56.4417M6.95664 14.25L20.0733 26M20.0733 26C19.1424 26.8623 18.2155 27.7411 17.4567 28.5C15.4567 30.5 15.9567 32.6667 16.4567 33.5C18.9567 36 24.7567 41.8 27.9567 45C31.1567 48.2 33.29 47.3333 33.9567 46.5L36.9567 43.25M36.9567 43.25L39.9567 40L53.9567 52.5C53.5635 53.0898 52.4515 54.4447 50.4567 56.4417M36.9567 43.25L50.4567 56.4417" stroke="#689901" stroke-linecap="round"/>
<path d="M16.9998 5.71686C22.742 2.32244 29.475 0.91559 36.1255 1.72145C42.7761 2.52731 48.9597 5.49924 53.6917 10.162C58.4235 14.8246 61.4315 20.9095 62.2381 27.4466C63.0448 33.9837 61.604 40.5988 58.1443 46.2382" stroke="#689901"/>
<path d="M29.7565 30V29.08L34.8965 23.68C35.5765 22.9733 36.0899 22.2933 36.4365 21.64C36.7832 20.9733 36.9565 20.2733 36.9565 19.54C36.9565 18.66 36.6832 17.9933 36.1365 17.54C35.6032 17.0867 34.8232 16.86 33.7965 16.86C33.0099 16.86 32.2899 17 31.6365 17.28C30.9832 17.56 30.3632 17.9867 29.7765 18.56L29.2765 17.56C29.7965 17.0133 30.4632 16.5733 31.2765 16.24C32.0899 15.9067 32.9565 15.74 33.8765 15.74C35.2632 15.74 36.3299 16.0667 37.0765 16.72C37.8365 17.36 38.2165 18.28 38.2165 19.48C38.2165 20.36 37.9965 21.2133 37.5565 22.04C37.1165 22.8533 36.4899 23.68 35.6765 24.52L31.0165 29.28V28.9H38.8365V30H29.7565ZM46.9487 30V26.8H40.0287V25.88L47.1487 15.9H48.1687V25.76H50.4087V26.8H48.1687V30H46.9487ZM46.9487 25.76V17.36H47.3687L41.1487 26.08V25.76H46.9487Z" fill="#689901"/>
</svg>
