<svg width="64" height="64" viewBox="0 0 64 64" fill="none" xmlns="http://www.w3.org/2000/svg">
<path d="M3 39C3 43.4 9.66667 53.5 13 58C16.3333 53.3333 23 43 23 39C23 34 18.5 29 13 29C7.5 29 3 33.5 3 39Z" stroke="#689901"/>
<path d="M41 12C41 16.4 47.6667 26.5 51 31C54.3333 26.3333 61 16 61 12C61 7 56.5 2 51 2C45.5 2 41 6.5 41 12Z" stroke="#689901"/>
<circle cx="13" cy="39" r="5.5" stroke="#689901"/>
<circle cx="51" cy="12" r="5.5" stroke="#689901"/>
<path d="M15.5 60C22.3333 61.6667 36 61.8 36 49C36 33 45 33.5 50.5 34" stroke="#689901" stroke-linecap="round"/>
</svg>
