<svg width="64" height="90" viewBox="0 0 64 90" fill="none" xmlns="http://www.w3.org/2000/svg">
<path d="M12.1982 86V77.54H13.7102V84.728H17.0942V77.54H18.6062V84.728H21.9902V77.54H23.5022V86H12.1982ZM24.6623 86L28.4903 77.54H29.7863L33.6623 86H32.0903L31.0583 83.624L31.6823 84.044H26.6063L27.2543 83.624L26.2223 86H24.6623ZM29.1263 79.196L27.4343 83.204L27.1223 82.832H31.1543L30.9023 83.204L29.1743 79.196H29.1263ZM34.8383 86V77.54H40.5743V78.8H36.3743V86H34.8383ZM45.4785 86V84.86L48.2865 81.932C48.6385 81.564 48.8985 81.224 49.0665 80.912C49.2345 80.6 49.3185 80.28 49.3185 79.952C49.3185 79.544 49.1905 79.236 48.9345 79.028C48.6785 78.82 48.3065 78.716 47.8185 78.716C47.4265 78.716 47.0505 78.788 46.6905 78.932C46.3305 79.068 45.9785 79.284 45.6345 79.58L45.1305 78.428C45.4745 78.124 45.8985 77.88 46.4025 77.696C46.9145 77.512 47.4505 77.42 48.0105 77.42C48.9225 77.42 49.6225 77.624 50.1105 78.032C50.5985 78.44 50.8425 79.024 50.8425 79.784C50.8425 80.312 50.7185 80.816 50.4705 81.296C50.2225 81.768 49.8385 82.264 49.3185 82.784L46.9785 85.124V84.716H51.1785V86H45.4785Z" fill="#DEDEDE"/>
<path d="M33.0296 42.1523L21.0142 48.5774L9 42.1523M33.0296 42.1523V55H9V42.1523M33.0296 42.1523L26.4163 37.3149M9 42.1523L21.0142 33.3638L24.1041 35.6228M30.1112 16.1561H49.3361M30.1112 21.8178H49.3361M30.1112 27.4808H42.2982M51.7485 9H27.3557C26.4933 9 25.6663 9.34003 25.0565 9.9453C24.4467 10.5506 24.1041 11.3715 24.1041 12.2275V39.6086L29.1956 34.5549H51.7485C52.6108 34.5549 53.4379 34.2148 54.0477 33.6096C54.6574 33.0043 55 32.1834 55 31.3274V12.2275C55 11.3715 54.6574 10.5506 54.0477 9.9453C53.4379 9.34003 52.6108 9 51.7485 9Z" stroke="#689901" stroke-linecap="round" stroke-linejoin="round"/>
</svg>
