<svg width="64" height="90" viewBox="0 0 64 90" fill="none" xmlns="http://www.w3.org/2000/svg">
<path d="M12.1982 86V77.54H13.7102V84.728H17.0942V77.54H18.6062V84.728H21.9902V77.54H23.5022V86H12.1982ZM24.6623 86L28.4903 77.54H29.7863L33.6623 86H32.0903L31.0583 83.624L31.6823 84.044H26.6063L27.2543 83.624L26.2223 86H24.6623ZM29.1263 79.196L27.4343 83.204L27.1223 82.832H31.1543L30.9023 83.204L29.1743 79.196H29.1263ZM34.8383 86V77.54H40.5743V78.8H36.3743V86H34.8383ZM48.0105 86.12C47.4265 86.12 46.8665 86.036 46.3305 85.868C45.7945 85.692 45.3545 85.452 45.0105 85.148L45.5145 83.984C45.8905 84.272 46.2785 84.484 46.6785 84.62C47.0865 84.756 47.5145 84.824 47.9625 84.824C48.5065 84.824 48.9185 84.716 49.1985 84.5C49.4785 84.284 49.6185 83.968 49.6185 83.552C49.6185 83.152 49.4785 82.852 49.1985 82.652C48.9265 82.444 48.5265 82.34 47.9985 82.34H46.6305V81.104H47.8665C48.3225 81.104 48.6865 80.992 48.9585 80.768C49.2305 80.544 49.3665 80.236 49.3665 79.844C49.3665 79.476 49.2385 79.196 48.9825 79.004C48.7345 78.812 48.3745 78.716 47.9025 78.716C47.0545 78.716 46.3065 79.004 45.6585 79.58L45.1545 78.428C45.4985 78.108 45.9225 77.86 46.4265 77.684C46.9385 77.508 47.4745 77.42 48.0345 77.42C48.9145 77.42 49.6025 77.62 50.0985 78.02C50.6025 78.412 50.8545 78.96 50.8545 79.664C50.8545 80.168 50.7105 80.604 50.4225 80.972C50.1425 81.332 49.7545 81.572 49.2585 81.692V81.548C49.8425 81.644 50.2945 81.884 50.6145 82.268C50.9425 82.644 51.1065 83.116 51.1065 83.684C51.1065 84.436 50.8305 85.032 50.2785 85.472C49.7265 85.904 48.9705 86.12 48.0105 86.12Z" fill="#DEDEDE"/>
<path d="M16 30V24.5H48V30M16 30V45H48V30M16 30H48M23.5 16L20.5 19L23.5 21.5M33 16L30 19L33 21.5M42.5 16L39.5 19L42.5 21.5M35.5 40V41.5H45.5V39.5H35.5V40Z" stroke="#689901"/>
</svg>
