<svg width="24" height="24" viewBox="0 0 24 24" fill="none" xmlns="http://www.w3.org/2000/svg">
<mask id="mask0_355_1134" style="mask-type:alpha" maskUnits="userSpaceOnUse" x="0" y="0" width="24" height="24">
<rect width="24" height="24" fill="#D9D9D9"/>
</mask>
<g mask="url(#mask0_355_1134)">
<path d="M2.2806 24C1.56965 24 0.960811 23.7652 0.454095 23.2956C-0.0517602 22.8252 -0.304688 22.26 -0.304688 21.6V4.8C-0.304688 4.14 -0.0517602 3.5752 0.454095 3.1056C0.960811 2.6352 1.56965 2.4 2.2806 2.4H3.57325V0H6.15854V2.4H16.4997V0H19.085V2.4H20.3776C21.0886 2.4 21.6974 2.6352 22.2041 3.1056C22.71 3.5752 22.9629 4.14 22.9629 4.8V21.6C22.9629 22.26 22.71 22.8252 22.2041 23.2956C21.6974 23.7652 21.0886 24 20.3776 24H2.2806ZM2.2806 21.6H20.3776V9.6H2.2806V21.6ZM2.2806 7.2H20.3776V4.8H2.2806V7.2ZM11.3291 14.4C10.9629 14.4 10.6561 14.2848 10.4088 14.0544C10.1606 13.8248 10.0365 13.54 10.0365 13.2C10.0365 12.86 10.1606 12.5748 10.4088 12.3444C10.6561 12.1148 10.9629 12 11.3291 12C11.6954 12 12.0026 12.1148 12.2508 12.3444C12.4981 12.5748 12.6218 12.86 12.6218 13.2C12.6218 13.54 12.4981 13.8248 12.2508 14.0544C12.0026 14.2848 11.6954 14.4 11.3291 14.4ZM6.15854 14.4C5.79229 14.4 5.48507 14.2848 5.23688 14.0544C4.98955 13.8248 4.86589 13.54 4.86589 13.2C4.86589 12.86 4.98955 12.5748 5.23688 12.3444C5.48507 12.1148 5.79229 12 6.15854 12C6.52479 12 6.832 12.1148 7.08019 12.3444C7.32752 12.5748 7.45118 12.86 7.45118 13.2C7.45118 13.54 7.32752 13.8248 7.08019 14.0544C6.832 14.2848 6.52479 14.4 6.15854 14.4ZM16.4997 14.4C16.1334 14.4 15.8267 14.2848 15.5793 14.0544C15.3311 13.8248 15.207 13.54 15.207 13.2C15.207 12.86 15.3311 12.5748 15.5793 12.3444C15.8267 12.1148 16.1334 12 16.4997 12C16.8659 12 17.1727 12.1148 17.4201 12.3444C17.6682 12.5748 17.7923 12.86 17.7923 13.2C17.7923 13.54 17.6682 13.8248 17.4201 14.0544C17.1727 14.2848 16.8659 14.4 16.4997 14.4ZM11.3291 19.2C10.9629 19.2 10.6561 19.0848 10.4088 18.8544C10.1606 18.6248 10.0365 18.34 10.0365 18C10.0365 17.66 10.1606 17.3752 10.4088 17.1456C10.6561 16.9152 10.9629 16.8 11.3291 16.8C11.6954 16.8 12.0026 16.9152 12.2508 17.1456C12.4981 17.3752 12.6218 17.66 12.6218 18C12.6218 18.34 12.4981 18.6248 12.2508 18.8544C12.0026 19.0848 11.6954 19.2 11.3291 19.2ZM6.15854 19.2C5.79229 19.2 5.48507 19.0848 5.23688 18.8544C4.98955 18.6248 4.86589 18.34 4.86589 18C4.86589 17.66 4.98955 17.3752 5.23688 17.1456C5.48507 16.9152 5.79229 16.8 6.15854 16.8C6.52479 16.8 6.832 16.9152 7.08019 17.1456C7.32752 17.3752 7.45118 17.66 7.45118 18C7.45118 18.34 7.32752 18.6248 7.08019 18.8544C6.832 19.0848 6.52479 19.2 6.15854 19.2ZM16.4997 19.2C16.1334 19.2 15.8267 19.0848 15.5793 18.8544C15.3311 18.6248 15.207 18.34 15.207 18C15.207 17.66 15.3311 17.3752 15.5793 17.1456C15.8267 16.9152 16.1334 16.8 16.4997 16.8C16.8659 16.8 17.1727 16.9152 17.4201 17.1456C17.6682 17.3752 17.7923 17.66 17.7923 18C17.7923 18.34 17.6682 18.6248 17.4201 18.8544C17.1727 19.0848 16.8659 19.2 16.4997 19.2Z" fill="#B2B2B2"/>
</g>
</svg>
