<svg width="22" height="22" viewBox="0 0 22 22" fill="none" xmlns="http://www.w3.org/2000/svg">
<path d="M3.41462 2.52083C3.1755 2.52681 2.94819 2.62602 2.78121 2.79729C2.61422 2.96855 2.5208 3.1983 2.52087 3.4375V18.6083C2.52087 18.8514 2.61745 19.0846 2.78936 19.2565C2.96127 19.4284 3.19443 19.525 3.43754 19.525H18.6084C18.8515 19.525 19.0846 19.4284 19.2566 19.2565C19.4285 19.0846 19.525 18.8514 19.525 18.6083V3.41458C19.5191 3.17546 19.4198 2.94815 19.2486 2.78117C19.0773 2.61418 18.8476 2.52076 18.6084 2.52083H3.41462Z" stroke="#689901" stroke-linecap="round" stroke-linejoin="round"/>
<path d="M17.6276 8.26833H14.8867V13.75M14.8867 11.0092H16.6742M4.37256 13.75V8.25H6.20589C6.69212 8.25 7.15844 8.44315 7.50225 8.78697C7.84607 9.13079 8.03923 9.5971 8.03923 10.0833C8.03923 10.5696 7.84607 11.0359 7.50225 11.3797C7.15844 11.7235 6.69212 11.9167 6.20589 11.9167H4.37256M9.20798 13.75V8.25H10.1246C10.854 8.25 11.5535 8.53973 12.0692 9.05546C12.5849 9.57118 12.8746 10.2707 12.8746 11C12.8746 11.7293 12.5849 12.4288 12.0692 12.9445C11.5535 13.4603 10.854 13.75 10.1246 13.75H9.20798Z" stroke="#689901" stroke-linecap="round" stroke-linejoin="round"/>
</svg>
