<svg xmlns="http://www.w3.org/2000/svg" width="40" height="40" viewBox="0 0 40 40" fill="none">
  <path fill-rule="evenodd" clip-rule="evenodd" d="M18.3333 23.3333C13.3333 18.3333 10 14.955 10 10C10 4.47715 14.4772 0 20 0C25.5228 0 30 4.47715 30 10C30 14.955 26.6667 18.3333 21.6667 23.3333L21.6667 30L25.7735 30L20 40L14.2265 30H18.3333L18.3333 23.3333ZM20.6933 5H19.2533L15 15H16.7333L17.6773 12.6879H22.3094L23.2533 15H25L20.6933 5ZM18.2545 11.2553L19.96 6.95745H20.0133L21.7551 11.2553H18.2545Z" fill="#B2B2B2"/>
</svg>