<svg width="24" height="24" viewBox="0 0 24 24" fill="none" xmlns="http://www.w3.org/2000/svg">
<g clip-path="url(#clip0_355_1149)">
<path fill-rule="evenodd" clip-rule="evenodd" d="M6 12C8.973 12 11.441 9.83771 11.917 7H18V9.4641L24 6L18 2.5359V5H11.917C11.441 2.16229 8.973 0 6 0C2.68629 0 0 2.68629 0 6C0 9.31371 2.68629 12 6 12ZM6.5468 3H5.43842L3 9H4.36699L4.82451 7.78298H7.17004L7.633 9H9L6.5468 3ZM5.26633 6.59149L5.98522 4.61702H6.02217L6.74721 6.59149H5.26633Z" fill="#B2B2B2"/>
<path fill-rule="evenodd" clip-rule="evenodd" d="M18 24C21.3137 24 24 21.3137 24 18C24 14.6863 21.3137 12 18 12C15.027 12 12.559 14.1623 12.083 17H6V14.5359L0 18L6 21.4641V19H12.083C12.559 21.8377 15.027 24 18 24ZM18.8171 15H16V21H18.9077C19.5557 21 20.0664 20.8496 20.4399 20.5489C20.8133 20.2426 21 19.8255 21 19.2979C21 18.895 20.8874 18.5688 20.6623 18.3191C20.4872 18.1156 20.251 17.9698 19.9537 17.8816C20.1885 17.7837 20.3807 17.6401 20.5305 17.4511C20.7337 17.2014 20.8353 16.9007 20.8353 16.5489C20.8353 16.0723 20.6595 15.695 20.3081 15.417C19.9621 15.139 19.4651 15 18.8171 15ZM18.71 19.8511H17.458V18.5319H18.71C18.9956 18.5319 19.207 18.583 19.3443 18.6851C19.4871 18.7872 19.5585 18.9546 19.5585 19.1872C19.5585 19.4142 19.4871 19.5816 19.3443 19.6894C19.207 19.7972 18.9956 19.8511 18.71 19.8511ZM18.5371 17.383H17.458V16.1489H18.5371C18.8281 16.1489 19.0395 16.2 19.1713 16.3021C19.3086 16.3986 19.3773 16.5518 19.3773 16.7617C19.3773 16.9716 19.3086 17.1277 19.1713 17.2298C19.0395 17.3319 18.8281 17.383 18.5371 17.383Z" fill="#B2B2B2"/>
</g>
<defs>
<clipPath id="clip0_355_1149">
<rect width="24" height="24" fill="white"/>
</clipPath>
</defs>
</svg>
