<svg width="576" height="56" viewBox="0 0 576 56" fill="none" xmlns="http://www.w3.org/2000/svg">
<path d="M1.00587 15.8947C0.852036 21.4526 3.76199 22.5848 5.23619 22.4561C5.23619 20.1404 6.30775 15.2755 11.8456 15.2755C17.3835 15.2755 17.9272 20.9766 17.3503 24H46.578C45.8089 20.9766 46.193 15.2755 52.5 15.2755C58.807 15.2755 59.3332 20.9766 58.5 24H60.8074C61.6407 23.7427 62.2687 22.1088 61.961 17.6316C61.6534 13.1544 53.885 10.7485 50.0392 10.1053C49.5264 9.91228 47.4625 8.83158 43.3091 6.05263C38.1174 2.57895 33.887 2 23.1189 2C14.5045 2 9.91519 5.85965 8.69737 7.78947L3.31332 9.52632C2.86465 11.1988 1.77502 14.814 1.00587 15.8947Z" stroke="#B2B2B2"/>
<circle cx="11.5714" cy="21.5714" r="4.07143" stroke="#B2B2B2"/>
<circle cx="52.5714" cy="21.5714" r="4.07143" stroke="#B2B2B2"/>
<path d="M110.196 22.2557H85.3069C85.8995 19.5044 85.3831 14.2557 79.5926 14.2557C73.8021 14.2557 73.4551 19.5044 73.8784 22.2557C72.6508 22.2557 67.0212 21.7477 67.0212 21.7477C64.7355 19.589 64.3545 16.0335 66.1323 15.3986C65.9291 11.5382 66.6403 9.81125 67.0212 9.4303C67.3598 8.92236 68.4688 7.37315 70.1958 5.23981C71.9228 3.10648 73.2434 3.08107 73.8784 3.08108C81.1588 3.12341 96.2783 3.18267 98.5133 3.08108C100.748 2.9795 107.741 7.35622 110.958 9.55727C111.889 9.76891 114.716 10.2938 118.577 10.7001C123.402 11.2081 125.688 12.2239 125.688 15.1446C128.126 15.8557 126.704 20.1816 125.688 22.2557H121.624C122.048 19.589 121.599 14.2557 115.91 14.2557C110.221 14.2557 109.688 19.589 110.196 22.2557Z" stroke="#B2B2B2"/>
<circle cx="79.746" cy="20.0952" r="4.07143" stroke="#B2B2B2"/>
<circle cx="115.809" cy="20.0952" r="4.07143" stroke="#B2B2B2"/>
<circle cx="142.73" cy="20.6032" r="4.07143" stroke="#B2B2B2"/>
<circle cx="180.063" cy="20.6032" r="4.07143" stroke="#B2B2B2"/>
<path d="M130.135 21.7313C130.948 22.6456 135.13 22.8742 137.12 22.8742C136.485 20.2921 136.688 15.1281 142.58 15.1281C148.472 15.1281 148.929 20.2921 148.421 22.8742H174.199C173.564 20.2921 173.818 15.1281 179.913 15.1281C186.008 15.1281 186.262 20.2921 185.627 22.8742H189.945C191.596 20.4615 191.342 16.525 189.945 16.525C189.818 14.7472 188.675 12.7154 187.151 12.3344C185.932 12.0297 183.088 10.9376 181.818 10.4297C180.294 9.45612 176.383 7.02649 172.929 5.09633C169.475 3.16618 166.834 2.85296 165.945 2.93762C158.411 2.85297 142.478 2.73445 139.024 2.93762C134.707 3.19159 133.183 7.1281 131.659 9.41381C130.135 11.6995 130.135 13.2234 130.135 16.525C128.231 16.271 129.12 20.5884 130.135 21.7313Z" stroke="#B2B2B2"/>
<path d="M197.005 16.2632C196.872 21.5684 199.398 22.6491 200.678 22.5263C200.678 20.3158 201.609 15.672 206.417 15.672C211.225 15.672 213.001 20.614 212.5 23.5L234.5 24C233.832 21.114 235.024 15.672 240.5 15.672C245.976 15.672 246.723 21.114 246 24H248.929C249.653 23.7544 250.198 22.1947 249.931 17.9211C249.664 13.6474 242.919 11.3509 239.58 10.7368C239.134 10.5526 237.342 9.52105 233.736 6.86842C229.228 3.55263 225.555 3 216.205 3C208.726 3 204.741 6.68421 203.683 8.52632L199.009 10.1842C198.619 11.7807 197.673 15.2316 197.005 16.2632Z" stroke="#B2B2B2"/>
<circle cx="206.5" cy="21.5" r="4" stroke="#B2B2B2"/>
<circle cx="240.5" cy="21.5" r="4" stroke="#B2B2B2"/>
<circle cx="271.492" cy="20.0952" r="4.07143" stroke="#B2B2B2"/>
<circle cx="307.809" cy="20.0952" r="4.07143" stroke="#B2B2B2"/>
<path d="M260.003 18.3125C259.876 20.4375 263.553 20.9688 265.407 20.9688C264.93 18.8333 265.439 14.5625 271.288 14.5625C277.137 14.5625 277.742 19.875 277 22.5312H302.282C301.488 19.7708 301.424 14.25 307.527 14.25C313.631 14.25 313.567 20.0833 312.773 23C313.302 22.9479 314.68 22.7812 315.951 22.5312C318.494 22.0625 318.018 19.25 317.859 17.375C316.905 17.375 316.905 15.5 315.951 14.25C313.408 12.75 306.521 11.75 303.395 11.4375C302.229 10.5521 298.944 8.25 295.13 6.125C291.315 4 287.5 3.15625 286.07 3H267.315C260.321 3 260.162 15.6562 260.003 18.3125Z" stroke="#B2B2B2"/>
<circle cx="335.746" cy="19.0794" r="4.07143" stroke="#B2B2B2"/>
<circle cx="371.302" cy="19.0794" r="4.07143" stroke="#B2B2B2"/>
<path d="M365.891 20.6583H341.079C341.53 18.2821 340.906 13.3952 335.709 13.3952C330.16 13.3952 330.286 19.0343 330.286 19.8413C329.248 19.7965 327.155 19.7706 324.882 19.4478C322.039 19.0443 322.581 16.3542 322.581 15.0092C323.664 15.1437 323.528 14.3367 323.528 11.3777C323.528 9.01051 328.401 8.867 330.837 9.09115C331.333 8.77733 333.002 7.77307 335.709 6.26665C338.308 4.43742 341.845 4.24912 343.288 4.38362H352.221C357.851 4.38362 364.312 8.14967 366.838 10.0327C368.327 10.1224 372.333 10.5169 376.447 11.3777C381.59 12.4537 380.778 12.4537 381.184 16.6233C381.509 21.0349 378.162 21.1515 376.447 20.6583C376.989 18.2821 376.718 13.5297 371.304 13.5297C365.891 13.5297 365.439 18.2821 365.891 20.6583Z" stroke="#B2B2B2"/>
<circle cx="399.492" cy="20.0952" r="4.07143" stroke="#B2B2B2"/>
<circle cx="435.809" cy="20.0952" r="4.07143" stroke="#B2B2B2"/>
<path d="M429.906 22.3827H405.144C405.779 19.716 405.55 14.3827 399.557 14.3827C393.563 14.3827 393.081 19.716 393.588 22.3827C391.218 22.3827 386.376 22.2303 385.969 21.6208C384.242 17.5573 385.25 16.1182 385.969 15.9065V11.7161C385.969 10.7002 389.398 9.30336 392.446 9.43035C395.493 9.55733 395.366 9.17638 398.922 6.25574C401.766 3.91924 404.848 3.33509 406.033 3.33508C408.446 3.37741 414.211 3.43667 417.969 3.33508C421.728 3.23349 427.917 7.69487 430.541 9.93825C431.895 10.1076 435.519 10.5224 439.176 10.8271C443.747 11.2081 445.525 12.6049 445.525 15.9065C447.658 16.0081 446.414 20.2663 445.525 22.3827H441.335C442.096 19.716 441.588 14.3827 435.493 14.3827C429.398 14.3827 429.398 19.716 429.906 22.3827Z" stroke="#B2B2B2"/>
<circle cx="463.746" cy="18.5714" r="4.07143" stroke="#B2B2B2"/>
<circle cx="496.762" cy="18.5714" r="4.07143" stroke="#B2B2B2"/>
<path d="M491.548 20.6031H469.068C469.293 18.183 468.58 13.3427 463.922 13.3427C458.098 13.3427 458.098 18.8552 458.64 19.6619C458.64 20.0922 457.557 20.2894 457.015 20.3342C455.435 19.886 452.194 18.5863 451.869 16.9729C451.544 15.3594 452.636 15.0457 453.223 15.0905C453.494 14.3286 454.008 12.4553 453.9 11.0569C452.681 10.5191 454.713 9.30902 458.911 9.17457C462.567 7.29222 474.349 4.60315 479.089 4.60315C483.829 4.60315 487.892 6.88889 493.038 10.2502C494.527 9.71241 497.507 10.6536 503.601 12.8048C508.476 14.5258 508.521 18.7208 507.934 20.6031H501.976C502.382 18.183 501.922 13.3427 496.83 13.3427C491.738 13.3427 491.187 18.183 491.548 20.6031Z" stroke="#B2B2B2"/>
<circle cx="530.286" cy="20.0952" r="4.07143" stroke="#B2B2B2"/>
<circle cx="564.318" cy="20.0952" r="4.07143" stroke="#B2B2B2"/>
<path d="M530.286 14.6431C524.698 14.6431 523.64 19.8071 523.81 22.3891H520.381C519.619 22.3891 517.968 21.8812 517.46 19.4685C517.054 17.5383 517.63 16.2939 517.968 15.9129H514.032V5.7542H517.968V9.05579H518.857C518.942 8.75949 519.365 7.45579 520.381 4.61135C521.397 1.7669 524.275 1.2251 525.587 1.30976H547.936C551.898 1.30976 557.714 6.47378 560.127 9.05579C562.159 9.26743 566.857 9.7923 569.397 10.1986C572.571 10.7066 573.46 12.1034 573.46 15.9129C575.898 16.2177 574.476 20.3574 573.46 22.3891H570.032C570.497 19.8071 570.311 14.6431 564.317 14.6431C558.324 14.6431 558.307 19.8071 558.73 22.3891H536.508C536.762 19.8071 535.873 14.6431 530.286 14.6431Z" stroke="#B2B2B2"/>
<path d="M1.00587 43.8947C0.852036 49.4526 3.76199 50.5848 5.23619 50.4561C5.23619 48.1404 6.30775 43.2755 11.8456 43.2755C17.3835 43.2755 17.9272 48.9766 17.3503 52H46.578C45.8089 48.9766 46.193 43.2755 52.5 43.2755C58.807 43.2755 59.3332 48.9766 58.5 52H60.8074C61.6407 51.7427 62.2687 50.1088 61.961 45.6316C61.6534 41.1544 53.885 38.7485 50.0392 38.1053C49.5264 37.9123 47.4625 36.8316 43.3091 34.0526C38.1174 30.5789 33.887 30 23.1189 30C14.5045 30 9.91519 33.8596 8.69737 35.7895L3.31332 37.5263C2.86465 39.1988 1.77502 42.814 1.00587 43.8947Z" stroke="#689901"/>
<circle cx="11.5714" cy="49.5714" r="4.07143" stroke="#689901"/>
<circle cx="52.5714" cy="49.5714" r="4.07143" stroke="#689901"/>
<path d="M110.196 50.2557H85.3069C85.8995 47.5044 85.3831 42.2557 79.5926 42.2557C73.8021 42.2557 73.4551 47.5044 73.8784 50.2557C72.6508 50.2557 67.0212 49.7477 67.0212 49.7477C64.7355 47.589 64.3545 44.0335 66.1323 43.3986C65.9291 39.5382 66.6403 37.8113 67.0212 37.4303C67.3598 36.9224 68.4688 35.3731 70.1958 33.2398C71.9228 31.1065 73.2434 31.0811 73.8784 31.0811C81.1588 31.1234 96.2783 31.1827 98.5133 31.0811C100.748 30.9795 107.741 35.3562 110.958 37.5573C111.889 37.7689 114.716 38.2938 118.577 38.7001C123.402 39.2081 125.688 40.2239 125.688 43.1446C128.126 43.8557 126.704 48.1816 125.688 50.2557H121.624C122.048 47.589 121.599 42.2557 115.91 42.2557C110.221 42.2557 109.688 47.589 110.196 50.2557Z" stroke="#689901"/>
<circle cx="79.746" cy="48.0952" r="4.07143" stroke="#689901"/>
<circle cx="115.809" cy="48.0952" r="4.07143" stroke="#689901"/>
<circle cx="142.73" cy="48.6032" r="4.07143" stroke="#689901"/>
<circle cx="180.063" cy="48.6032" r="4.07143" stroke="#689901"/>
<path d="M130.135 49.7313C130.948 50.6456 135.13 50.8742 137.12 50.8742C136.485 48.2921 136.688 43.1281 142.58 43.1281C148.472 43.1281 148.929 48.2921 148.421 50.8742H174.199C173.564 48.2921 173.818 43.1281 179.913 43.1281C186.008 43.1281 186.262 48.2921 185.627 50.8742H189.945C191.596 48.4615 191.342 44.525 189.945 44.525C189.818 42.7472 188.675 40.7154 187.151 40.3344C185.932 40.0297 183.088 38.9376 181.818 38.4297C180.294 37.4561 176.383 35.0265 172.929 33.0963C169.475 31.1662 166.834 30.853 165.945 30.9376C158.411 30.853 142.478 30.7344 139.024 30.9376C134.707 31.1916 133.183 35.1281 131.659 37.4138C130.135 39.6995 130.135 41.2234 130.135 44.525C128.231 44.271 129.12 48.5884 130.135 49.7313Z" stroke="#689901"/>
<path d="M197.005 44.2632C196.872 49.5684 199.398 50.6491 200.678 50.5263C200.678 48.3158 201.609 43.672 206.417 43.672C211.225 43.672 213.001 48.614 212.5 51.5L234.5 52C233.832 49.114 235.024 43.672 240.5 43.672C245.976 43.672 246.723 49.114 246 52H248.929C249.653 51.7544 250.198 50.1947 249.931 45.9211C249.664 41.6474 242.919 39.3509 239.58 38.7368C239.134 38.5526 237.342 37.5211 233.736 34.8684C229.228 31.5526 225.555 31 216.205 31C208.726 31 204.741 34.6842 203.683 36.5263L199.009 38.1842C198.619 39.7807 197.673 43.2316 197.005 44.2632Z" stroke="#689901"/>
<circle cx="206.5" cy="49.5" r="4" stroke="#689901"/>
<circle cx="240.5" cy="49.5" r="4" stroke="#689901"/>
<circle cx="271.492" cy="48.0952" r="4.07143" stroke="#689901"/>
<circle cx="307.809" cy="48.0952" r="4.07143" stroke="#689901"/>
<path d="M260.003 46.3125C259.876 48.4375 263.553 48.9688 265.407 48.9688C264.93 46.8333 265.439 42.5625 271.288 42.5625C277.137 42.5625 277.742 47.875 277 50.5312H302.282C301.488 47.7708 301.424 42.25 307.527 42.25C313.631 42.25 313.567 48.0833 312.773 51C313.302 50.9479 314.68 50.7812 315.951 50.5312C318.494 50.0625 318.018 47.25 317.859 45.375C316.905 45.375 316.905 43.5 315.951 42.25C313.408 40.75 306.521 39.75 303.395 39.4375C302.229 38.5521 298.944 36.25 295.13 34.125C291.315 32 287.5 31.1562 286.07 31H267.315C260.321 31 260.162 43.6562 260.003 46.3125Z" stroke="#689901"/>
<circle cx="335.746" cy="47.0794" r="4.07143" stroke="#689901"/>
<circle cx="371.302" cy="47.0794" r="4.07143" stroke="#689901"/>
<path d="M365.891 48.6583H341.079C341.53 46.2821 340.906 41.3952 335.709 41.3952C330.16 41.3952 330.286 47.0343 330.286 47.8413C329.248 47.7965 327.155 47.7706 324.882 47.4478C322.039 47.0443 322.581 44.3542 322.581 43.0092C323.664 43.1437 323.528 42.3367 323.528 39.3777C323.528 37.0105 328.401 36.867 330.837 37.0912C331.333 36.7773 333.002 35.7731 335.709 34.2666C338.308 32.4374 341.845 32.2491 343.288 32.3836H352.221C357.851 32.3836 364.312 36.1497 366.838 38.0327C368.327 38.1224 372.333 38.5169 376.447 39.3777C381.59 40.4537 380.778 40.4537 381.184 44.6233C381.509 49.0349 378.162 49.1515 376.447 48.6583C376.989 46.2821 376.718 41.5297 371.304 41.5297C365.891 41.5297 365.439 46.2821 365.891 48.6583Z" stroke="#689901"/>
<circle cx="399.492" cy="48.0952" r="4.07143" stroke="#689901"/>
<circle cx="435.809" cy="48.0952" r="4.07143" stroke="#689901"/>
<path d="M429.906 50.3827H405.144C405.779 47.716 405.55 42.3827 399.557 42.3827C393.563 42.3827 393.081 47.716 393.588 50.3827C391.218 50.3827 386.376 50.2303 385.969 49.6208C384.242 45.5573 385.25 44.1182 385.969 43.9065V39.7161C385.969 38.7002 389.398 37.3034 392.446 37.4303C395.493 37.5573 395.366 37.1764 398.922 34.2557C401.766 31.9192 404.848 31.3351 406.033 31.3351C408.446 31.3774 414.211 31.4367 417.969 31.3351C421.728 31.2335 427.917 35.6949 430.541 37.9383C431.895 38.1076 435.519 38.5224 439.176 38.8271C443.747 39.2081 445.525 40.6049 445.525 43.9065C447.658 44.0081 446.414 48.2663 445.525 50.3827H441.335C442.096 47.716 441.588 42.3827 435.493 42.3827C429.398 42.3827 429.398 47.716 429.906 50.3827Z" stroke="#689901"/>
<circle cx="463.746" cy="46.5714" r="4.07143" stroke="#689901"/>
<circle cx="496.762" cy="46.5714" r="4.07143" stroke="#689901"/>
<path d="M491.548 48.6031H469.068C469.293 46.183 468.58 41.3427 463.922 41.3427C458.098 41.3427 458.098 46.8552 458.64 47.6619C458.64 48.0922 457.557 48.2894 457.015 48.3342C455.435 47.886 452.194 46.5863 451.869 44.9729C451.544 43.3594 452.636 43.0457 453.223 43.0905C453.494 42.3286 454.008 40.4553 453.9 39.0569C452.681 38.5191 454.713 37.309 458.911 37.1746C462.567 35.2922 474.349 32.6031 479.089 32.6031C483.829 32.6031 487.892 34.8889 493.038 38.2502C494.527 37.7124 497.507 38.6536 503.601 40.8048C508.476 42.5258 508.521 46.7208 507.934 48.6031H501.976C502.382 46.183 501.922 41.3427 496.83 41.3427C491.738 41.3427 491.187 46.183 491.548 48.6031Z" stroke="#689901"/>
<circle cx="530.286" cy="48.0952" r="4.07143" stroke="#689901"/>
<circle cx="564.318" cy="48.0952" r="4.07143" stroke="#689901"/>
<path d="M530.286 42.6431C524.698 42.6431 523.64 47.8071 523.81 50.3891H520.381C519.619 50.3891 517.968 49.8812 517.46 47.4685C517.054 45.5383 517.63 44.2939 517.968 43.9129H514.032V33.7542H517.968V37.0558H518.857C518.942 36.7595 519.365 35.4558 520.381 32.6113C521.397 29.7669 524.275 29.2251 525.587 29.3098H547.936C551.898 29.3098 557.714 34.4738 560.127 37.0558C562.159 37.2674 566.857 37.7923 569.397 38.1986C572.571 38.7066 573.46 40.1034 573.46 43.9129C575.898 44.2177 574.476 48.3574 573.46 50.3891H570.032C570.497 47.8071 570.311 42.6431 564.317 42.6431C558.324 42.6431 558.307 47.8071 558.73 50.3891H536.508C536.762 47.8071 535.873 42.6431 530.286 42.6431Z" stroke="#689901"/>
</svg>
