<svg width="192" height="160" viewBox="0 0 192 160" fill="none" xmlns="http://www.w3.org/2000/svg">
<path d="M3 14.9199V27C3 27.5523 3.44772 28 4 28H28C28.5523 28 29 27.5523 29 27V5C29 4.44772 28.5523 4 28 4H14.1144C13.8526 4 13.6012 4.10271 13.4142 4.28606L3.29979 14.206C3.10804 14.394 3 14.6513 3 14.9199Z" stroke="#868686"/>
<path d="M21 60H10.5C9.94772 60 9.49865 59.5525 9.52371 59.0008C9.76605 53.6649 11.8697 45 16 45C20.1231 45 21.7875 53.781 21.9807 59.0004C22.0011 59.5523 21.5523 60 21 60Z" stroke="#868686"/>
<path d="M24 60H28.7243C29.3173 60 29.7813 59.4874 29.7016 58.8999C29.0775 54.2929 27.4209 49 24.24 49C23.8267 49 22.8 49.2 22 50" stroke="#868686" stroke-linecap="round"/>
<path d="M7.83301 60H3.10868C2.51574 60 2.05175 59.4874 2.13136 58.8999C2.75554 54.2929 4.4121 49 7.59301 49C8.00634 49 9.03301 49.2 9.83301 50" stroke="#868686" stroke-linecap="round"/>
<circle cx="16" cy="40" r="3.5" stroke="#868686"/>
<circle cx="24.5" cy="44.5" r="3" stroke="#868686"/>
<circle cx="3.5" cy="3.5" r="3" transform="matrix(-1 0 0 1 10.833 41)" stroke="#868686"/>
<path d="M12.5 75V87C12.5 87.1326 12.4473 87.2598 12.3536 87.3536C12.2598 87.4473 12.1326 87.5 12 87.5C11.8674 87.5 11.7402 87.4473 11.6464 87.3536C11.5527 87.2598 11.5 87.1326 11.5 87V75C11.5 74.8674 11.5527 74.7402 11.6464 74.6464C11.7402 74.5527 11.8674 74.5 12 74.5C12.1326 74.5 12.2598 74.5527 12.3536 74.6464C12.4473 74.7402 12.5 74.8674 12.5 75ZM16 74.5C15.8674 74.5 15.7402 74.5527 15.6464 74.6464C15.5527 74.7402 15.5 74.8674 15.5 75V87C15.5 87.1326 15.5527 87.2598 15.6464 87.3536C15.7402 87.4473 15.8674 87.5 16 87.5C16.1326 87.5 16.2598 87.4473 16.3536 87.3536C16.4473 87.2598 16.5 87.1326 16.5 87V75C16.5 74.8674 16.4473 74.7402 16.3536 74.6464C16.2598 74.5527 16.1326 74.5 16 74.5ZM20 74.5C19.8674 74.5 19.7402 74.5527 19.6464 74.6464C19.5527 74.7402 19.5 74.8674 19.5 75V87C19.5 87.1326 19.5527 87.2598 19.6464 87.3536C19.7402 87.4473 19.8674 87.5 20 87.5C20.1326 87.5 20.2598 87.4473 20.3536 87.3536C20.4473 87.2598 20.5 87.1326 20.5 87V75C20.5 74.8674 20.4473 74.7402 20.3536 74.6464C20.2598 74.5527 20.1326 74.5 20 74.5ZM25.5 72V90C25.5 90.3978 25.342 90.7794 25.0607 91.0607C24.7794 91.342 24.3978 91.5 24 91.5H21.5V94C21.5 94.1326 21.4473 94.2598 21.3536 94.3536C21.2598 94.4473 21.1326 94.5 21 94.5C20.8674 94.5 20.7402 94.4473 20.6464 94.3536C20.5527 94.2598 20.5 94.1326 20.5 94V91.5H11.5V94C11.5 94.1326 11.4473 94.2598 11.3536 94.3536C11.2598 94.4473 11.1326 94.5 11 94.5C10.8674 94.5 10.7402 94.4473 10.6464 94.3536C10.5527 94.2598 10.5 94.1326 10.5 94V91.5H8C7.60218 91.5 7.22064 91.342 6.93934 91.0607C6.65804 90.7794 6.5 90.3978 6.5 90V72C6.5 71.6022 6.65804 71.2206 6.93934 70.9393C7.22064 70.658 7.60218 70.5 8 70.5H11.5V67C11.5 66.337 11.7634 65.7011 12.2322 65.2322C12.7011 64.7634 13.337 64.5 14 64.5H18C18.3283 64.5 18.6534 64.5647 18.9567 64.6903C19.26 64.8159 19.5356 65.0001 19.7678 65.2322C19.9999 65.4644 20.1841 65.74 20.3097 66.0433C20.4353 66.3466 20.5 66.6717 20.5 67V70.5H24C24.3978 70.5 24.7794 70.658 25.0607 70.9393C25.342 71.2206 25.5 71.6022 25.5 72ZM12.5 70.5H19.5V67C19.5 66.6022 19.342 66.2206 19.0607 65.9393C18.7794 65.658 18.3978 65.5 18 65.5H14C13.6022 65.5 13.2206 65.658 12.9393 65.9393C12.658 66.2206 12.5 66.6022 12.5 67V70.5ZM24.5 72C24.5 71.8674 24.4473 71.7402 24.3536 71.6464C24.2598 71.5527 24.1326 71.5 24 71.5H8C7.86739 71.5 7.74021 71.5527 7.64645 71.6464C7.55268 71.7402 7.5 71.8674 7.5 72V90C7.5 90.1326 7.55268 90.2598 7.64645 90.3536C7.74021 90.4473 7.86739 90.5 8 90.5H24C24.1326 90.5 24.2598 90.4473 24.3536 90.3536C24.4473 90.2598 24.5 90.1326 24.5 90V72Z" fill="#868686"/>
<path d="M11 107V111.5M11 116V111.5M11 111.5H16.5M16.5 111.5V107M16.5 111.5V116M16.5 111.5H21C21.5523 111.5 22 111.052 22 110.5V107" stroke="#868686" stroke-linecap="round"/>
<circle cx="16" cy="112" r="11.5" stroke="#868686"/>
<path d="M16.2188 146.667C15.125 146.667 12.9375 147.333 12.9375 150C12.9375 152.667 15.125 153.333 16.2188 153.333C17.3125 153.333 19.5 152.667 19.5 150C19.5 147.333 17.3125 146.667 16.2188 146.667ZM16.2188 146.667V134M16.2188 157.333C18.6878 157.333 23.4375 155.333 23.4375 150C23.4375 146.812 21.3529 144.471 20.5068 143.652C20.2905 143.442 20.1562 143.159 20.1562 142.857V134.098C20.1562 134.033 20.1505 133.968 20.136 133.905C19.8756 132.767 18.7709 130.667 16.2188 130.667C13.6666 130.667 12.5619 132.767 12.3015 133.905C12.287 133.968 12.2812 134.033 12.2812 134.098V142.857C12.2812 143.159 12.147 143.442 11.9307 143.652C11.0846 144.471 9 146.812 9 150C9 154.667 12.9375 157.333 16.2188 157.333Z" stroke="#868686" stroke-linecap="round"/>
<path d="M42.75 19.7106C44.3692 22.0903 46.5073 22.996 47.9139 23.1235C47.9715 23.1287 48.0284 23.1277 48.0858 23.1208C49.5083 22.9489 51.6792 22.1121 53.3048 19.7106M42.75 19.7106C41.4605 17.8156 40.5 14.9857 40.5 10.8696C40.5 5.65217 43.25 2.26086 48 2.26086C52.75 2.26086 55.5 5.3913 55.5 10.8696C55.5 14.5119 54.788 17.1141 53.767 18.9565C53.619 19.2236 53.4646 19.4747 53.3048 19.7106M42.75 19.7106L42.733 22.2756C42.7297 22.7678 42.3655 23.1831 41.8808 23.2688C35.936 24.3195 33.8655 26.4116 33.5291 27.4589C33.5067 27.5288 33.5 27.6023 33.5 27.6757V29.4348C33.5 29.9871 33.9477 30.4348 34.5 30.4348H45.5H50.75H61.5C62.0523 30.4348 62.5 29.9871 62.5 29.4348V27.8571C62.5 27.6665 62.4482 27.4794 62.3353 27.3258C61.346 25.9801 58.6503 23.6888 54.2607 23.2216C53.7279 23.1649 53.3048 22.7281 53.3048 22.1923V19.7106" stroke="#868686"/>
<circle cx="47.9997" cy="48" r="10.1667" stroke="#868686"/>
<circle cx="47.9997" cy="48" r="2.16667" stroke="#868686"/>
<path d="M38.667 46.4242C40.7411 45.6162 45.5114 44 48.0003 44C50.4892 44 55.2596 45.6162 57.3337 46.4242M38.667 50.0606H44.1087C44.2136 50.0606 44.318 50.0755 44.4151 50.115C45.0671 50.3804 46.1337 51.1383 46.1337 52.4848C46.1337 53.9394 46.1337 56.3232 46.1337 57.3333M50.4892 57.3333V52.4848C50.4892 51.6768 50.987 50.0606 52.9781 50.0606C54.9692 50.0606 56.7114 50.0606 57.3337 50.0606" stroke="#868686" stroke-linecap="round"/>
<circle cx="47.9997" cy="48" r="14.1667" stroke="#868686"/>
<path d="M42.9999 70.5C42.9999 71.6935 43.5267 72.8381 44.4644 73.682C45.4021 74.5259 46.6739 75 47.9999 75C49.326 75 50.5978 74.5259 51.5355 73.682C52.4732 72.8381 52.9999 71.6935 52.9999 70.5C52.9999 69.3065 52.4732 68.1619 51.5355 67.318C50.5978 66.4741 49.326 66 47.9999 66C46.6739 66 45.4021 66.4741 44.4644 67.318C43.5267 68.1619 42.9999 69.3065 42.9999 70.5Z" stroke="#B2B2B2" stroke-linecap="round" stroke-linejoin="round"/>
<path d="M40.056 75H55.9439C56.3041 74.9999 56.6529 75.1269 56.9295 75.3588C57.206 75.5907 57.3929 75.9127 57.4573 76.2688L59.9751 90.1779C60.0154 90.4007 60.0066 90.6296 59.9491 90.8485C59.8917 91.0674 59.7871 91.271 59.6427 91.4448C59.4983 91.6186 59.3177 91.7585 59.1136 91.8544C58.9096 91.9503 58.687 92 58.4617 92H37.5382C37.3129 92 37.0903 91.9503 36.8862 91.8544C36.6822 91.7585 36.5015 91.6186 36.3572 91.4448C36.2128 91.271 36.1082 91.0674 36.0508 90.8485C35.9933 90.6296 35.9844 90.4007 36.0248 90.1779L38.5425 76.2688C38.607 75.9127 38.7938 75.5907 39.0704 75.3588C39.347 75.1269 39.6958 74.9999 40.056 75Z" stroke="#B2B2B2" stroke-linecap="round" stroke-linejoin="round"/>
<path d="M61 109.749L47.9993 116.876L35 109.749M61 109.749V124H35V109.749M61 109.749L53.8444 104.383L51.3427 102.506L47.9993 100L35 109.749" stroke="#B2B2B2" stroke-linecap="round" stroke-linejoin="round"/>
<g clip-path="url(#clip0_0_1)">
<path d="M42 144C42 145.591 42.6321 147.117 43.7574 148.243C44.8826 149.368 46.4087 150 48 150C49.5913 150 51.1174 149.368 52.2426 148.243C53.3679 147.117 54 145.591 54 144C54 142.409 53.3679 140.883 52.2426 139.757C51.1174 138.632 49.5913 138 48 138C46.4087 138 44.8826 138.632 43.7574 139.757C42.6321 140.883 42 142.409 42 144Z" stroke="#B2B2B2" stroke-linecap="round" stroke-linejoin="round"/>
<path d="M48 129L48 135" stroke="#B2B2B2" stroke-linecap="round"/>
<path d="M58.6066 133.393L54.364 137.636" stroke="#B2B2B2" stroke-linecap="round"/>
<path d="M33 144L39 144" stroke="#B2B2B2" stroke-linecap="round"/>
<path d="M37.3934 133.393L41.636 137.636" stroke="#B2B2B2" stroke-linecap="round"/>
<path d="M48 153L48 159" stroke="#B2B2B2" stroke-linecap="round"/>
<path d="M41.636 150.364L37.3934 154.607" stroke="#B2B2B2" stroke-linecap="round"/>
<path d="M57 144L63 144" stroke="#B2B2B2" stroke-linecap="round"/>
<path d="M54.364 150.364L58.6066 154.607" stroke="#B2B2B2" stroke-linecap="round"/>
</g>
<mask id="path-29-inside-1_0_1" fill="white">
<path fill-rule="evenodd" clip-rule="evenodd" d="M92.1601 17.5186C90.4815 18.3424 88.5934 18.805 86.5973 18.805C79.6147 18.805 73.9542 13.1444 73.9542 6.16177C73.9542 5.42474 74.0172 4.70245 74.1382 3.99998C69.9447 6.05796 67.0579 10.3703 67.0579 15.3568C67.0579 22.3394 72.7184 28 79.701 28C85.9467 28 91.1346 23.4713 92.1601 17.5186Z"/>
</mask>
<path d="M92.1601 17.5186L93.1456 17.6884L93.4782 15.7578L91.7196 16.6209L92.1601 17.5186ZM74.1382 3.99998L75.1237 4.16977L75.4563 2.23921L73.6977 3.10226L74.1382 3.99998ZM91.7196 16.6209C90.175 17.3789 88.4374 17.805 86.5973 17.805V19.805C88.7495 19.805 90.7879 19.3059 92.6007 18.4163L91.7196 16.6209ZM86.5973 17.805C80.167 17.805 74.9542 12.5921 74.9542 6.16177H72.9542C72.9542 13.6967 79.0624 19.805 86.5973 19.805V17.805ZM74.9542 6.16177C74.9542 5.48189 75.0123 4.81639 75.1237 4.16977L73.1528 3.8302C73.0221 4.5885 72.9542 5.3676 72.9542 6.16177H74.9542ZM68.0579 15.3568C68.0579 10.7661 70.7145 6.79409 74.5788 4.89771L73.6977 3.10226C69.1748 5.32183 66.0579 9.97437 66.0579 15.3568H68.0579ZM79.701 27C73.2707 27 68.0579 21.7872 68.0579 15.3568H66.0579C66.0579 22.8917 72.1661 29 79.701 29V27ZM91.1747 17.3488C90.2303 22.83 85.4517 27 79.701 27V29C86.4417 29 92.0388 24.1127 93.1456 17.6884L91.1747 17.3488Z" fill="#B2B2B2" mask="url(#path-29-inside-1_0_1)"/>
<path d="M99 14.9199V27C99 27.5523 99.4477 28 100 28H124C124.552 28 125 27.5523 125 27V5C125 4.44772 124.552 4 124 4H110.114C109.853 4 109.601 4.10271 109.414 4.28606L99.2998 14.206C99.108 14.394 99 14.6513 99 14.9199Z" stroke="#689901"/>
<path d="M117 60H106.5C105.948 60 105.499 59.5525 105.524 59.0008C105.766 53.6649 107.87 45 112 45C116.123 45 117.788 53.781 117.981 59.0004C118.001 59.5523 117.552 60 117 60Z" stroke="#689901"/>
<path d="M120 60H124.724C125.317 60 125.781 59.4874 125.702 58.8999C125.077 54.2929 123.421 49 120.24 49C119.827 49 118.8 49.2 118 50" stroke="#689901" stroke-linecap="round"/>
<path d="M103.833 60H99.1086C98.5157 60 98.0517 59.4874 98.1313 58.8999C98.7555 54.2929 100.412 49 103.593 49C104.006 49 105.033 49.2 105.833 50" stroke="#689901" stroke-linecap="round"/>
<circle cx="112" cy="40" r="3.5" stroke="#689901"/>
<circle cx="120.5" cy="44.5" r="3" stroke="#689901"/>
<circle cx="3.5" cy="3.5" r="3" transform="matrix(-1 0 0 1 106.833 41)" stroke="#689901"/>
<path d="M108.5 75V87C108.5 87.1326 108.447 87.2598 108.354 87.3536C108.26 87.4473 108.133 87.5 108 87.5C107.867 87.5 107.74 87.4473 107.646 87.3536C107.553 87.2598 107.5 87.1326 107.5 87V75C107.5 74.8674 107.553 74.7402 107.646 74.6464C107.74 74.5527 107.867 74.5 108 74.5C108.133 74.5 108.26 74.5527 108.354 74.6464C108.447 74.7402 108.5 74.8674 108.5 75ZM112 74.5C111.867 74.5 111.74 74.5527 111.646 74.6464C111.553 74.7402 111.5 74.8674 111.5 75V87C111.5 87.1326 111.553 87.2598 111.646 87.3536C111.74 87.4473 111.867 87.5 112 87.5C112.133 87.5 112.26 87.4473 112.354 87.3536C112.447 87.2598 112.5 87.1326 112.5 87V75C112.5 74.8674 112.447 74.7402 112.354 74.6464C112.26 74.5527 112.133 74.5 112 74.5ZM116 74.5C115.867 74.5 115.74 74.5527 115.646 74.6464C115.553 74.7402 115.5 74.8674 115.5 75V87C115.5 87.1326 115.553 87.2598 115.646 87.3536C115.74 87.4473 115.867 87.5 116 87.5C116.133 87.5 116.26 87.4473 116.354 87.3536C116.447 87.2598 116.5 87.1326 116.5 87V75C116.5 74.8674 116.447 74.7402 116.354 74.6464C116.26 74.5527 116.133 74.5 116 74.5ZM121.5 72V90C121.5 90.3978 121.342 90.7794 121.061 91.0607C120.779 91.342 120.398 91.5 120 91.5H117.5V94C117.5 94.1326 117.447 94.2598 117.354 94.3536C117.26 94.4473 117.133 94.5 117 94.5C116.867 94.5 116.74 94.4473 116.646 94.3536C116.553 94.2598 116.5 94.1326 116.5 94V91.5H107.5V94C107.5 94.1326 107.447 94.2598 107.354 94.3536C107.26 94.4473 107.133 94.5 107 94.5C106.867 94.5 106.74 94.4473 106.646 94.3536C106.553 94.2598 106.5 94.1326 106.5 94V91.5H104C103.602 91.5 103.221 91.342 102.939 91.0607C102.658 90.7794 102.5 90.3978 102.5 90V72C102.5 71.6022 102.658 71.2206 102.939 70.9393C103.221 70.658 103.602 70.5 104 70.5H107.5V67C107.5 66.337 107.763 65.7011 108.232 65.2322C108.701 64.7634 109.337 64.5 110 64.5H114C114.328 64.5 114.653 64.5647 114.957 64.6903C115.26 64.8159 115.536 65.0001 115.768 65.2322C116 65.4644 116.184 65.74 116.31 66.0433C116.435 66.3466 116.5 66.6717 116.5 67V70.5H120C120.398 70.5 120.779 70.658 121.061 70.9393C121.342 71.2206 121.5 71.6022 121.5 72ZM108.5 70.5H115.5V67C115.5 66.6022 115.342 66.2206 115.061 65.9393C114.779 65.658 114.398 65.5 114 65.5H110C109.602 65.5 109.221 65.658 108.939 65.9393C108.658 66.2206 108.5 66.6022 108.5 67V70.5ZM120.5 72C120.5 71.8674 120.447 71.7402 120.354 71.6464C120.26 71.5527 120.133 71.5 120 71.5H104C103.867 71.5 103.74 71.5527 103.646 71.6464C103.553 71.7402 103.5 71.8674 103.5 72V90C103.5 90.1326 103.553 90.2598 103.646 90.3536C103.74 90.4473 103.867 90.5 104 90.5H120C120.133 90.5 120.26 90.4473 120.354 90.3536C120.447 90.2598 120.5 90.1326 120.5 90V72Z" fill="#689901"/>
<path d="M107 107V111.5M107 116V111.5M107 111.5H112.5M112.5 111.5V107M112.5 111.5V116M112.5 111.5H117C117.552 111.5 118 111.052 118 110.5V107" stroke="#689901" stroke-linecap="round"/>
<circle cx="112" cy="112" r="11.5" stroke="#689901"/>
<path d="M112.219 146.667C111.125 146.667 108.938 147.333 108.938 150C108.938 152.667 111.125 153.333 112.219 153.333C113.312 153.333 115.5 152.667 115.5 150C115.5 147.333 113.312 146.667 112.219 146.667ZM112.219 146.667V134M112.219 157.333C114.688 157.333 119.438 155.333 119.438 150C119.438 146.812 117.353 144.471 116.507 143.652C116.29 143.442 116.156 143.159 116.156 142.857V134.098C116.156 134.033 116.15 133.968 116.136 133.905C115.876 132.767 114.771 130.667 112.219 130.667C109.667 130.667 108.562 132.767 108.302 133.905C108.287 133.968 108.281 134.033 108.281 134.098V142.857C108.281 143.159 108.147 143.442 107.931 143.652C107.085 144.471 105 146.812 105 150C105 154.667 108.938 157.333 112.219 157.333Z" stroke="#689901" stroke-linecap="round"/>
<path d="M138.75 19.7106C140.369 22.0903 142.507 22.996 143.914 23.1235C143.972 23.1287 144.028 23.1277 144.086 23.1208C145.508 22.9489 147.679 22.1121 149.305 19.7106M138.75 19.7106C137.46 17.8156 136.5 14.9857 136.5 10.8696C136.5 5.65217 139.25 2.26086 144 2.26086C148.75 2.26086 151.5 5.3913 151.5 10.8696C151.5 14.5119 150.788 17.1141 149.767 18.9565C149.619 19.2236 149.465 19.4747 149.305 19.7106M138.75 19.7106L138.733 22.2756C138.73 22.7678 138.366 23.1831 137.881 23.2688C131.936 24.3195 129.865 26.4116 129.529 27.4589C129.507 27.5288 129.5 27.6023 129.5 27.6757V29.4348C129.5 29.9871 129.948 30.4348 130.5 30.4348H141.5H146.75H157.5C158.052 30.4348 158.5 29.9871 158.5 29.4348V27.8571C158.5 27.6665 158.448 27.4794 158.335 27.3258C157.346 25.9801 154.65 23.6888 150.261 23.2216C149.728 23.1649 149.305 22.7281 149.305 22.1923V19.7106" stroke="#689901"/>
<circle cx="144" cy="48" r="10.1667" stroke="#689901"/>
<circle cx="144" cy="48" r="2.16667" stroke="#689901"/>
<path d="M134.667 46.4242C136.741 45.6162 141.511 44 144 44C146.489 44 151.26 45.6162 153.334 46.4242M134.667 50.0606H140.109C140.214 50.0606 140.318 50.0755 140.415 50.115C141.067 50.3804 142.134 51.1383 142.134 52.4848C142.134 53.9394 142.134 56.3232 142.134 57.3333M146.489 57.3333V52.4848C146.489 51.6768 146.987 50.0606 148.978 50.0606C150.969 50.0606 152.711 50.0606 153.334 50.0606" stroke="#689901" stroke-linecap="round"/>
<circle cx="144" cy="48" r="14.1667" stroke="#689901"/>
<path d="M139 70.5C139 71.6935 139.527 72.8381 140.464 73.682C141.402 74.5259 142.674 75 144 75C145.326 75 146.598 74.5259 147.536 73.682C148.473 72.8381 149 71.6935 149 70.5C149 69.3065 148.473 68.1619 147.536 67.318C146.598 66.4741 145.326 66 144 66C142.674 66 141.402 66.4741 140.464 67.318C139.527 68.1619 139 69.3065 139 70.5Z" stroke="#689901" stroke-linecap="round" stroke-linejoin="round"/>
<path d="M136.056 75H151.944C152.304 74.9999 152.653 75.1269 152.93 75.3588C153.206 75.5907 153.393 75.9127 153.457 76.2688L155.975 90.1779C156.015 90.4007 156.007 90.6296 155.949 90.8485C155.892 91.0674 155.787 91.271 155.643 91.4448C155.498 91.6186 155.318 91.7585 155.114 91.8544C154.91 91.9503 154.687 92 154.462 92H133.538C133.313 92 133.09 91.9503 132.886 91.8544C132.682 91.7585 132.502 91.6186 132.357 91.4448C132.213 91.271 132.108 91.0674 132.051 90.8485C131.993 90.6296 131.984 90.4007 132.025 90.1779L134.543 76.2688C134.607 75.9127 134.794 75.5907 135.07 75.3588C135.347 75.1269 135.696 74.9999 136.056 75Z" stroke="#689901" stroke-linecap="round" stroke-linejoin="round"/>
<path d="M157 109.749L143.999 116.876L131 109.749M157 109.749V124H131V109.749M157 109.749L149.844 104.383L147.343 102.506L143.999 100L131 109.749" stroke="#689901" stroke-linecap="round" stroke-linejoin="round"/>
<g clip-path="url(#clip1_0_1)">
<path d="M138 144C138 145.591 138.632 147.117 139.757 148.243C140.883 149.368 142.409 150 144 150C145.591 150 147.117 149.368 148.243 148.243C149.368 147.117 150 145.591 150 144C150 142.409 149.368 140.883 148.243 139.757C147.117 138.632 145.591 138 144 138C142.409 138 140.883 138.632 139.757 139.757C138.632 140.883 138 142.409 138 144Z" stroke="#689901" stroke-linecap="round" stroke-linejoin="round"/>
<path d="M144 129L144 135" stroke="#689901" stroke-linecap="round"/>
<path d="M154.607 133.393L150.364 137.636" stroke="#689901" stroke-linecap="round"/>
<path d="M129 144L135 144" stroke="#689901" stroke-linecap="round"/>
<path d="M133.393 133.393L137.636 137.636" stroke="#689901" stroke-linecap="round"/>
<path d="M144 153L144 159" stroke="#689901" stroke-linecap="round"/>
<path d="M137.636 150.364L133.393 154.607" stroke="#689901" stroke-linecap="round"/>
<path d="M153 144L159 144" stroke="#689901" stroke-linecap="round"/>
<path d="M150.364 150.364L154.607 154.607" stroke="#689901" stroke-linecap="round"/>
</g>
<mask id="path-59-inside-2_0_1" fill="white">
<path fill-rule="evenodd" clip-rule="evenodd" d="M188.16 17.5186C186.481 18.3424 184.593 18.805 182.597 18.805C175.615 18.805 169.954 13.1444 169.954 6.16177C169.954 5.42474 170.017 4.70245 170.138 3.99998C165.945 6.05796 163.058 10.3703 163.058 15.3568C163.058 22.3394 168.718 28 175.701 28C181.947 28 187.135 23.4713 188.16 17.5186Z"/>
</mask>
<path d="M188.16 17.5186L189.146 17.6884L189.478 15.7578L187.72 16.6209L188.16 17.5186ZM170.138 3.99998L171.124 4.16977L171.456 2.23921L169.698 3.10226L170.138 3.99998ZM187.72 16.6209C186.175 17.3789 184.437 17.805 182.597 17.805V19.805C184.749 19.805 186.788 19.3059 188.601 18.4163L187.72 16.6209ZM182.597 17.805C176.167 17.805 170.954 12.5921 170.954 6.16177H168.954C168.954 13.6967 175.062 19.805 182.597 19.805V17.805ZM170.954 6.16177C170.954 5.48189 171.012 4.81639 171.124 4.16977L169.153 3.8302C169.022 4.5885 168.954 5.3676 168.954 6.16177H170.954ZM164.058 15.3568C164.058 10.7661 166.715 6.79409 170.579 4.89771L169.698 3.10226C165.175 5.32183 162.058 9.97437 162.058 15.3568H164.058ZM175.701 27C169.271 27 164.058 21.7872 164.058 15.3568H162.058C162.058 22.8917 168.166 29 175.701 29V27ZM187.175 17.3488C186.23 22.83 181.452 27 175.701 27V29C182.442 29 188.039 24.1127 189.146 17.6884L187.175 17.3488Z" fill="#689901" mask="url(#path-59-inside-2_0_1)"/>
<defs>
<clipPath id="clip0_0_1">
<rect width="32" height="32" fill="white" transform="translate(32 128)"/>
</clipPath>
<clipPath id="clip1_0_1">
<rect width="32" height="32" fill="white" transform="translate(128 128)"/>
</clipPath>
</defs>
</svg>
