<svg width="257" height="576" viewBox="0 0 257 576" fill="none" xmlns="http://www.w3.org/2000/svg">
<path d="M47.5515 56.1795L50.8522 62H14.1672L18.8825 52.7444M47.5515 56.1795C50.192 56.3067 55.3411 54.3093 54.813 45.3018C54.1529 34.0424 58.7739 20.2067 56.2276 12.5732C55.1436 9.32333 53.5809 7.78566 52.0781 7.29751M47.5515 56.1795C40.4756 57.864 37.1474 48.6936 39.5126 44.1567M18.8825 52.7444C19.7941 52.2991 22.4661 51.3895 25.8611 51.3131C29.2562 51.2368 37.5865 53.2533 41.3273 54.2711M18.8825 52.7444C17.7828 53.5039 16.3777 54.2977 14.9217 54.8521M38.5924 39.4812C22.7491 31.4661 7 38.05 7 49.5002C7 56.117 11.1335 56.2946 14.9217 54.8521M38.5924 39.4812C38.781 39.4812 38.9696 41.5804 40.7615 42.63C40.2416 43.0329 39.8268 43.5539 39.5126 44.1567M38.5924 39.4812C35.9067 30.8459 37.4891 24.2361 39.8735 20.1113M39.8735 20.1113C41.2568 17.7184 42.91 16.1618 44.1565 15.5312C47.5515 13.8137 46.797 12.0961 47.6458 9.4244C48.1332 7.89014 50.0512 6.63908 52.0781 7.29751M39.8735 20.1113C37.8747 19.3797 33.9714 16.2182 34.3487 9.4244C34.8202 0.932154 47.9287 -0.936156 52.0781 7.29751M39.5126 44.1567C36.6282 42.312 28.9732 39.1759 21.4288 41.3896C11.9982 44.1567 9.92348 50.5668 14.9217 54.8521M46.5141 20.1113C45.3901 19.666 42.7791 19.7487 41.3273 23.6418C39.5126 28.5081 39.2526 38.8133 43.6849 39.4812C48.1173 40.1492 51.7009 25.1685 46.5141 20.1113Z" stroke="#B2B2B2"/>
<path d="M3 103C3 107.4 9.66667 117.5 13 122C16.3333 117.333 23 107 23 103C23 98 18.5 93 13 93C7.5 93 3 97.5 3 103Z" stroke="#B2B2B2"/>
<path d="M41 76C41 80.4 47.6667 90.5 51 95C54.3333 90.3333 61 80 61 76C61 71 56.5 66 51 66C45.5 66 41 70.5 41 76Z" stroke="#B2B2B2"/>
<circle cx="13" cy="103" r="5.5" stroke="#B2B2B2"/>
<circle cx="51" cy="76" r="5.5" stroke="#B2B2B2"/>
<path d="M15.5 124C22.3333 125.667 36 125.8 36 113C36 97 45 97.5 50.5 98" stroke="#B2B2B2" stroke-linecap="round"/>
<path d="M32.5 176C23.3 176 11.3333 175.333 6.5 175L13.5 175.416V179C13.5 180.105 12.6046 181 11.5 181H4C2.89543 181 2 180.105 2 179V162.922C2 160.055 2.9478 157.268 4.69589 154.995L7 152C5.33333 152.667 2 153.4 2 151C2 148 3 147 8.5 149M8.5 149C9.87517 147.109 11.238 145.397 12.4378 143.966C14.6623 141.314 17.8519 139.722 21.303 139.449C24.3437 139.207 28.2611 139 32.5 139M8.5 149C6.0334 152.2 10.4722 153 13 153H32.5M28 162H20V167.5C20 167.833 20.6 168.5 23 168.5C25.4 168.5 25.8333 168.5 28 168.5M8.5 159.5C9.83333 160 11 160 15.5 160.5C17.5 161.5 17 164 15 164C13 164 8.5 164 7.5 163C6.5 162 7.5 159.168 8.5 159.5Z" stroke="#B2B2B2" stroke-linecap="round"/>
<path d="M47.0278 161.625H44.9071V169.763H50.209H55.4328V161.625H53.3433M47.0278 161.625H50.209H53.3433M47.0278 161.625C47.0278 161.819 47.0278 161.664 47.0278 159.494C47.0278 157.324 49.1486 156.652 50.209 156.588C51.2537 156.687 53.3433 157.407 53.3433 159.494C53.3433 161.581 53.3433 161.784 53.3433 161.625M50.209 167.631H48.7244L49.3607 165.694C49.2193 165.565 48.9365 165.151 48.9365 164.531C48.9365 163.756 49.5727 163.369 50.209 163.369C50.8358 163.369 51.4627 163.589 51.4627 164.531C51.4627 165.285 51.1841 165.62 51.0448 165.694L51.6716 167.631H50.209ZM50.209 150H43.8467C43.9881 152.196 42.6167 156.588 36 156.588C36.4241 171.7 44.695 177.125 50.209 181C58.9851 175.267 64 167.631 64 156.588C57.4806 156.588 56.1294 152.196 56.2687 150H50.209Z" stroke="#B2B2B2"/>
<path d="M47.0278 225.625H44.9071V233.763H50.209H55.4328V225.625H53.3433M47.0278 225.625H50.209H53.3433M47.0278 225.625C47.0278 225.819 47.0278 225.664 47.0278 223.494C47.0278 221.324 49.1486 220.652 50.209 220.588C51.2537 220.687 53.3433 221.407 53.3433 223.494C53.3433 225.581 53.3433 225.784 53.3433 225.625M50.209 231.631H48.7244L49.3607 229.694C49.2193 229.565 48.9365 229.151 48.9365 228.531C48.9365 227.756 49.5727 227.369 50.209 227.369C50.8358 227.369 51.4627 227.589 51.4627 228.531C51.4627 229.285 51.1841 229.62 51.0448 229.694L51.6716 231.631H50.209ZM50.209 214H43.8467C43.9881 216.196 42.6167 220.588 36 220.588C36.4241 235.7 44.695 241.125 50.209 245C58.9851 239.267 64 231.631 64 220.588C57.4806 220.588 56.1294 216.196 56.2687 214H50.209Z" stroke="#B2B2B2"/>
<path d="M40.1943 243.435C36.6185 245.127 32.6452 245.799 28.7119 245.378C24.7785 244.957 21.0376 243.459 17.9007 241.049C14.7639 238.639 12.3528 235.41 10.9329 231.718C9.51292 228.025 9.13911 224.013 9.85262 220.122C10.5661 216.231 12.3393 212.612 14.9769 209.664C17.6145 206.716 21.0144 204.553 24.8023 203.413C28.5902 202.272 32.6193 202.199 36.4461 203.201C40.2729 204.203 43.749 206.242 46.492 209.092" stroke="#B2B2B2"/>
<path d="M36.2545 236.435C34.0792 237.355 31.7008 237.687 29.3568 237.4C27.0128 237.112 24.7852 236.215 22.8965 234.797C21.0077 233.38 19.5238 231.492 18.593 229.321C17.6621 227.151 17.3169 224.774 17.5917 222.429C17.8666 220.083 18.7519 217.851 20.1593 215.955C21.5667 214.058 23.4469 212.564 25.6123 211.622C27.7776 210.679 30.1523 210.321 32.4993 210.584C34.8462 210.846 37.0833 211.719 38.9872 213.116" stroke="#B2B2B2"/>
<path d="M31 229.5C29.5413 229.5 28.1424 228.921 27.1109 227.889C26.0795 226.858 25.5 225.459 25.5 224C25.5 222.541 26.0795 221.142 27.1109 220.111C28.1424 219.079 29.5413 218.5 31 218.5" stroke="#B2B2B2"/>
<path d="M31 211V210V219M19 217L26.5 221.5M20 231L26.5 226.5M31 238V229" stroke="#B2B2B2"/>
<path d="M33.0797 284.652C34.7131 287.059 36.8699 287.975 38.2887 288.104C38.3464 288.109 38.4035 288.108 38.4611 288.101C39.8958 287.928 42.0857 287.081 43.7255 284.652M33.0797 284.652C31.7791 282.735 30.8103 279.872 30.8103 275.708C30.8103 270.431 33.5841 267 38.375 267C43.166 267 45.9397 270.167 45.9397 275.708C45.9397 279.393 45.2215 282.025 44.1917 283.889C44.0425 284.159 43.8867 284.413 43.7255 284.652M33.0797 284.652L33.0568 288.111M43.7255 284.652V287.453C43.7255 287.863 43.9761 288.232 44.3585 288.379C50.2267 290.634 53.375 290.881 53.375 298.125V300.028C53.375 300.58 52.9273 301.028 52.375 301.028H41.5237H37.25" stroke="#B2B2B2"/>
<circle cx="21.875" cy="299.625" r="8.75" stroke="#B2B2B2"/>
<circle cx="21.875" cy="299.625" r="1.8125" stroke="#B2B2B2"/>
<path d="M13.7812 298.259C15.5799 297.558 19.7167 296.156 21.875 296.156C24.0333 296.156 28.1701 297.558 29.9687 298.259M13.7812 301.412H18.4792C18.5841 301.412 18.6887 301.427 18.7854 301.467C19.3523 301.704 20.2562 302.36 20.2562 303.514C20.2562 304.776 20.2562 306.843 20.2562 307.719M24.0333 307.719V303.514C24.0333 302.813 24.465 301.412 26.1917 301.412C27.9183 301.412 29.4292 301.412 29.9687 301.412" stroke="#B2B2B2" stroke-linecap="round"/>
<circle cx="21.875" cy="299.625" r="12.2187" stroke="#B2B2B2"/>
<path d="M7.80247 367.969L7.76577 368.2H8H18.4125H18.5836L18.6101 368.031L20.4346 356.415H32.2506H32.4214L32.4481 356.246L33.7337 348.125L33.7703 347.894H33.5362H21.7866L22.3703 344.321H35.2474H35.4183L35.445 344.153L36.7306 336.031L36.7672 335.8H36.533H13.076H12.9053L12.8785 335.969L7.80247 367.969ZM19.8867 355.574H19.7157L19.6892 355.743L17.8647 367.359H8.75048L13.6231 336.641H35.7828L34.7003 343.48H21.8259H21.6559L21.6285 343.648L20.8352 348.503L20.7973 348.735H21.0326H32.7859L31.7034 355.574H19.8867ZM33.7978 367.969L33.7611 368.2H33.9954H57.0124H57.1834L57.21 368.031L58.5826 359.292L58.6189 359.061H58.385H46.016L49.6812 336.031L49.718 335.8H49.4836H39.0714H38.9006L38.8739 335.969L33.7978 367.969ZM45.0676 359.671L45.0308 359.902H45.2651H57.6357L56.4645 367.359H34.7458L39.6184 336.641H48.7328L45.0676 359.671ZM59.7071 367.969L59.6704 368.2H59.9047H83.8467H84.0175L84.0443 368.031L85.3299 359.91L85.3665 359.679H85.1323H71.3974L71.9848 356.018H84.7281H84.899L84.9257 355.849L86.2113 347.728L86.2479 347.497H86.0137H73.3348L73.8371 344.321H87.6369H87.8077L87.8344 344.153L89.12 336.031L89.1566 335.8H88.9225H64.9807H64.8099L64.7832 335.969L59.7071 367.969ZM70.448 360.288L70.4109 360.52H70.6455H84.3821L83.2995 367.359H60.6551L65.5277 336.641H88.1722L87.0897 343.48H73.2898H73.119L73.0923 343.649L72.3871 348.107L72.3505 348.338H72.5847H85.2635L84.181 355.177H71.4388H71.2683L71.2413 355.345L70.448 360.288ZM86.1842 367.865L85.8779 368.2H86.3318H98.9485H99.0397L99.0995 368.131L106.209 359.941L110.696 368.096L110.753 368.2H110.871H122.71H123.064L122.882 367.897L113.421 352.209L128.147 336.135L128.454 335.8H128H115.337H115.246L115.186 335.869L108.267 343.882L103.991 335.906L103.935 335.8H103.815H92.0229H91.6715L91.851 336.102L101.058 351.6L86.1842 367.865ZM106.503 358.73L106.365 358.479L106.177 358.696L98.6564 367.359H87.787L102 351.816L102.1 351.707L102.024 351.579L93.1494 336.641H103.432L107.967 345.101L108.104 345.358L108.295 345.137L115.63 336.641H126.543L112.477 351.995L112.376 352.105L112.454 352.233L121.575 367.359H111.25L106.503 358.73Z" fill="#B2B2B2" stroke="#B2B2B2" stroke-width="0.4"/>
<path d="M96 111C93.1914 110.813 88.8053 109.101 85.5 104.445M96 111C98.8397 110.716 103.292 109.142 106.61 104.445M96 111L92 120M96 111L100.5 120M85.5 104.445C82.921 100.813 81 95.3892 81 87.5C81 77.5 86.5 71 96 71C105.5 71 111 77 111 87.5C111 94.4811 109.576 99.4687 107.534 103M85.5 104.445L84 109L85.4545 111M92 120H100.5M92 120L91 125M92 120L85.4545 111M100.5 120L101.5 125M100.5 120L106.61 111.039M106.61 104.445L108 109L106.61 111.039M106.61 104.445C106.929 103.993 107.238 103.512 107.534 103M91 125H101.5M91 125H67V119.5C67.4697 117.487 71.8182 112.969 85.4545 111M101.5 125H125V119.5C123.24 116.857 117.097 111.464 106.61 111.039M114 84.5C114 78.6667 110.4 67 96 67C81 67 78 80.5 78 84.5M114 84.5V84.5C112.895 84.5 112 85.3954 112 86.5V93.5C112 94.6046 112.895 95.5 114 95.5H114.25M114 84.5H116C117.105 84.5 118 85.3954 118 86.5V93.5C118 94.6046 117.105 95.5 116 95.5H114.25M78 84.5H75.5C74.3954 84.5 73.5 85.3954 73.5 86.5V93.5C73.5 94.6046 74.3954 95.5 75.5 95.5H78C79.1046 95.5 80 94.6046 80 93.5V86.5C80 85.3954 79.1046 84.5 78 84.5V84.5ZM114.25 95.5C114.023 98 112.361 103 107.534 103M107.534 103L97.5 103.5" stroke="#B2B2B2" stroke-linecap="round"/>
<path d="M96.5 176C87.3 176 75.3333 175.333 70.5 175L77.5 175.416V179C77.5 180.105 76.6046 181 75.5 181H68C66.8954 181 66 180.105 66 179V162.922C66 160.055 66.9478 157.268 68.6959 154.995L71 152C69.3333 152.667 66 153.4 66 151C66 148 67 147 72.5 149M72.5 149C73.8752 147.109 75.238 145.397 76.4378 143.966C78.6623 141.314 81.8519 139.722 85.303 139.449C88.3437 139.207 92.2611 139 96.5 139M72.5 149C70.0334 152.2 74.4722 153 77 153H96.5M96.5 162H84V167.5C84 167.833 84.6 168.5 87 168.5C89.4 168.5 94.3333 168.5 96.5 168.5M72.5 159.5C73.8333 160 75 160 79.5 160.5C81.5 161.5 81 164 79 164C77 164 72.5 164 71.5 163C70.5 162 71.5 159.168 72.5 159.5Z" stroke="#B2B2B2" stroke-linecap="round"/>
<path d="M95 176C104.2 176 116.167 175.333 121 175L114 175.416V179C114 180.105 114.895 181 116 181H123.5C124.605 181 125.5 180.105 125.5 179V162.922C125.5 160.055 124.552 157.268 122.804 154.995L120.5 152C122.167 152.667 125.5 153.4 125.5 151C125.5 148 124.5 147 119 149M119 149C117.625 147.109 116.262 145.397 115.062 143.966C112.838 141.314 109.648 139.722 106.197 139.449C103.156 139.207 99.2389 139 95 139M119 149C121.467 152.2 117.028 153 114.5 153H95M95 162H107.5V167.5C107.5 167.833 106.9 168.5 104.5 168.5C102.1 168.5 97.1667 168.5 95 168.5M119 159.5C117.667 160 116.5 160 112 160.5C110 161.5 110.5 164 112.5 164C114.5 164 119 164 120 163C121 162 120 159.168 119 159.5Z" stroke="#B2B2B2" stroke-linecap="round"/>
<path d="M65 238H78.5M78.5 238C78.5 236.5 80 233 84 233C88 233 89 236.5 89 238M78.5 238C78.5 240 80 244 84 244C88 244 89 240 89 238M89 238L97 238.5V229.5C95.5 227.667 90 224 80 224C77 220 71.5 217 67.5 217H65M76 225C76 225.833 75.5 227.5 73.5 227.5C71.5 227.5 67 227.5 65 227.5" stroke="#B2B2B2" stroke-linecap="round"/>
<path d="M87 220L80 212L89 214L88 204L95.5 214L103.5 204L103 214L112 212L104.5 220M109.5 238.5C106.833 238.833 101.5 238.6 101.5 235C101.5 231.4 101.5 227.833 101.5 226.5C101.833 225.333 103.9 223.1 109.5 223.5C114.5 220 114 217 127 217M109.5 238.5C109.5 238 109.5 233 115 233C119.4 233 120.5 236.667 120.5 238.5M109.5 238.5C109.5 240.167 110.6 243.5 115 243.5C119.4 243.5 120.5 240.167 120.5 238.5M115.5 223.5C115.667 224.5 116.9 226.5 120.5 226.5C124.1 226.5 126.333 226.5 127 226.5M127 238.5H120.5" stroke="#B2B2B2" stroke-linecap="round"/>
<path d="M66 283C66 287.4 72.6667 297.5 76 302C79.3333 297.333 86 287 86 283C86 278 81.5 273 76 273C70.5 273 66 277.5 66 283Z" stroke="#B2B2B2"/>
<circle cx="76" cy="283" r="5.5" stroke="#B2B2B2"/>
<path d="M66 318C75.8333 314 95.5 302.3 95.5 287.5C95.5 278.5 88.5 273 88.5 268C88.5 264 99.1667 259.667 104.5 258M114 258C107.667 260.167 98.2 266.8 111 276C127 287.5 133 303 113 318" stroke="#B2B2B2" stroke-linecap="round"/>
<path d="M70.9566 14.25L74.9567 10L87.9567 22.5C87.1293 23.224 85.5958 24.5898 84.0733 26M70.9566 14.25L66.9566 18.5C64.9566 21 62.7566 27.8 69.9566 35C77.1566 42.2 89.29 54.3333 94.4567 59.5C96.29 61.8333 101.757 65.5 108.957 61.5C111.254 59.5308 113.069 57.8309 114.457 56.4417M70.9566 14.25L84.0733 26M84.0733 26C83.1424 26.8623 82.2155 27.7411 81.4567 28.5C79.4567 30.5 79.9567 32.6667 80.4567 33.5C82.9567 36 88.7567 41.8 91.9567 45C95.1567 48.2 97.29 47.3333 97.9567 46.5L100.957 43.25M100.957 43.25L103.957 40L117.957 52.5C117.563 53.0898 116.452 54.4447 114.457 56.4417M100.957 43.25L114.457 56.4417" stroke="#B2B2B2" stroke-linecap="round"/>
<path d="M81 5.71686C86.7422 2.32244 93.4751 0.91559 100.126 1.72145C106.776 2.52731 112.96 5.49924 117.692 10.162C122.424 14.8246 125.432 20.9095 126.238 27.4466C127.045 33.9837 125.604 40.5988 122.144 46.2382" stroke="#B2B2B2"/>
<path d="M93.7567 30V29.08L98.8967 23.68C99.5767 22.9733 100.09 22.2933 100.437 21.64C100.783 20.9733 100.957 20.2733 100.957 19.54C100.957 18.66 100.683 17.9933 100.137 17.54C99.6033 17.0867 98.8233 16.86 97.7967 16.86C97.01 16.86 96.29 17 95.6367 17.28C94.9833 17.56 94.3633 17.9867 93.7767 18.56L93.2767 17.56C93.7967 17.0133 94.4633 16.5733 95.2767 16.24C96.09 15.9067 96.9567 15.74 97.8767 15.74C99.2633 15.74 100.33 16.0667 101.077 16.72C101.837 17.36 102.217 18.28 102.217 19.48C102.217 20.36 101.997 21.2133 101.557 22.04C101.117 22.8533 100.49 23.68 99.6767 24.52L95.0167 29.28V28.9H102.837V30H93.7567ZM110.949 30V26.8H104.029V25.88L111.149 15.9H112.169V25.76H114.409V26.8H112.169V30H110.949ZM110.949 25.76V17.36H111.369L105.149 26.08V25.76H110.949Z" fill="#B2B2B2"/>
<path d="M175.551 56.1795L178.852 62H142.167L146.883 52.7444M175.551 56.1795C178.192 56.3067 183.341 54.3093 182.813 45.3018C182.153 34.0424 186.774 20.2067 184.228 12.5732C183.144 9.32333 181.581 7.78566 180.078 7.29751M175.551 56.1795C168.476 57.864 165.147 48.6936 167.513 44.1567M146.883 52.7444C147.794 52.2991 150.466 51.3895 153.861 51.3131C157.256 51.2368 165.586 53.2533 169.327 54.2711M146.883 52.7444C145.783 53.5039 144.378 54.2977 142.922 54.8521M166.592 39.4812C150.749 31.4661 135 38.05 135 49.5002C135 56.117 139.133 56.2946 142.922 54.8521M166.592 39.4812C166.781 39.4812 166.97 41.5804 168.761 42.63C168.242 43.0329 167.827 43.5539 167.513 44.1567M166.592 39.4812C163.907 30.8459 165.489 24.2361 167.874 20.1113M167.874 20.1113C169.257 17.7184 170.91 16.1618 172.156 15.5312C175.551 13.8137 174.797 12.0961 175.646 9.4244C176.133 7.89014 178.051 6.63908 180.078 7.29751M167.874 20.1113C165.875 19.3797 161.971 16.2182 162.349 9.4244C162.82 0.932154 175.929 -0.936156 180.078 7.29751M167.513 44.1567C164.628 42.312 156.973 39.1759 149.429 41.3896C139.998 44.1567 137.923 50.5668 142.922 54.8521M174.514 20.1113C173.39 19.666 170.779 19.7487 169.327 23.6418C167.513 28.5081 167.253 38.8133 171.685 39.4812C176.117 40.1492 179.701 25.1685 174.514 20.1113Z" stroke="#689901"/>
<path d="M131 103C131 107.4 137.667 117.5 141 122C144.333 117.333 151 107 151 103C151 98 146.5 93 141 93C135.5 93 131 97.5 131 103Z" stroke="#689901"/>
<path d="M169 76C169 80.4 175.667 90.5 179 95C182.333 90.3333 189 80 189 76C189 71 184.5 66 179 66C173.5 66 169 70.5 169 76Z" stroke="#689901"/>
<circle cx="141" cy="103" r="5.5" stroke="#689901"/>
<circle cx="179" cy="76" r="5.5" stroke="#689901"/>
<path d="M143.5 124C150.333 125.667 164 125.8 164 113C164 97 173 97.5 178.5 98" stroke="#689901" stroke-linecap="round"/>
<path d="M160.5 176C151.3 176 139.333 175.333 134.5 175L141.5 175.416V179C141.5 180.105 140.605 181 139.5 181H132C130.895 181 130 180.105 130 179V162.922C130 160.055 130.948 157.268 132.696 154.995L135 152C133.333 152.667 130 153.4 130 151C130 148 131 147 136.5 149M136.5 149C137.875 147.109 139.238 145.397 140.438 143.966C142.662 141.314 145.852 139.722 149.303 139.449C152.344 139.207 156.261 139 160.5 139M136.5 149C134.033 152.2 138.472 153 141 153H160.5M156 162H148V167.5C148 167.833 148.6 168.5 151 168.5C153.4 168.5 153.833 168.5 156 168.5M136.5 159.5C137.833 160 139 160 143.5 160.5C145.5 161.5 145 164 143 164C141 164 136.5 164 135.5 163C134.5 162 135.5 159.168 136.5 159.5Z" stroke="#689901" stroke-linecap="round"/>
<path d="M175.028 161.625H172.907V169.763H178.209H183.433V161.625H181.343M175.028 161.625H178.209H181.343M175.028 161.625C175.028 161.819 175.028 161.664 175.028 159.494C175.028 157.324 177.149 156.652 178.209 156.588C179.254 156.687 181.343 157.407 181.343 159.494C181.343 161.581 181.343 161.784 181.343 161.625M178.209 167.631H176.724L177.361 165.694C177.219 165.565 176.937 165.151 176.937 164.531C176.937 163.756 177.573 163.369 178.209 163.369C178.836 163.369 179.463 163.589 179.463 164.531C179.463 165.285 179.184 165.62 179.045 165.694L179.672 167.631H178.209ZM178.209 150H171.847C171.988 152.196 170.617 156.588 164 156.588C164.424 171.7 172.695 177.125 178.209 181C186.985 175.267 192 167.631 192 156.588C185.481 156.588 184.129 152.196 184.269 150H178.209Z" stroke="#689901"/>
<path d="M175.028 225.625H172.907V233.763H178.209H183.433V225.625H181.343M175.028 225.625H178.209H181.343M175.028 225.625C175.028 225.819 175.028 225.664 175.028 223.494C175.028 221.324 177.149 220.652 178.209 220.588C179.254 220.687 181.343 221.407 181.343 223.494C181.343 225.581 181.343 225.784 181.343 225.625M178.209 231.631H176.724L177.361 229.694C177.219 229.565 176.937 229.151 176.937 228.531C176.937 227.756 177.573 227.369 178.209 227.369C178.836 227.369 179.463 227.589 179.463 228.531C179.463 229.285 179.184 229.62 179.045 229.694L179.672 231.631H178.209ZM178.209 214H171.847C171.988 216.196 170.617 220.588 164 220.588C164.424 235.7 172.695 241.125 178.209 245C186.985 239.267 192 231.631 192 220.588C185.481 220.588 184.129 216.196 184.269 214H178.209Z" stroke="#689901"/>
<path d="M168.194 243.435C164.618 245.127 160.645 245.799 156.712 245.378C152.779 244.957 149.038 243.459 145.901 241.049C142.764 238.639 140.353 235.41 138.933 231.718C137.513 228.025 137.139 224.013 137.853 220.122C138.566 216.231 140.339 212.612 142.977 209.664C145.615 206.716 149.014 204.553 152.802 203.413C156.59 202.272 160.619 202.199 164.446 203.201C168.273 204.203 171.749 206.242 174.492 209.092" stroke="#689901"/>
<path d="M164.255 236.435C162.079 237.355 159.701 237.687 157.357 237.4C155.013 237.112 152.785 236.215 150.896 234.797C149.008 233.38 147.524 231.492 146.593 229.321C145.662 227.151 145.317 224.774 145.592 222.429C145.867 220.083 146.752 217.851 148.159 215.955C149.567 214.058 151.447 212.564 153.612 211.622C155.778 210.679 158.152 210.321 160.499 210.584C162.846 210.846 165.083 211.719 166.987 213.116" stroke="#689901"/>
<path d="M159 229.5C157.541 229.5 156.142 228.921 155.111 227.889C154.079 226.858 153.5 225.459 153.5 224C153.5 222.541 154.079 221.142 155.111 220.111C156.142 219.079 157.541 218.5 159 218.5" stroke="#689901"/>
<path d="M159 211V210V219M147 217L154.5 221.5M148 231L154.5 226.5M159 238V229" stroke="#689901"/>
<path d="M161.08 284.652C162.713 287.059 164.87 287.975 166.289 288.104C166.346 288.109 166.403 288.108 166.461 288.101C167.896 287.928 170.086 287.081 171.726 284.652M161.08 284.652C159.779 282.735 158.81 279.872 158.81 275.708C158.81 270.431 161.584 267 166.375 267C171.166 267 173.94 270.167 173.94 275.708C173.94 279.393 173.222 282.025 172.192 283.889C172.042 284.159 171.887 284.413 171.726 284.652M161.08 284.652L161.057 288.111M171.726 284.652V287.453C171.726 287.863 171.976 288.232 172.359 288.379C178.227 290.634 181.375 290.881 181.375 298.125V300.028C181.375 300.58 180.927 301.028 180.375 301.028H169.524H165.25" stroke="#689901"/>
<circle cx="149.875" cy="299.625" r="8.75" stroke="#689901"/>
<circle cx="149.875" cy="299.625" r="1.8125" stroke="#689901"/>
<path d="M141.781 298.259C143.58 297.558 147.717 296.156 149.875 296.156C152.033 296.156 156.17 297.558 157.969 298.259M141.781 301.412H146.479C146.584 301.412 146.689 301.427 146.785 301.467C147.352 301.704 148.256 302.36 148.256 303.514C148.256 304.776 148.256 306.843 148.256 307.719M152.033 307.719V303.514C152.033 302.813 152.465 301.412 154.192 301.412C155.918 301.412 157.429 301.412 157.969 301.412" stroke="#689901" stroke-linecap="round"/>
<circle cx="149.875" cy="299.625" r="12.2187" stroke="#689901"/>
<path d="M135.802 367.969L135.766 368.2H136H146.413H146.584L146.61 368.031L148.435 356.415H160.251H160.421L160.448 356.246L161.734 348.125L161.77 347.894H161.536H149.787L150.37 344.321H163.247H163.418L163.445 344.153L164.731 336.031L164.767 335.8H164.533H141.076H140.905L140.879 335.969L135.802 367.969ZM147.887 355.574H147.716L147.689 355.743L145.865 367.359H136.75L141.623 336.641H163.783L162.7 343.48H149.826H149.656L149.629 343.648L148.835 348.503L148.797 348.735H149.033H160.786L159.703 355.574H147.887ZM161.798 367.969L161.761 368.2H161.995H185.012H185.183L185.21 368.031L186.583 359.292L186.619 359.061H186.385H174.016L177.681 336.031L177.718 335.8H177.484H167.071H166.901L166.874 335.969L161.798 367.969ZM173.068 359.671L173.031 359.902H173.265H185.636L184.465 367.359H162.746L167.618 336.641H176.733L173.068 359.671ZM187.707 367.969L187.67 368.2H187.905H211.847H212.018L212.044 368.031L213.33 359.91L213.366 359.679H213.132H199.397L199.985 356.018H212.728H212.899L212.926 355.849L214.211 347.728L214.248 347.497H214.014H201.335L201.837 344.321H215.637H215.808L215.834 344.153L217.12 336.031L217.157 335.8H216.922H192.981H192.81L192.783 335.969L187.707 367.969ZM198.448 360.288L198.411 360.52H198.646H212.382L211.3 367.359H188.655L193.528 336.641H216.172L215.09 343.48H201.29H201.119L201.092 343.649L200.387 348.107L200.351 348.338H200.585H213.264L212.181 355.177H199.439H199.268L199.241 355.345L198.448 360.288ZM214.184 367.865L213.878 368.2H214.332H226.948H227.04L227.099 368.131L234.209 359.941L238.696 368.096L238.753 368.2H238.871H250.71H251.064L250.882 367.897L241.421 352.209L256.147 336.135L256.454 335.8H256H243.337H243.246L243.186 335.869L236.267 343.882L231.991 335.906L231.935 335.8H231.815H220.023H219.671L219.851 336.102L229.058 351.6L214.184 367.865ZM234.503 358.73L234.365 358.479L234.177 358.696L226.656 367.359H215.787L230 351.816L230.1 351.707L230.024 351.579L221.149 336.641H231.432L235.967 345.101L236.104 345.358L236.295 345.137L243.63 336.641H254.543L240.477 351.995L240.376 352.105L240.454 352.233L249.575 367.359H239.25L234.503 358.73Z" fill="#689901" stroke="#689901" stroke-width="0.4"/>
<path d="M224 111C221.191 110.813 216.805 109.101 213.5 104.445M224 111C226.84 110.716 231.292 109.142 234.61 104.445M224 111L220 120M224 111L228.5 120M213.5 104.445C210.921 100.813 209 95.3892 209 87.5C209 77.5 214.5 71 224 71C233.5 71 239 77 239 87.5C239 94.4811 237.576 99.4687 235.534 103M213.5 104.445L212 109L213.455 111M220 120H228.5M220 120L219 125M220 120L213.455 111M228.5 120L229.5 125M228.5 120L234.61 111.039M234.61 104.445L236 109L234.61 111.039M234.61 104.445C234.929 103.993 235.238 103.512 235.534 103M219 125H229.5M219 125H195V119.5C195.47 117.487 199.818 112.969 213.455 111M229.5 125H253V119.5C251.24 116.857 245.097 111.464 234.61 111.039M242 84.5C242 78.6667 238.4 67 224 67C209 67 206 80.5 206 84.5M242 84.5V84.5C240.895 84.5 240 85.3954 240 86.5V93.5C240 94.6046 240.895 95.5 242 95.5H242.25M242 84.5H244C245.105 84.5 246 85.3954 246 86.5V93.5C246 94.6046 245.105 95.5 244 95.5H242.25M206 84.5H203.5C202.395 84.5 201.5 85.3954 201.5 86.5V93.5C201.5 94.6046 202.395 95.5 203.5 95.5H206C207.105 95.5 208 94.6046 208 93.5V86.5C208 85.3954 207.105 84.5 206 84.5V84.5ZM242.25 95.5C242.023 98 240.361 103 235.534 103M235.534 103L225.5 103.5" stroke="#689901" stroke-linecap="round"/>
<path d="M224.5 176C215.3 176 203.333 175.333 198.5 175L205.5 175.416V179C205.5 180.105 204.605 181 203.5 181H196C194.895 181 194 180.105 194 179V162.922C194 160.055 194.948 157.268 196.696 154.995L199 152C197.333 152.667 194 153.4 194 151C194 148 195 147 200.5 149M200.5 149C201.875 147.109 203.238 145.397 204.438 143.966C206.662 141.314 209.852 139.722 213.303 139.449C216.344 139.207 220.261 139 224.5 139M200.5 149C198.033 152.2 202.472 153 205 153H224.5M224.5 162H212V167.5C212 167.833 212.6 168.5 215 168.5C217.4 168.5 222.333 168.5 224.5 168.5M200.5 159.5C201.833 160 203 160 207.5 160.5C209.5 161.5 209 164 207 164C205 164 200.5 164 199.5 163C198.5 162 199.5 159.168 200.5 159.5Z" stroke="#689901" stroke-linecap="round"/>
<path d="M223 176C232.2 176 244.167 175.333 249 175L242 175.416V179C242 180.105 242.895 181 244 181H251.5C252.605 181 253.5 180.105 253.5 179V162.922C253.5 160.055 252.552 157.268 250.804 154.995L248.5 152C250.167 152.667 253.5 153.4 253.5 151C253.5 148 252.5 147 247 149M247 149C245.625 147.109 244.262 145.397 243.062 143.966C240.838 141.314 237.648 139.722 234.197 139.449C231.156 139.207 227.239 139 223 139M247 149C249.467 152.2 245.028 153 242.5 153H223M223 162H235.5V167.5C235.5 167.833 234.9 168.5 232.5 168.5C230.1 168.5 225.167 168.5 223 168.5M247 159.5C245.667 160 244.5 160 240 160.5C238 161.5 238.5 164 240.5 164C242.5 164 247 164 248 163C249 162 248 159.168 247 159.5Z" stroke="#689901" stroke-linecap="round"/>
<path d="M193 238H206.5M206.5 238C206.5 236.5 208 233 212 233C216 233 217 236.5 217 238M206.5 238C206.5 240 208 244 212 244C216 244 217 240 217 238M217 238L225 238.5V229.5C223.5 227.667 218 224 208 224C205 220 199.5 217 195.5 217H193M204 225C204 225.833 203.5 227.5 201.5 227.5C199.5 227.5 195 227.5 193 227.5" stroke="#689901" stroke-linecap="round"/>
<path d="M215 220L208 212L217 214L216 204L223.5 214L231.5 204L231 214L240 212L232.5 220M237.5 238.5C234.833 238.833 229.5 238.6 229.5 235C229.5 231.4 229.5 227.833 229.5 226.5C229.833 225.333 231.9 223.1 237.5 223.5C242.5 220 242 217 255 217M237.5 238.5C237.5 238 237.5 233 243 233C247.4 233 248.5 236.667 248.5 238.5M237.5 238.5C237.5 240.167 238.6 243.5 243 243.5C247.4 243.5 248.5 240.167 248.5 238.5M243.5 223.5C243.667 224.5 244.9 226.5 248.5 226.5C252.1 226.5 254.333 226.5 255 226.5M255 238.5H248.5" stroke="#689901" stroke-linecap="round"/>
<path d="M194 283C194 287.4 200.667 297.5 204 302C207.333 297.333 214 287 214 283C214 278 209.5 273 204 273C198.5 273 194 277.5 194 283Z" stroke="#689901"/>
<circle cx="204" cy="283" r="5.5" stroke="#689901"/>
<path d="M194 318C203.833 314 223.5 302.3 223.5 287.5C223.5 278.5 216.5 273 216.5 268C216.5 264 227.167 259.667 232.5 258M242 258C235.667 260.167 226.2 266.8 239 276C255 287.5 261 303 241 318" stroke="#689901" stroke-linecap="round"/>
<path d="M198.957 14.25L202.957 10L215.957 22.5C215.129 23.224 213.596 24.5898 212.073 26M198.957 14.25L194.957 18.5C192.957 21 190.757 27.8 197.957 35C205.157 42.2 217.29 54.3333 222.457 59.5C224.29 61.8333 229.757 65.5 236.957 61.5C239.254 59.5308 241.069 57.8309 242.457 56.4417M198.957 14.25L212.073 26M212.073 26C211.142 26.8623 210.216 27.7411 209.457 28.5C207.457 30.5 207.957 32.6667 208.457 33.5C210.957 36 216.757 41.8 219.957 45C223.157 48.2 225.29 47.3333 225.957 46.5L228.957 43.25M228.957 43.25L231.957 40L245.957 52.5C245.563 53.0898 244.452 54.4447 242.457 56.4417M228.957 43.25L242.457 56.4417" stroke="#689901" stroke-linecap="round"/>
<path d="M209 5.71686C214.742 2.32244 221.475 0.91559 228.126 1.72145C234.776 2.52731 240.96 5.49924 245.692 10.162C250.424 14.8246 253.432 20.9095 254.238 27.4466C255.045 33.9837 253.604 40.5988 250.144 46.2382" stroke="#689901"/>
<path d="M221.757 30V29.08L226.897 23.68C227.577 22.9733 228.09 22.2933 228.437 21.64C228.783 20.9733 228.957 20.2733 228.957 19.54C228.957 18.66 228.683 17.9933 228.137 17.54C227.603 17.0867 226.823 16.86 225.797 16.86C225.01 16.86 224.29 17 223.637 17.28C222.983 17.56 222.363 17.9867 221.777 18.56L221.277 17.56C221.797 17.0133 222.463 16.5733 223.277 16.24C224.09 15.9067 224.957 15.74 225.877 15.74C227.263 15.74 228.33 16.0667 229.077 16.72C229.837 17.36 230.217 18.28 230.217 19.48C230.217 20.36 229.997 21.2133 229.557 22.04C229.117 22.8533 228.49 23.68 227.677 24.52L223.017 29.28V28.9H230.837V30H221.757ZM238.949 30V26.8H232.029V25.88L239.149 15.9H240.169V25.76H242.409V26.8H240.169V30H238.949ZM238.949 25.76V17.36H239.369L233.149 26.08V25.76H238.949Z" fill="#689901"/>
<path d="M18.5263 396.879V390.737H57.2632V429.639M57.2632 429.639L45.3441 442.947M57.2632 429.639H45.3441V442.947M45.3441 442.947H18.5263V427.789M9.26318 420.425L10.2564 426.568L16.216 424.52M9.26318 420.425L16.216 424.52M9.26318 420.425L20.189 403.022L26.1485 407.117L24.3957 410.188M16.216 424.52L24.3957 410.188M24.3957 410.188L18.2025 406.093M27.7895 403.022L52.2969 403.022M29.4737 409.164H52.2969M26.1485 415.307H52.2969M24.3957 420.425H52.2969M24.3957 425.263H52.2969" stroke="#B2B2B2"/>
<path d="M78.6767 400.842H69.0526V410.316M78.6767 400.842C78.0351 404 75.212 410.316 69.0526 410.316M78.6767 400.842H113.323M69.0526 410.316V420.737M69.0526 420.737V431.158H78.6767M69.0526 420.737C72.2606 422 78.6767 425.853 78.6767 431.158M78.6767 431.158H113.323M113.323 431.158H122.947V421.684M113.323 431.158C114.286 428 117.558 421.684 122.947 421.684M122.947 421.684V411.263M122.947 411.263V400.842H113.323M122.947 411.263C119.739 410.316 113.323 406.905 113.323 400.842M96 408.421C100.812 408.421 103.699 412.211 103.699 416C103.699 419.789 100.812 423.579 96 423.579C91.188 423.579 88.3007 419.789 88.3007 416C88.3007 412.211 91.188 408.421 96 408.421Z" stroke="#B2B2B2"/>
<g clip-path="url(#clip0_0_1)">
<path d="M16.9744 471.848L10.1487 468.554L20.4758 452.967L38.6777 461.751L33.6594 479.9L26.8337 476.606M16.9744 471.848L14.0464 477.915L16.3217 479.013M16.9744 471.848L26.8337 476.606M26.8337 476.606L23.9058 482.673L20.8721 481.209M16.3217 479.013L5.34177 501.765L6.15302 505.897L11.7751 503.935L11.3562 500.928L14.7294 499.75L13.1862 497.136L17.3178 496.324L15.3822 492.585L20.8721 481.209M16.3217 479.013L20.8721 481.209M42.652 468.634C44.9871 467.154 48.0748 466.855 49.3268 466.89L62.5748 486.468C62.2666 487.618 60.6437 490.5 56.6182 492.824C52.5926 495.149 49.1882 495.169 47.9891 494.889L37.6582 473.627C38.3499 472.58 40.317 470.114 42.652 468.634ZM42.652 468.634L40.5635 465.017C42.5484 464.02 45.8915 460.94 43.3853 456.599C40.2526 451.173 34.9014 453.872 32.7904 455.09M22.0455 457.464L19.4835 462.773L32.3765 468.995L34.9385 463.686L22.0455 457.464ZM41.1861 474.507L43.2914 478.154L50.5073 473.988L48.4021 470.341L41.1861 474.507ZM45.3966 481.8L47.0808 484.717L54.2968 480.551L52.1916 476.905L44.9756 481.071L45.3966 481.8Z" stroke="#B2B2B2"/>
</g>
<path d="M66.5263 501.053C71.5227 498.919 75.7895 494.63 75.7895 486.737M124.472 471.579C121.254 472.735 120.421 477.474 122.947 481.179C128.684 489.593 123.306 495.916 113.144 503.916" stroke="#B2B2B2" stroke-linecap="round"/>
<path d="M97.6842 491.348C91.0799 491.348 82.4895 490.84 79.0198 490.586L84.0449 490.903V493.158C84.0449 494.262 83.1494 495.158 82.0449 495.158H77.7895C76.6849 495.158 75.7895 494.262 75.7895 493.158V482.231C75.7895 479.49 76.6553 476.82 78.2634 474.602L79.3788 473.063C78.1823 473.571 75.7895 474.129 75.7895 472.301C75.7895 470.015 76.5073 469.253 80.4556 470.777M80.4556 470.777C81.0929 469.847 81.7265 468.974 82.3273 468.178C84.4836 465.323 87.762 463.61 91.332 463.373C93.2007 463.249 95.3761 463.158 97.6842 463.158M80.4556 470.777C78.6849 473.215 81.8714 473.825 83.6859 473.825H97.6842M97.6842 480.682H88.711V484.872C88.711 485.126 89.1417 485.634 90.8645 485.634C92.5874 485.634 96.1288 485.634 97.6842 485.634M80.4556 478.777C81.4127 479.158 82.2502 479.158 85.4806 479.539C86.9163 480.301 86.5574 482.206 85.1217 482.206C83.6859 482.206 80.4556 482.206 79.7377 481.444C79.0198 480.682 79.7377 478.524 80.4556 478.777Z" stroke="#B2B2B2" stroke-linecap="round"/>
<path d="M97.6842 491.348C104.289 491.348 112.879 490.84 116.349 490.586L111.324 490.903V493.158C111.324 494.262 112.219 495.158 113.324 495.158H117.579C118.684 495.158 119.579 494.262 119.579 493.158V482.231C119.579 479.49 118.713 476.82 117.105 474.602L115.99 473.063C117.186 473.571 119.579 474.129 119.579 472.301C119.579 470.015 118.861 469.253 114.913 470.777M114.913 470.777C114.276 469.847 113.642 468.974 113.041 468.178C110.885 465.323 107.606 463.61 104.036 463.373C102.168 463.249 99.9924 463.158 97.6842 463.158M114.913 470.777C116.684 473.215 113.497 473.825 111.682 473.825H97.6842M97.6842 480.682H106.657V484.872C106.657 485.126 106.227 485.634 104.504 485.634C102.781 485.634 99.2396 485.634 97.6842 485.634M114.913 478.777C113.956 479.158 113.118 479.158 109.888 479.539C108.452 480.301 108.811 482.206 110.247 482.206C111.682 482.206 114.913 482.206 115.631 481.444C116.349 480.682 115.631 478.524 114.913 478.777Z" stroke="#B2B2B2" stroke-linecap="round"/>
<g clip-path="url(#clip1_0_1)">
<path d="M32 563.769C25.3957 563.769 16.8053 563.261 13.3356 563.008L18.3606 563.324V565.579C18.3606 566.684 17.4652 567.579 16.3606 567.579H12.1053C11.0007 567.579 10.1053 566.684 10.1053 565.579V554.652C10.1053 551.912 10.9711 549.241 12.5791 547.023L13.6946 545.484C12.4981 545.992 10.1053 546.55 10.1053 544.722C10.1053 542.436 10.8231 541.674 14.7713 543.198M14.7713 543.198C15.4087 542.268 16.0423 541.395 16.6431 540.599C18.7994 537.744 22.0778 536.031 25.6478 535.794C27.5165 535.67 29.6918 535.579 32 535.579M14.7713 543.198C13.0007 545.636 16.1871 546.246 18.0017 546.246H32M32 553.103H23.0267V557.293C23.0267 557.547 23.4575 558.055 25.1803 558.055C26.9032 558.055 30.4446 558.055 32 558.055M14.7713 551.198C15.7285 551.579 16.566 551.579 19.7964 551.96C21.2321 552.722 20.8732 554.627 19.4374 554.627C18.0017 554.627 14.7713 554.627 14.0535 553.865C13.3356 553.103 14.0535 550.945 14.7713 551.198Z" stroke="#B2B2B2" stroke-linecap="round"/>
<path d="M32 563.769C38.6043 563.769 47.1947 563.261 50.6644 563.008L45.6393 563.324V565.579C45.6393 566.684 46.5348 567.579 47.6393 567.579H51.8947C52.9993 567.579 53.8947 566.684 53.8947 565.579V554.652C53.8947 551.912 53.0289 549.241 51.4209 547.023L50.3054 545.484C51.5019 545.992 53.8947 546.55 53.8947 544.722C53.8947 542.436 53.1769 541.674 49.2286 543.198M49.2286 543.198C48.5913 542.268 47.9577 541.395 47.3569 540.599C45.2006 537.744 41.9222 536.031 38.3522 535.794C36.4835 535.67 34.3081 535.579 32 535.579M49.2286 543.198C50.9993 545.636 47.8128 546.246 45.9983 546.246H32M32 553.103H40.9732V557.293C40.9732 557.547 40.5425 558.055 38.8197 558.055C37.0968 558.055 33.5554 558.055 32 558.055M49.2286 551.198C48.2715 551.579 47.434 551.579 44.2036 551.96C42.7679 552.722 43.1268 554.627 44.5625 554.627C45.9983 554.627 49.2286 554.627 49.9465 553.865C50.6644 553.103 49.9465 550.945 49.2286 551.198Z" stroke="#B2B2B2" stroke-linecap="round"/>
<path d="M2 567.667V530.091L31.0909 516L62 530.091V567.667" stroke="#B2B2B2"/>
</g>
<path d="M146.526 396.879V390.737H185.263V429.639M185.263 429.639L173.344 442.947M185.263 429.639H173.344V442.947M173.344 442.947H146.526V427.789M137.263 420.425L138.256 426.568L144.216 424.52M137.263 420.425L144.216 424.52M137.263 420.425L148.189 403.022L154.148 407.117L152.396 410.188M144.216 424.52L152.396 410.188M152.396 410.188L146.202 406.093M155.789 403.022L180.297 403.022M157.474 409.164H180.297M154.148 415.307H180.297M152.396 420.425H180.297M152.396 425.263H180.297" stroke="#689901"/>
<path d="M206.677 400.842H197.053V410.316M206.677 400.842C206.035 404 203.212 410.316 197.053 410.316M206.677 400.842H241.323M197.053 410.316V420.737M197.053 420.737V431.158H206.677M197.053 420.737C200.261 422 206.677 425.853 206.677 431.158M206.677 431.158H241.323M241.323 431.158H250.947V421.684M241.323 431.158C242.286 428 245.558 421.684 250.947 421.684M250.947 421.684V411.263M250.947 411.263V400.842H241.323M250.947 411.263C247.739 410.316 241.323 406.905 241.323 400.842M224 408.421C228.812 408.421 231.699 412.211 231.699 416C231.699 419.789 228.812 423.579 224 423.579C219.188 423.579 216.301 419.789 216.301 416C216.301 412.211 219.188 408.421 224 408.421Z" stroke="#689901"/>
<g clip-path="url(#clip2_0_1)">
<path d="M144.974 471.848L138.149 468.554L148.476 452.967L166.678 461.751L161.659 479.9L154.834 476.606M144.974 471.848L142.046 477.915L144.322 479.013M144.974 471.848L154.834 476.606M154.834 476.606L151.906 482.673L148.872 481.209M144.322 479.013L133.342 501.765L134.153 505.897L139.775 503.935L139.356 500.928L142.729 499.75L141.186 497.136L145.318 496.324L143.382 492.585L148.872 481.209M144.322 479.013L148.872 481.209M170.652 468.634C172.987 467.154 176.075 466.855 177.327 466.89L190.575 486.468C190.267 487.618 188.644 490.5 184.618 492.824C180.593 495.149 177.188 495.169 175.989 494.889L165.658 473.627C166.35 472.58 168.317 470.114 170.652 468.634ZM170.652 468.634L168.564 465.017C170.548 464.02 173.892 460.94 171.385 456.599C168.253 451.173 162.901 453.872 160.79 455.09M150.046 457.464L147.484 462.773L160.377 468.995L162.939 463.686L150.046 457.464ZM169.186 474.507L171.291 478.154L178.507 473.988L176.402 470.341L169.186 474.507ZM173.397 481.8L175.081 484.717L182.297 480.551L180.192 476.905L172.976 481.071L173.397 481.8Z" stroke="#689901"/>
</g>
<path d="M194.526 501.053C199.523 498.919 203.789 494.63 203.789 486.737M252.472 471.579C249.254 472.735 248.421 477.474 250.947 481.179C256.684 489.593 251.306 495.916 241.144 503.916" stroke="#689901" stroke-linecap="round"/>
<path d="M225.684 491.348C219.08 491.348 210.49 490.84 207.02 490.586L212.045 490.903V493.158C212.045 494.262 211.149 495.158 210.045 495.158H205.789C204.685 495.158 203.789 494.262 203.789 493.158V482.231C203.789 479.49 204.655 476.82 206.263 474.602L207.379 473.063C206.182 473.571 203.789 474.129 203.789 472.301C203.789 470.015 204.507 469.253 208.456 470.777M208.456 470.777C209.093 469.847 209.726 468.974 210.327 468.178C212.484 465.323 215.762 463.61 219.332 463.373C221.201 463.249 223.376 463.158 225.684 463.158M208.456 470.777C206.685 473.215 209.871 473.825 211.686 473.825H225.684M225.684 480.682H216.711V484.872C216.711 485.126 217.142 485.634 218.865 485.634C220.587 485.634 224.129 485.634 225.684 485.634M208.456 478.777C209.413 479.158 210.25 479.158 213.481 479.539C214.916 480.301 214.557 482.206 213.122 482.206C211.686 482.206 208.456 482.206 207.738 481.444C207.02 480.682 207.738 478.524 208.456 478.777Z" stroke="#689901" stroke-linecap="round"/>
<path d="M225.684 491.348C232.289 491.348 240.879 490.84 244.349 490.586L239.324 490.903V493.158C239.324 494.262 240.219 495.158 241.324 495.158H245.579C246.684 495.158 247.579 494.262 247.579 493.158V482.231C247.579 479.49 246.713 476.82 245.105 474.602L243.99 473.063C245.186 473.571 247.579 474.129 247.579 472.301C247.579 470.015 246.861 469.253 242.913 470.777M242.913 470.777C242.276 469.847 241.642 468.974 241.041 468.178C238.885 465.323 235.606 463.61 232.036 463.373C230.168 463.249 227.992 463.158 225.684 463.158M242.913 470.777C244.684 473.215 241.497 473.825 239.682 473.825H225.684M225.684 480.682H234.657V484.872C234.657 485.126 234.227 485.634 232.504 485.634C230.781 485.634 227.24 485.634 225.684 485.634M242.913 478.777C241.956 479.158 241.118 479.158 237.888 479.539C236.452 480.301 236.811 482.206 238.247 482.206C239.682 482.206 242.913 482.206 243.631 481.444C244.349 480.682 243.631 478.524 242.913 478.777Z" stroke="#689901" stroke-linecap="round"/>
<g clip-path="url(#clip3_0_1)">
<g clip-path="url(#clip4_0_1)">
<path d="M160 563.769C153.396 563.769 144.805 563.261 141.336 563.008L146.361 563.324V565.579C146.361 566.684 145.465 567.579 144.361 567.579H140.105C139.001 567.579 138.105 566.684 138.105 565.579V554.652C138.105 551.912 138.971 549.241 140.579 547.023L141.695 545.484C140.498 545.992 138.105 546.55 138.105 544.722C138.105 542.436 138.823 541.674 142.771 543.198M142.771 543.198C143.409 542.268 144.042 541.395 144.643 540.599C146.799 537.744 150.078 536.031 153.648 535.794C155.516 535.67 157.692 535.579 160 535.579M142.771 543.198C141.001 545.636 144.187 546.246 146.002 546.246H160M160 553.103H151.027V557.293C151.027 557.547 151.457 558.055 153.18 558.055C154.903 558.055 158.445 558.055 160 558.055M142.771 551.198C143.729 551.579 144.566 551.579 147.796 551.96C149.232 552.722 148.873 554.627 147.437 554.627C146.002 554.627 142.771 554.627 142.053 553.865C141.336 553.103 142.053 550.945 142.771 551.198Z" stroke="#689901" stroke-linecap="round"/>
<path d="M160 563.769C166.604 563.769 175.195 563.261 178.664 563.008L173.639 563.324V565.579C173.639 566.684 174.535 567.579 175.639 567.579H179.895C180.999 567.579 181.895 566.684 181.895 565.579V554.652C181.895 551.912 181.029 549.241 179.421 547.023L178.305 545.484C179.502 545.992 181.895 546.55 181.895 544.722C181.895 542.436 181.177 541.674 177.229 543.198M177.229 543.198C176.591 542.268 175.958 541.395 175.357 540.599C173.201 537.744 169.922 536.031 166.352 535.794C164.484 535.67 162.308 535.579 160 535.579M177.229 543.198C178.999 545.636 175.813 546.246 173.998 546.246H160M160 553.103H168.973V557.293C168.973 557.547 168.543 558.055 166.82 558.055C165.097 558.055 161.555 558.055 160 558.055M177.229 551.198C176.271 551.579 175.434 551.579 172.204 551.96C170.768 552.722 171.127 554.627 172.563 554.627C173.998 554.627 177.229 554.627 177.947 553.865C178.664 553.103 177.947 550.945 177.229 551.198Z" stroke="#689901" stroke-linecap="round"/>
<path d="M130 567.667V530.091L159.091 516L190 530.091V567.667" stroke="#689901"/>
</g>
</g>
<defs>
<clipPath id="clip0_0_1">
<rect width="64" height="64" fill="white" transform="translate(0 448)"/>
</clipPath>
<clipPath id="clip1_0_1">
<rect width="64" height="64" fill="white" transform="translate(0 512)"/>
</clipPath>
<clipPath id="clip2_0_1">
<rect width="64" height="64" fill="white" transform="translate(128 448)"/>
</clipPath>
<clipPath id="clip3_0_1">
<rect width="64" height="64" fill="white" transform="translate(128 512)"/>
</clipPath>
<clipPath id="clip4_0_1">
<rect width="64" height="64" fill="white" transform="translate(128 512)"/>
</clipPath>
</defs>
</svg>
