<svg width="64" height="90" viewBox="0 0 64 90" fill="none" xmlns="http://www.w3.org/2000/svg">
<path d="M32 44.4138C29.6757 44.2588 26.0458 42.8418 23.3103 38.9893M32 44.4138C34.3501 44.1788 38.035 42.876 40.7804 38.9893M32 44.4138L28.6897 51.8621M32 44.4138L35.7241 51.8621M23.3103 38.9893C21.176 35.9833 19.5862 31.4945 19.5862 24.9655C19.5862 16.6897 24.1379 11.3103 32 11.3103C39.8621 11.3103 44.4138 16.2759 44.4138 24.9655C44.4138 30.743 43.2353 34.8706 41.5454 37.7931M23.3103 38.9893L22.069 42.7586L23.2727 44.4138M28.6897 51.8621H35.7241M28.6897 51.8621L27.8621 56M28.6897 51.8621L23.2727 44.4138M35.7241 51.8621L36.5517 56M35.7241 51.8621L40.7804 44.4463M40.7804 38.9893L41.931 42.7586L40.7804 44.4463M40.7804 38.9893C41.0448 38.615 41.3005 38.2167 41.5454 37.7931M27.8621 56H36.5517M27.8621 56H8V51.4483C8.38872 49.7825 11.9875 46.0436 23.2727 44.4138M36.5517 56H56V51.4483C54.5432 49.2607 49.4598 44.7977 40.7804 44.4463M46.8966 22.4828C46.8966 17.6552 43.9172 8 32 8C19.5862 8 17.1034 19.1724 17.1034 22.4828M46.8966 22.4828V22.4828C45.9824 22.4828 45.2414 23.2238 45.2414 24.1379V29.7241C45.2414 30.7525 46.0751 31.5862 47.1034 31.5862V31.5862M46.8966 22.4828H48.2069C49.3115 22.4828 50.2069 23.3782 50.2069 24.4828V29.5862C50.2069 30.6908 49.3115 31.5862 48.2069 31.5862H47.1034M17.1034 22.4828H15.3793C14.2747 22.4828 13.3793 23.3782 13.3793 24.4828V29.5862C13.3793 30.6908 14.2747 31.5862 15.3793 31.5862H16.7586C17.8632 31.5862 18.7586 30.6908 18.7586 29.5862V24.1379C18.7586 23.2238 18.0176 22.4828 17.1034 22.4828V22.4828ZM47.1034 31.5862C46.9153 33.6552 45.5404 37.7931 41.5454 37.7931M41.5454 37.7931L33.2414 38.2069" stroke="#689901" stroke-linecap="round"/>
<path d="M12.1982 86V77.54H13.7102V84.728H17.0942V77.54H18.6062V84.728H21.9902V77.54H23.5022V86H12.1982ZM24.6623 86L28.4903 77.54H29.7863L33.6623 86H32.0903L31.0583 83.624L31.6823 84.044H26.6063L27.2543 83.624L26.2223 86H24.6623ZM29.1263 79.196L27.4343 83.204L27.1223 82.832H31.1543L30.9023 83.204L29.1743 79.196H29.1263ZM34.8383 86V77.54H40.5743V78.8H36.3743V86H34.8383ZM45.8745 86V84.716H47.8185V78.836H48.5625L46.0665 80.324V78.86L48.2625 77.54H49.3665V84.716H51.1905V86H45.8745Z" fill="#DEDEDE"/>
</svg>
